<ttFont>
    <TTGlyph name=".notdef" xMin="7" yMin="0" xMax="507" yMax="700">
      <contour>
        <pt x="7" y="700" on="1"/>
        <pt x="507" y="700" on="1"/>
        <pt x="507" y="0" on="1"/>
        <pt x="7" y="0" on="1"/>
      </contour>
      <contour>
        <pt x="426" y="650" on="1"/>
        <pt x="86" y="650" on="1"/>
        <pt x="257" y="395" on="1"/>
      </contour>
      <contour>
        <pt x="227" y="350" on="1"/>
        <pt x="56" y="605" on="1"/>
        <pt x="56" y="95" on="1"/>
      </contour>
      <contour>
        <pt x="456" y="605" on="1"/>
        <pt x="287" y="350" on="1"/>
        <pt x="456" y="95" on="1"/>
      </contour>
      <contour>
        <pt x="427" y="50" on="1"/>
        <pt x="256" y="305" on="1"/>
        <pt x="87" y="50" on="1"/>
      </contour>
    </TTGlyph>
    <TTGlyph name="A" xMin="8" yMin="-2" xMax="497" yMax="702">
      <contour>
        <pt x="8" y="-2" on="0"/>
        <pt x="8" y="17" on="1"/>
        <pt x="8" y="25" on="0"/>
        <pt x="11" y="32" on="1"/>
        <pt x="180" y="679" on="1"/>
        <pt x="186" y="702" on="0"/>
        <pt x="229" y="702" on="1"/>
        <pt x="276" y="702" on="1"/>
        <pt x="319" y="702" on="0"/>
        <pt x="325" y="679" on="1"/>
        <pt x="494" y="32" on="1"/>
        <pt x="497" y="25" on="0"/>
        <pt x="497" y="17" on="1"/>
        <pt x="497" y="-2" on="0"/>
        <pt x="457" y="-2" on="1"/>
        <pt x="424" y="-2" on="1"/>
        <pt x="385" y="-2" on="0"/>
        <pt x="381" y="16" on="1"/>
        <pt x="345" y="162" on="1"/>
        <pt x="158" y="162" on="1"/>
        <pt x="123" y="16" on="1"/>
        <pt x="119" y="-2" on="0"/>
        <pt x="82" y="-2" on="1"/>
        <pt x="50" y="-2" on="1"/>
      </contour>
      <contour>
        <pt x="326" y="258" on="1"/>
        <pt x="266" y="505" on="1"/>
        <pt x="262" y="520" on="0"/>
        <pt x="255" y="572" on="1"/>
        <pt x="250" y="572" on="1"/>
        <pt x="248" y="565" on="0"/>
        <pt x="246" y="547" on="1"/>
        <pt x="244" y="538" on="0"/>
        <pt x="241" y="517" on="0"/>
        <pt x="238" y="505" on="1"/>
        <pt x="179" y="258" on="1"/>
      </contour>
    </TTGlyph>
    <TTGlyph name="AE" xMin="2" yMin="-2" xMax="692" yMax="700">
      <contour>
        <pt x="2" y="-2" on="0"/>
        <pt x="2" y="17" on="1"/>
        <pt x="2" y="25" on="0"/>
        <pt x="5" y="34" on="1"/>
        <pt x="257" y="673" on="1"/>
        <pt x="263" y="687" on="0"/>
        <pt x="279" y="700" on="0"/>
        <pt x="292" y="700" on="1"/>
        <pt x="667" y="700" on="1"/>
        <pt x="691" y="700" on="0"/>
        <pt x="691" y="661" on="1"/>
        <pt x="691" y="639" on="1"/>
        <pt x="691" y="618" on="0"/>
        <pt x="679" y="600" on="0"/>
        <pt x="667" y="600" on="1"/>
        <pt x="413" y="600" on="1"/>
        <pt x="439" y="408" on="1"/>
        <pt x="646" y="408" on="1"/>
        <pt x="658" y="408" on="0"/>
        <pt x="669" y="390" on="0"/>
        <pt x="669" y="370" on="1"/>
        <pt x="669" y="347" on="1"/>
        <pt x="669" y="327" on="0"/>
        <pt x="658" y="308" on="0"/>
        <pt x="646" y="308" on="1"/>
        <pt x="453" y="308" on="1"/>
        <pt x="482" y="100" on="1"/>
        <pt x="668" y="100" on="1"/>
        <pt x="680" y="100" on="0"/>
        <pt x="692" y="82" on="0"/>
        <pt x="692" y="61" on="1"/>
        <pt x="692" y="39" on="1"/>
        <pt x="692" y="0" on="0"/>
        <pt x="668" y="0" on="1"/>
        <pt x="406" y="0" on="1"/>
        <pt x="393" y="0" on="0"/>
        <pt x="380" y="14" on="0"/>
        <pt x="378" y="29" on="1"/>
        <pt x="360" y="162" on="1"/>
        <pt x="169" y="162" on="1"/>
        <pt x="113" y="16" on="1"/>
        <pt x="107" y="-2" on="0"/>
        <pt x="77" y="-2" on="1"/>
        <pt x="49" y="-2" on="1"/>
      </contour>
      <contour>
        <pt x="348" y="262" on="1"/>
        <pt x="318" y="494" on="1"/>
        <pt x="317" y="558" on="1"/>
        <pt x="314" y="558" on="1"/>
        <pt x="293" y="495" on="1"/>
        <pt x="205" y="262" on="1"/>
      </contour>
    </TTGlyph>
    <TTGlyph name="AEacute" xMin="2" yMin="-2" xMax="692" yMax="910">
      <component glyphName="AE" x="0" y="0" flags="0x0"/>
      <component glyphName="acutecomb" x="466" y="177" flags="0x0"/>
    </TTGlyph>
    <TTGlyph name="Aacute" xMin="8" yMin="-2" xMax="497" yMax="910">
      <component glyphName="A" x="0" y="0" flags="0x0"/>
      <component glyphName="acutecomb" x="327" y="177" flags="0x0"/>
    </TTGlyph>
    <TTGlyph name="Abreve" xMin="8" yMin="-2" xMax="497" yMax="892">
      <component glyphName="A" x="0" y="0" flags="0x0"/>
      <component glyphName="uni0306" x="252" y="177" flags="0x0"/>
    </TTGlyph>
    <TTGlyph name="Acircumflex" xMin="8" yMin="-2" xMax="497" yMax="895">
      <component glyphName="A" x="0" y="0" flags="0x0"/>
      <component glyphName="uni0302" x="251" y="177" flags="0x0"/>
    </TTGlyph>
    <TTGlyph name="Adieresis" xMin="8" yMin="-2" xMax="497" yMax="879">
      <component glyphName="A" x="0" y="0" flags="0x0"/>
      <component glyphName="uni0308" x="255" y="177" flags="0x0"/>
    </TTGlyph>
    <TTGlyph name="Agrave" xMin="8" yMin="-2" xMax="497" yMax="910">
      <component glyphName="A" x="0" y="0" flags="0x0"/>
      <component glyphName="gravecomb" x="252" y="177" flags="0x0"/>
    </TTGlyph>
    <TTGlyph name="Amacron" xMin="8" yMin="-2" xMax="497" yMax="863">
      <component glyphName="A" x="0" y="0" flags="0x0"/>
      <component glyphName="uni0304" x="255" y="177" flags="0x0"/>
    </TTGlyph>
    <TTGlyph name="Aogonek" xMin="8" yMin="-171" xMax="520" yMax="702">
      <contour>
        <pt x="520" y="-100" on="0"/>
        <pt x="520" y="-126" on="1"/>
        <pt x="520" y="-146" on="0"/>
        <pt x="505" y="-155" on="1"/>
        <pt x="479" y="-171" on="0"/>
        <pt x="443" y="-171" on="1"/>
        <pt x="388" y="-171" on="0"/>
        <pt x="349" y="-112" on="0"/>
        <pt x="349" y="-80" on="1"/>
        <pt x="349" y="-60" on="0"/>
        <pt x="364" y="-6" on="0"/>
        <pt x="380" y="19" on="1"/>
        <pt x="345" y="162" on="1"/>
        <pt x="158" y="162" on="1"/>
        <pt x="123" y="16" on="1"/>
        <pt x="119" y="-2" on="0"/>
        <pt x="82" y="-2" on="1"/>
        <pt x="50" y="-2" on="1"/>
        <pt x="8" y="-2" on="0"/>
        <pt x="8" y="17" on="1"/>
        <pt x="8" y="25" on="0"/>
        <pt x="11" y="32" on="1"/>
        <pt x="180" y="679" on="1"/>
        <pt x="186" y="702" on="0"/>
        <pt x="229" y="702" on="1"/>
        <pt x="276" y="702" on="1"/>
        <pt x="319" y="702" on="0"/>
        <pt x="325" y="679" on="1"/>
        <pt x="494" y="32" on="1"/>
        <pt x="497" y="25" on="0"/>
        <pt x="497" y="17" on="1"/>
        <pt x="497" y="-2" on="0"/>
        <pt x="457" y="-2" on="1"/>
        <pt x="426" y="-2" on="1"/>
        <pt x="413" y="-34" on="0"/>
        <pt x="413" y="-62" on="1"/>
        <pt x="413" y="-87" on="0"/>
        <pt x="441" y="-105" on="0"/>
        <pt x="462" y="-105" on="1"/>
        <pt x="470" y="-105" on="0"/>
        <pt x="489" y="-100" on="0"/>
        <pt x="495" y="-100" on="1"/>
      </contour>
      <contour>
        <pt x="326" y="258" on="1"/>
        <pt x="266" y="505" on="1"/>
        <pt x="262" y="520" on="0"/>
        <pt x="255" y="572" on="1"/>
        <pt x="250" y="572" on="1"/>
        <pt x="248" y="565" on="0"/>
        <pt x="246" y="547" on="1"/>
        <pt x="244" y="538" on="0"/>
        <pt x="241" y="517" on="0"/>
        <pt x="238" y="505" on="1"/>
        <pt x="179" y="258" on="1"/>
      </contour>
    </TTGlyph>
    <TTGlyph name="Aring" xMin="8" yMin="-2" xMax="497" yMax="917">
      <component glyphName="A" x="0" y="0" flags="0x0"/>
      <component glyphName="uni030A" x="251" y="177" flags="0x0"/>
    </TTGlyph>
    <TTGlyph name="Aringacute" xMin="8" yMin="-2" xMax="497" yMax="1009">
      <contour>
        <pt x="220" y="871" on="0"/>
        <pt x="220" y="884" on="1"/>
        <pt x="220" y="890" on="0"/>
        <pt x="236" y="930" on="0"/>
        <pt x="251" y="964" on="1"/>
        <pt x="259" y="983" on="1"/>
        <pt x="272" y="1009" on="0"/>
        <pt x="323" y="1009" on="1"/>
        <pt x="341" y="1009" on="0"/>
        <pt x="358" y="1001" on="0"/>
        <pt x="358" y="991" on="1"/>
        <pt x="358" y="986" on="0"/>
        <pt x="342" y="962" on="0"/>
        <pt x="326" y="941" on="1"/>
        <pt x="287" y="888" on="1"/>
        <pt x="279" y="880" on="0"/>
        <pt x="259" y="871" on="0"/>
        <pt x="242" y="871" on="1"/>
      </contour>
      <contour>
        <pt x="497" y="25" on="0"/>
        <pt x="497" y="17" on="1"/>
        <pt x="497" y="-2" on="0"/>
        <pt x="457" y="-2" on="1"/>
        <pt x="424" y="-2" on="1"/>
        <pt x="385" y="-2" on="0"/>
        <pt x="381" y="16" on="1"/>
        <pt x="345" y="162" on="1"/>
        <pt x="158" y="162" on="1"/>
        <pt x="123" y="16" on="1"/>
        <pt x="119" y="-2" on="0"/>
        <pt x="82" y="-2" on="1"/>
        <pt x="50" y="-2" on="1"/>
        <pt x="8" y="-2" on="0"/>
        <pt x="8" y="17" on="1"/>
        <pt x="8" y="25" on="0"/>
        <pt x="11" y="32" on="1"/>
        <pt x="180" y="679" on="1"/>
        <pt x="181" y="685" on="0"/>
        <pt x="188" y="692" on="1"/>
        <pt x="162" y="716" on="0"/>
        <pt x="162" y="758" on="1"/>
        <pt x="162" y="799" on="0"/>
        <pt x="211" y="850" on="0"/>
        <pt x="252" y="850" on="1"/>
        <pt x="294" y="850" on="0"/>
        <pt x="343" y="800" on="0"/>
        <pt x="343" y="758" on="1"/>
        <pt x="343" y="716" on="0"/>
        <pt x="317" y="692" on="1"/>
        <pt x="323" y="687" on="0"/>
        <pt x="325" y="679" on="1"/>
        <pt x="494" y="32" on="1"/>
      </contour>
      <contour>
        <pt x="232" y="802" on="0"/>
        <pt x="211" y="779" on="0"/>
        <pt x="210" y="758" on="1"/>
        <pt x="212" y="715" on="0"/>
        <pt x="253" y="715" on="1"/>
        <pt x="273" y="715" on="0"/>
        <pt x="295" y="738" on="0"/>
        <pt x="295" y="758" on="1"/>
        <pt x="295" y="778" on="0"/>
        <pt x="272" y="802" on="0"/>
        <pt x="253" y="802" on="1"/>
      </contour>
      <contour>
        <pt x="326" y="258" on="1"/>
        <pt x="266" y="505" on="1"/>
        <pt x="262" y="520" on="0"/>
        <pt x="255" y="572" on="1"/>
        <pt x="250" y="572" on="1"/>
        <pt x="248" y="565" on="0"/>
        <pt x="246" y="547" on="1"/>
        <pt x="244" y="538" on="0"/>
        <pt x="241" y="517" on="0"/>
        <pt x="238" y="505" on="1"/>
        <pt x="179" y="258" on="1"/>
      </contour>
    </TTGlyph>
    <TTGlyph name="Atilde" xMin="8" yMin="-2" xMax="497" yMax="871">
      <component glyphName="A" x="0" y="0" flags="0x0"/>
      <component glyphName="tildecomb" x="253" y="177" flags="0x0"/>
    </TTGlyph>
    <TTGlyph name="B" xMin="69" yMin="0" xMax="497" yMax="700">
      <contour>
        <pt x="84" y="0" on="0"/>
        <pt x="69" y="16" on="0"/>
        <pt x="69" y="34" on="1"/>
        <pt x="69" y="666" on="1"/>
        <pt x="69" y="684" on="0"/>
        <pt x="84" y="700" on="0"/>
        <pt x="101" y="700" on="1"/>
        <pt x="276" y="700" on="1"/>
        <pt x="376" y="700" on="0"/>
        <pt x="475" y="609" on="0"/>
        <pt x="475" y="527" on="1"/>
        <pt x="475" y="473" on="0"/>
        <pt x="423" y="386" on="0"/>
        <pt x="385" y="369" on="1"/>
        <pt x="385" y="365" on="1"/>
        <pt x="428" y="351" on="0"/>
        <pt x="497" y="271" on="0"/>
        <pt x="497" y="199" on="1"/>
        <pt x="497" y="103" on="0"/>
        <pt x="386" y="0" on="0"/>
        <pt x="278" y="0" on="1"/>
        <pt x="101" y="0" on="1"/>
      </contour>
      <contour>
        <pt x="273" y="406" on="1"/>
        <pt x="313" y="406" on="0"/>
        <pt x="358" y="461" on="0"/>
        <pt x="358" y="508" on="1"/>
        <pt x="358" y="558" on="0"/>
        <pt x="317" y="605" on="0"/>
        <pt x="273" y="605" on="1"/>
        <pt x="184" y="605" on="1"/>
        <pt x="184" y="406" on="1"/>
      </contour>
      <contour>
        <pt x="290" y="96" on="1"/>
        <pt x="333" y="96" on="0"/>
        <pt x="379" y="153" on="0"/>
        <pt x="379" y="208" on="1"/>
        <pt x="379" y="311" on="0"/>
        <pt x="282" y="311" on="1"/>
        <pt x="184" y="311" on="1"/>
        <pt x="184" y="96" on="1"/>
      </contour>
    </TTGlyph>
    <TTGlyph name="C" xMin="44" yMin="-7" xMax="438" yMax="707">
      <contour>
        <pt x="171" y="-7" on="0"/>
        <pt x="44" y="167" on="0"/>
        <pt x="44" y="351" on="1"/>
        <pt x="44" y="531" on="0"/>
        <pt x="175" y="707" on="0"/>
        <pt x="310" y="707" on="1"/>
        <pt x="365" y="707" on="0"/>
        <pt x="404" y="691" on="1"/>
        <pt x="428" y="685" on="0"/>
        <pt x="428" y="656" on="1"/>
        <pt x="427" y="630" on="0"/>
        <pt x="406" y="580" on="0"/>
        <pt x="389" y="588" on="1"/>
        <pt x="348" y="604" on="0"/>
        <pt x="313" y="604" on="1"/>
        <pt x="238" y="604" on="0"/>
        <pt x="166" y="481" on="0"/>
        <pt x="166" y="351" on="1"/>
        <pt x="166" y="221" on="0"/>
        <pt x="238" y="97" on="0"/>
        <pt x="314" y="97" on="1"/>
        <pt x="338" y="97" on="0"/>
        <pt x="376" y="107" on="0"/>
        <pt x="396" y="116" on="1"/>
        <pt x="402" y="118" on="0"/>
        <pt x="405" y="118" on="1"/>
        <pt x="421" y="118" on="0"/>
        <pt x="438" y="75" on="0"/>
        <pt x="438" y="48" on="1"/>
        <pt x="438" y="36" on="0"/>
        <pt x="427" y="18" on="0"/>
        <pt x="412" y="11" on="1"/>
        <pt x="394" y="4" on="0"/>
        <pt x="337" y="-7" on="0"/>
        <pt x="307" y="-7" on="1"/>
      </contour>
    </TTGlyph>
    <TTGlyph name="Cacute" xMin="44" yMin="-7" xMax="438" yMax="910">
      <component glyphName="C" x="0" y="0" flags="0x0"/>
      <component glyphName="acutecomb" x="371" y="177" flags="0x0"/>
    </TTGlyph>
    <TTGlyph name="Cacute.loclPLK" xMin="44" yMin="-7" xMax="438" yMax="910">
      <component glyphName="C" x="0" y="0" flags="0x0"/>
      <component glyphName="acute.loclPLK" x="208" y="177" flags="0x0"/>
    </TTGlyph>
    <TTGlyph name="Ccaron" xMin="44" yMin="-7" xMax="438" yMax="899">
      <component glyphName="C" x="0" y="0" flags="0x0"/>
      <component glyphName="uni030C" x="291" y="177" flags="0x0"/>
    </TTGlyph>
    <TTGlyph name="Ccedilla" xMin="44" yMin="-211" xMax="438" yMax="707">
      <contour>
        <pt x="402" y="118" on="0"/>
        <pt x="405" y="118" on="1"/>
        <pt x="421" y="118" on="0"/>
        <pt x="438" y="75" on="0"/>
        <pt x="438" y="48" on="1"/>
        <pt x="438" y="36" on="0"/>
        <pt x="427" y="18" on="0"/>
        <pt x="412" y="11" on="1"/>
        <pt x="384" y="-1" on="0"/>
        <pt x="330" y="-6" on="1"/>
        <pt x="317" y="-54" on="1"/>
        <pt x="346" y="-57" on="0"/>
        <pt x="386" y="-90" on="0"/>
        <pt x="386" y="-125" on="1"/>
        <pt x="386" y="-170" on="0"/>
        <pt x="331" y="-211" on="0"/>
        <pt x="286" y="-211" on="1"/>
        <pt x="249" y="-211" on="0"/>
        <pt x="187" y="-183" on="0"/>
        <pt x="187" y="-164" on="1"/>
        <pt x="187" y="-151" on="0"/>
        <pt x="204" y="-131" on="0"/>
        <pt x="211" y="-131" on="1"/>
        <pt x="217" y="-131" on="0"/>
        <pt x="233" y="-138" on="0"/>
        <pt x="236" y="-139" on="1"/>
        <pt x="238" y="-140" on="0"/>
        <pt x="264" y="-151" on="0"/>
        <pt x="279" y="-151" on="1"/>
        <pt x="291" y="-151" on="0"/>
        <pt x="308" y="-139" on="0"/>
        <pt x="308" y="-128" on="1"/>
        <pt x="308" y="-116" on="0"/>
        <pt x="294" y="-106" on="0"/>
        <pt x="279" y="-99" on="1"/>
        <pt x="267" y="-95" on="0"/>
        <pt x="256" y="-87" on="0"/>
        <pt x="256" y="-79" on="1"/>
        <pt x="256" y="-73" on="0"/>
        <pt x="267" y="-39" on="0"/>
        <pt x="278" y="-6" on="1"/>
        <pt x="157" y="3" on="0"/>
        <pt x="44" y="176" on="0"/>
        <pt x="44" y="351" on="1"/>
        <pt x="44" y="531" on="0"/>
        <pt x="175" y="707" on="0"/>
        <pt x="310" y="707" on="1"/>
        <pt x="365" y="707" on="0"/>
        <pt x="404" y="691" on="1"/>
        <pt x="428" y="685" on="0"/>
        <pt x="428" y="656" on="1"/>
        <pt x="427" y="630" on="0"/>
        <pt x="406" y="580" on="0"/>
        <pt x="389" y="588" on="1"/>
        <pt x="348" y="604" on="0"/>
        <pt x="313" y="604" on="1"/>
        <pt x="238" y="604" on="0"/>
        <pt x="166" y="481" on="0"/>
        <pt x="166" y="351" on="1"/>
        <pt x="166" y="221" on="0"/>
        <pt x="238" y="97" on="0"/>
        <pt x="314" y="97" on="1"/>
        <pt x="338" y="97" on="0"/>
        <pt x="376" y="107" on="0"/>
        <pt x="396" y="116" on="1"/>
      </contour>
    </TTGlyph>
    <TTGlyph name="Ccircumflex" xMin="44" yMin="-7" xMax="438" yMax="895">
      <component glyphName="C" x="0" y="0" flags="0x0"/>
      <component glyphName="uni0302" x="295" y="177" flags="0x0"/>
    </TTGlyph>
    <TTGlyph name="Cdotaccent" xMin="44" yMin="-7" xMax="438" yMax="879">
      <component glyphName="C" x="0" y="0" flags="0x0"/>
      <component glyphName="uni0307" x="297" y="177" flags="0x0"/>
    </TTGlyph>
    <TTGlyph name="D" xMin="69" yMin="0" xMax="530" yMax="700">
      <contour>
        <pt x="84" y="0" on="0"/>
        <pt x="69" y="16" on="0"/>
        <pt x="69" y="34" on="1"/>
        <pt x="69" y="666" on="1"/>
        <pt x="69" y="684" on="0"/>
        <pt x="84" y="700" on="0"/>
        <pt x="100" y="700" on="1"/>
        <pt x="278" y="700" on="1"/>
        <pt x="401" y="700" on="0"/>
        <pt x="530" y="531" on="0"/>
        <pt x="530" y="350" on="1"/>
        <pt x="530" y="169" on="0"/>
        <pt x="402" y="0" on="0"/>
        <pt x="278" y="0" on="1"/>
        <pt x="100" y="0" on="1"/>
      </contour>
      <contour>
        <pt x="275" y="100" on="1"/>
        <pt x="340" y="100" on="0"/>
        <pt x="408" y="218" on="0"/>
        <pt x="408" y="350" on="1"/>
        <pt x="408" y="482" on="0"/>
        <pt x="340" y="600" on="0"/>
        <pt x="275" y="600" on="1"/>
        <pt x="189" y="600" on="1"/>
        <pt x="189" y="100" on="1"/>
      </contour>
    </TTGlyph>
    <TTGlyph name="Dcaron" xMin="69" yMin="0" xMax="530" yMax="899">
      <component glyphName="D" x="0" y="0" flags="0x0"/>
      <component glyphName="uni030C" x="270" y="177" flags="0x0"/>
    </TTGlyph>
    <TTGlyph name="Dcroat" xMin="9" yMin="0" xMax="530" yMax="700">
      <component glyphName="Eth" x="0" y="0" flags="0x0"/>
    </TTGlyph>
    <TTGlyph name="E" xMin="69" yMin="0" xMax="415" yMax="700">
      <contour>
        <pt x="84" y="0" on="0"/>
        <pt x="69" y="16" on="0"/>
        <pt x="69" y="34" on="1"/>
        <pt x="69" y="666" on="1"/>
        <pt x="69" y="684" on="0"/>
        <pt x="84" y="700" on="0"/>
        <pt x="100" y="700" on="1"/>
        <pt x="391" y="700" on="1"/>
        <pt x="415" y="700" on="0"/>
        <pt x="415" y="661" on="1"/>
        <pt x="415" y="639" on="1"/>
        <pt x="415" y="618" on="0"/>
        <pt x="403" y="600" on="0"/>
        <pt x="391" y="600" on="1"/>
        <pt x="188" y="600" on="1"/>
        <pt x="188" y="408" on="1"/>
        <pt x="370" y="408" on="1"/>
        <pt x="382" y="408" on="0"/>
        <pt x="393" y="390" on="0"/>
        <pt x="393" y="370" on="1"/>
        <pt x="393" y="347" on="1"/>
        <pt x="393" y="327" on="0"/>
        <pt x="382" y="308" on="0"/>
        <pt x="370" y="308" on="1"/>
        <pt x="188" y="308" on="1"/>
        <pt x="188" y="100" on="1"/>
        <pt x="392" y="100" on="1"/>
        <pt x="404" y="100" on="0"/>
        <pt x="415" y="82" on="0"/>
        <pt x="415" y="61" on="1"/>
        <pt x="415" y="39" on="1"/>
        <pt x="415" y="19" on="0"/>
        <pt x="404" y="0" on="0"/>
        <pt x="392" y="0" on="1"/>
        <pt x="100" y="0" on="1"/>
      </contour>
    </TTGlyph>
    <TTGlyph name="Eacute" xMin="69" yMin="0" xMax="415" yMax="910">
      <component glyphName="E" x="0" y="0" flags="0x0"/>
      <component glyphName="acutecomb" x="321" y="177" flags="0x0"/>
    </TTGlyph>
    <TTGlyph name="Ebreve" xMin="69" yMin="0" xMax="415" yMax="892">
      <component glyphName="E" x="0" y="0" flags="0x0"/>
      <component glyphName="uni0306" x="246" y="177" flags="0x0"/>
    </TTGlyph>
    <TTGlyph name="Ecaron" xMin="69" yMin="0" xMax="415" yMax="899">
      <component glyphName="E" x="0" y="0" flags="0x0"/>
      <component glyphName="uni030C" x="240" y="177" flags="0x0"/>
    </TTGlyph>
    <TTGlyph name="Ecircumflex" xMin="69" yMin="0" xMax="415" yMax="895">
      <component glyphName="E" x="0" y="0" flags="0x0"/>
      <component glyphName="uni0302" x="244" y="177" flags="0x0"/>
    </TTGlyph>
    <TTGlyph name="Edieresis" xMin="69" yMin="0" xMax="415" yMax="879">
      <component glyphName="E" x="0" y="0" flags="0x0"/>
      <component glyphName="uni0308" x="248" y="177" flags="0x0"/>
    </TTGlyph>
    <TTGlyph name="Edotaccent" xMin="69" yMin="0" xMax="415" yMax="879">
      <component glyphName="E" x="0" y="0" flags="0x0"/>
      <component glyphName="uni0307" x="246" y="177" flags="0x0"/>
    </TTGlyph>
    <TTGlyph name="Egrave" xMin="69" yMin="0" xMax="415" yMax="910">
      <component glyphName="E" x="0" y="0" flags="0x0"/>
      <component glyphName="gravecomb" x="245" y="177" flags="0x0"/>
    </TTGlyph>
    <TTGlyph name="Emacron" xMin="69" yMin="0" xMax="415" yMax="863">
      <component glyphName="E" x="0" y="0" flags="0x0"/>
      <component glyphName="uni0304" x="249" y="177" flags="0x0"/>
    </TTGlyph>
    <TTGlyph name="Eng" xMin="64" yMin="-212" xMax="526" yMax="702">
      <contour>
        <pt x="526" y="702" on="0"/>
        <pt x="526" y="676" on="1"/>
        <pt x="526" y="-67" on="1"/>
        <pt x="526" y="-143" on="0"/>
        <pt x="456" y="-212" on="0"/>
        <pt x="406" y="-212" on="1"/>
        <pt x="323" y="-212" on="0"/>
        <pt x="323" y="-173" on="1"/>
        <pt x="323" y="-158" on="0"/>
        <pt x="338" y="-116" on="0"/>
        <pt x="349" y="-116" on="1"/>
        <pt x="353" y="-116" on="0"/>
        <pt x="371" y="-120" on="0"/>
        <pt x="382" y="-120" on="1"/>
        <pt x="400" y="-120" on="0"/>
        <pt x="418" y="-94" on="0"/>
        <pt x="418" y="-63" on="1"/>
        <pt x="418" y="14" on="1"/>
        <pt x="198" y="427" on="1"/>
        <pt x="185" y="450" on="0"/>
        <pt x="172" y="490" on="1"/>
        <pt x="167" y="488" on="1"/>
        <pt x="175" y="442" on="0"/>
        <pt x="175" y="421" on="1"/>
        <pt x="175" y="24" on="1"/>
        <pt x="175" y="-2" on="0"/>
        <pt x="128" y="-2" on="1"/>
        <pt x="111" y="-2" on="1"/>
        <pt x="86" y="-2" on="0"/>
        <pt x="64" y="11" on="0"/>
        <pt x="64" y="24" on="1"/>
        <pt x="64" y="676" on="1"/>
        <pt x="64" y="689" on="0"/>
        <pt x="86" y="702" on="0"/>
        <pt x="111" y="702" on="1"/>
        <pt x="135" y="702" on="1"/>
        <pt x="152" y="702" on="0"/>
        <pt x="174" y="692" on="0"/>
        <pt x="180" y="678" on="1"/>
        <pt x="389" y="285" on="1"/>
        <pt x="400" y="265" on="0"/>
        <pt x="419" y="215" on="1"/>
        <pt x="423" y="217" on="1"/>
        <pt x="415" y="265" on="0"/>
        <pt x="415" y="289" on="1"/>
        <pt x="415" y="676" on="1"/>
        <pt x="415" y="702" on="0"/>
        <pt x="462" y="702" on="1"/>
        <pt x="479" y="702" on="1"/>
      </contour>
    </TTGlyph>
    <TTGlyph name="Eogonek" xMin="69" yMin="-177" xMax="495" yMax="700">
      <contour>
        <pt x="495" y="-106" on="0"/>
        <pt x="495" y="-132" on="1"/>
        <pt x="495" y="-152" on="0"/>
        <pt x="480" y="-161" on="1"/>
        <pt x="454" y="-177" on="0"/>
        <pt x="418" y="-177" on="1"/>
        <pt x="363" y="-177" on="0"/>
        <pt x="324" y="-118" on="0"/>
        <pt x="324" y="-86" on="1"/>
        <pt x="324" y="-69" on="0"/>
        <pt x="335" y="-23" on="0"/>
        <pt x="347" y="0" on="1"/>
        <pt x="100" y="0" on="1"/>
        <pt x="84" y="0" on="0"/>
        <pt x="69" y="16" on="0"/>
        <pt x="69" y="34" on="1"/>
        <pt x="69" y="666" on="1"/>
        <pt x="69" y="684" on="0"/>
        <pt x="84" y="700" on="0"/>
        <pt x="100" y="700" on="1"/>
        <pt x="391" y="700" on="1"/>
        <pt x="415" y="700" on="0"/>
        <pt x="415" y="661" on="1"/>
        <pt x="415" y="639" on="1"/>
        <pt x="415" y="618" on="0"/>
        <pt x="403" y="600" on="0"/>
        <pt x="391" y="600" on="1"/>
        <pt x="188" y="600" on="1"/>
        <pt x="188" y="408" on="1"/>
        <pt x="370" y="408" on="1"/>
        <pt x="382" y="408" on="0"/>
        <pt x="393" y="390" on="0"/>
        <pt x="393" y="370" on="1"/>
        <pt x="393" y="347" on="1"/>
        <pt x="393" y="327" on="0"/>
        <pt x="382" y="308" on="0"/>
        <pt x="370" y="308" on="1"/>
        <pt x="188" y="308" on="1"/>
        <pt x="188" y="100" on="1"/>
        <pt x="392" y="100" on="1"/>
        <pt x="404" y="100" on="0"/>
        <pt x="415" y="82" on="0"/>
        <pt x="415" y="61" on="1"/>
        <pt x="415" y="39" on="1"/>
        <pt x="415" y="20" on="0"/>
        <pt x="410" y="10" on="1"/>
        <pt x="388" y="-29" on="0"/>
        <pt x="388" y="-68" on="1"/>
        <pt x="388" y="-93" on="0"/>
        <pt x="416" y="-111" on="0"/>
        <pt x="437" y="-111" on="1"/>
        <pt x="445" y="-111" on="0"/>
        <pt x="464" y="-106" on="0"/>
        <pt x="470" y="-106" on="1"/>
      </contour>
    </TTGlyph>
    <TTGlyph name="Eth" xMin="9" yMin="0" xMax="530" yMax="700">
      <contour>
        <pt x="401" y="700" on="0"/>
        <pt x="530" y="531" on="0"/>
        <pt x="530" y="350" on="1"/>
        <pt x="530" y="169" on="0"/>
        <pt x="402" y="0" on="0"/>
        <pt x="278" y="0" on="1"/>
        <pt x="100" y="0" on="1"/>
        <pt x="84" y="0" on="0"/>
        <pt x="69" y="16" on="0"/>
        <pt x="69" y="34" on="1"/>
        <pt x="69" y="307" on="1"/>
        <pt x="32" y="307" on="1"/>
        <pt x="20" y="307" on="0"/>
        <pt x="9" y="326" on="0"/>
        <pt x="9" y="346" on="1"/>
        <pt x="9" y="368" on="1"/>
        <pt x="9" y="388" on="0"/>
        <pt x="20" y="407" on="0"/>
        <pt x="32" y="407" on="1"/>
        <pt x="69" y="407" on="1"/>
        <pt x="69" y="666" on="1"/>
        <pt x="69" y="684" on="0"/>
        <pt x="84" y="700" on="0"/>
        <pt x="100" y="700" on="1"/>
        <pt x="278" y="700" on="1"/>
      </contour>
      <contour>
        <pt x="340" y="100" on="0"/>
        <pt x="408" y="218" on="0"/>
        <pt x="408" y="350" on="1"/>
        <pt x="408" y="482" on="0"/>
        <pt x="340" y="600" on="0"/>
        <pt x="275" y="600" on="1"/>
        <pt x="189" y="600" on="1"/>
        <pt x="189" y="407" on="1"/>
        <pt x="248" y="407" on="1"/>
        <pt x="261" y="407" on="0"/>
        <pt x="272" y="388" on="0"/>
        <pt x="272" y="368" on="1"/>
        <pt x="272" y="346" on="1"/>
        <pt x="272" y="326" on="0"/>
        <pt x="261" y="307" on="0"/>
        <pt x="248" y="307" on="1"/>
        <pt x="189" y="307" on="1"/>
        <pt x="189" y="100" on="1"/>
        <pt x="275" y="100" on="1"/>
      </contour>
    </TTGlyph>
    <TTGlyph name="Euro" xMin="3" yMin="-7" xMax="480" yMax="707">
      <contour>
        <pt x="203" y="-7" on="0"/>
        <pt x="82" y="111" on="0"/>
        <pt x="66" y="235" on="1"/>
        <pt x="27" y="235" on="1"/>
        <pt x="14" y="235" on="0"/>
        <pt x="3" y="250" on="0"/>
        <pt x="3" y="266" on="1"/>
        <pt x="3" y="273" on="1"/>
        <pt x="3" y="290" on="0"/>
        <pt x="14" y="305" on="0"/>
        <pt x="27" y="305" on="1"/>
        <pt x="60" y="305" on="1"/>
        <pt x="59" y="320" on="0"/>
        <pt x="59" y="351" on="1"/>
        <pt x="59" y="391" on="1"/>
        <pt x="27" y="391" on="1"/>
        <pt x="14" y="391" on="0"/>
        <pt x="3" y="406" on="0"/>
        <pt x="3" y="422" on="1"/>
        <pt x="3" y="429" on="1"/>
        <pt x="3" y="446" on="0"/>
        <pt x="14" y="461" on="0"/>
        <pt x="27" y="461" on="1"/>
        <pt x="66" y="461" on="1"/>
        <pt x="99" y="707" on="0"/>
        <pt x="313" y="707" on="1"/>
        <pt x="354" y="707" on="0"/>
        <pt x="428" y="686" on="0"/>
        <pt x="472" y="655" on="0"/>
        <pt x="472" y="641" on="1"/>
        <pt x="472" y="623" on="0"/>
        <pt x="438" y="570" on="0"/>
        <pt x="424" y="570" on="1"/>
        <pt x="420" y="570" on="0"/>
        <pt x="386" y="590" on="0"/>
        <pt x="345" y="604" on="0"/>
        <pt x="316" y="604" on="1"/>
        <pt x="264" y="604" on="0"/>
        <pt x="200" y="534" on="0"/>
        <pt x="188" y="461" on="1"/>
        <pt x="392" y="461" on="1"/>
        <pt x="405" y="461" on="0"/>
        <pt x="416" y="446" on="0"/>
        <pt x="416" y="429" on="1"/>
        <pt x="416" y="422" on="1"/>
        <pt x="416" y="406" on="0"/>
        <pt x="405" y="391" on="0"/>
        <pt x="392" y="391" on="1"/>
        <pt x="181" y="391" on="1"/>
        <pt x="180" y="378" on="0"/>
        <pt x="180" y="351" on="1"/>
        <pt x="180" y="320" on="0"/>
        <pt x="181" y="305" on="1"/>
        <pt x="392" y="305" on="1"/>
        <pt x="405" y="305" on="0"/>
        <pt x="416" y="290" on="0"/>
        <pt x="416" y="273" on="1"/>
        <pt x="416" y="266" on="1"/>
        <pt x="416" y="250" on="0"/>
        <pt x="405" y="235" on="0"/>
        <pt x="392" y="235" on="1"/>
        <pt x="189" y="235" on="1"/>
        <pt x="214" y="96" on="0"/>
        <pt x="314" y="96" on="1"/>
        <pt x="365" y="96" on="0"/>
        <pt x="414" y="127" on="1"/>
        <pt x="430" y="136" on="0"/>
        <pt x="434" y="136" on="1"/>
        <pt x="445" y="136" on="0"/>
        <pt x="466" y="111" on="0"/>
        <pt x="480" y="78" on="0"/>
        <pt x="480" y="70" on="1"/>
        <pt x="480" y="53" on="0"/>
        <pt x="433" y="17" on="0"/>
        <pt x="355" y="-7" on="0"/>
        <pt x="311" y="-7" on="1"/>
      </contour>
    </TTGlyph>
    <TTGlyph name="F" xMin="69" yMin="-2" xMax="390" yMax="700">
      <contour>
        <pt x="91" y="-2" on="0"/>
        <pt x="69" y="11" on="0"/>
        <pt x="69" y="24" on="1"/>
        <pt x="69" y="666" on="1"/>
        <pt x="69" y="684" on="0"/>
        <pt x="84" y="700" on="0"/>
        <pt x="100" y="700" on="1"/>
        <pt x="367" y="700" on="1"/>
        <pt x="379" y="700" on="0"/>
        <pt x="390" y="681" on="0"/>
        <pt x="390" y="661" on="1"/>
        <pt x="390" y="639" on="1"/>
        <pt x="390" y="618" on="0"/>
        <pt x="379" y="600" on="0"/>
        <pt x="367" y="600" on="1"/>
        <pt x="188" y="600" on="1"/>
        <pt x="188" y="408" on="1"/>
        <pt x="353" y="408" on="1"/>
        <pt x="377" y="408" on="0"/>
        <pt x="377" y="369" on="1"/>
        <pt x="377" y="346" on="1"/>
        <pt x="377" y="308" on="0"/>
        <pt x="353" y="308" on="1"/>
        <pt x="188" y="308" on="1"/>
        <pt x="188" y="24" on="1"/>
        <pt x="188" y="-2" on="0"/>
        <pt x="141" y="-2" on="1"/>
        <pt x="116" y="-2" on="1"/>
      </contour>
    </TTGlyph>
    <TTGlyph name="G" xMin="44" yMin="-7" xMax="492" yMax="707">
      <contour>
        <pt x="477" y="394" on="0"/>
        <pt x="492" y="378" on="0"/>
        <pt x="492" y="360" on="1"/>
        <pt x="492" y="69" on="1"/>
        <pt x="492" y="33" on="0"/>
        <pt x="375" y="-7" on="0"/>
        <pt x="306" y="-7" on="1"/>
        <pt x="174" y="-7" on="0"/>
        <pt x="44" y="167" on="0"/>
        <pt x="44" y="348" on="1"/>
        <pt x="44" y="530" on="0"/>
        <pt x="176" y="707" on="0"/>
        <pt x="311" y="707" on="1"/>
        <pt x="352" y="707" on="0"/>
        <pt x="431" y="687" on="0"/>
        <pt x="481" y="656" on="0"/>
        <pt x="481" y="641" on="1"/>
        <pt x="481" y="623" on="0"/>
        <pt x="447" y="569" on="0"/>
        <pt x="433" y="569" on="1"/>
        <pt x="430" y="569" on="0"/>
        <pt x="394" y="588" on="0"/>
        <pt x="348" y="603" on="0"/>
        <pt x="316" y="603" on="1"/>
        <pt x="237" y="603" on="0"/>
        <pt x="166" y="478" on="0"/>
        <pt x="166" y="352" on="1"/>
        <pt x="166" y="96" on="0"/>
        <pt x="307" y="96" on="1"/>
        <pt x="348" y="96" on="0"/>
        <pt x="375" y="104" on="1"/>
        <pt x="375" y="294" on="1"/>
        <pt x="305" y="294" on="1"/>
        <pt x="292" y="294" on="0"/>
        <pt x="281" y="312" on="0"/>
        <pt x="281" y="332" on="1"/>
        <pt x="281" y="356" on="1"/>
        <pt x="281" y="376" on="0"/>
        <pt x="292" y="394" on="0"/>
        <pt x="305" y="394" on="1"/>
        <pt x="461" y="394" on="1"/>
      </contour>
    </TTGlyph>
    <TTGlyph name="Gbreve" xMin="44" yMin="-7" xMax="492" yMax="892">
      <component glyphName="G" x="0" y="0" flags="0x0"/>
      <component glyphName="uni0306" x="294" y="177" flags="0x0"/>
    </TTGlyph>
    <TTGlyph name="Gcircumflex" xMin="44" yMin="-7" xMax="492" yMax="895">
      <component glyphName="G" x="0" y="0" flags="0x0"/>
      <component glyphName="uni0302" x="292" y="177" flags="0x0"/>
    </TTGlyph>
    <TTGlyph name="Gcommaaccent" xMin="44" yMin="-237" xMax="492" yMax="707">
      <component glyphName="G" x="0" y="0" flags="0x0"/>
      <component glyphName="uni0326" x="438" y="0" flags="0x0"/>
    </TTGlyph>
    <TTGlyph name="Gdotaccent" xMin="44" yMin="-7" xMax="492" yMax="879">
      <component glyphName="G" x="0" y="0" flags="0x0"/>
      <component glyphName="uni0307" x="294" y="177" flags="0x0"/>
    </TTGlyph>
    <TTGlyph name="H" xMin="69" yMin="-2" xMax="530" yMax="702">
      <contour>
        <pt x="91" y="-2" on="0"/>
        <pt x="69" y="11" on="0"/>
        <pt x="69" y="24" on="1"/>
        <pt x="69" y="676" on="1"/>
        <pt x="69" y="689" on="0"/>
        <pt x="91" y="702" on="0"/>
        <pt x="116" y="702" on="1"/>
        <pt x="143" y="702" on="1"/>
        <pt x="188" y="702" on="0"/>
        <pt x="188" y="676" on="1"/>
        <pt x="188" y="409" on="1"/>
        <pt x="411" y="409" on="1"/>
        <pt x="411" y="676" on="1"/>
        <pt x="411" y="689" on="0"/>
        <pt x="433" y="702" on="0"/>
        <pt x="458" y="702" on="1"/>
        <pt x="483" y="702" on="1"/>
        <pt x="508" y="702" on="0"/>
        <pt x="530" y="689" on="0"/>
        <pt x="530" y="676" on="1"/>
        <pt x="530" y="24" on="1"/>
        <pt x="530" y="11" on="0"/>
        <pt x="508" y="-2" on="0"/>
        <pt x="483" y="-2" on="1"/>
        <pt x="458" y="-2" on="1"/>
        <pt x="433" y="-2" on="0"/>
        <pt x="411" y="11" on="0"/>
        <pt x="411" y="24" on="1"/>
        <pt x="411" y="308" on="1"/>
        <pt x="188" y="308" on="1"/>
        <pt x="188" y="24" on="1"/>
        <pt x="188" y="-2" on="0"/>
        <pt x="143" y="-2" on="1"/>
        <pt x="116" y="-2" on="1"/>
      </contour>
    </TTGlyph>
    <TTGlyph name="Hbar" xMin="25" yMin="-2" xMax="562" yMax="702">
      <contour>
        <pt x="551" y="565" on="0"/>
        <pt x="562" y="549" on="0"/>
        <pt x="562" y="531" on="1"/>
        <pt x="562" y="519" on="1"/>
        <pt x="562" y="501" on="0"/>
        <pt x="551" y="484" on="0"/>
        <pt x="538" y="484" on="1"/>
        <pt x="530" y="484" on="1"/>
        <pt x="530" y="24" on="1"/>
        <pt x="530" y="11" on="0"/>
        <pt x="508" y="-2" on="0"/>
        <pt x="483" y="-2" on="1"/>
        <pt x="458" y="-2" on="1"/>
        <pt x="433" y="-2" on="0"/>
        <pt x="411" y="11" on="0"/>
        <pt x="411" y="24" on="1"/>
        <pt x="411" y="308" on="1"/>
        <pt x="188" y="308" on="1"/>
        <pt x="188" y="24" on="1"/>
        <pt x="188" y="-2" on="0"/>
        <pt x="143" y="-2" on="1"/>
        <pt x="116" y="-2" on="1"/>
        <pt x="91" y="-2" on="0"/>
        <pt x="69" y="11" on="0"/>
        <pt x="69" y="24" on="1"/>
        <pt x="69" y="484" on="1"/>
        <pt x="48" y="484" on="1"/>
        <pt x="25" y="484" on="0"/>
        <pt x="25" y="519" on="1"/>
        <pt x="25" y="531" on="1"/>
        <pt x="25" y="549" on="0"/>
        <pt x="36" y="565" on="0"/>
        <pt x="48" y="565" on="1"/>
        <pt x="69" y="565" on="1"/>
        <pt x="69" y="676" on="1"/>
        <pt x="69" y="689" on="0"/>
        <pt x="91" y="702" on="0"/>
        <pt x="116" y="702" on="1"/>
        <pt x="143" y="702" on="1"/>
        <pt x="188" y="702" on="0"/>
        <pt x="188" y="676" on="1"/>
        <pt x="188" y="565" on="1"/>
        <pt x="411" y="565" on="1"/>
        <pt x="411" y="676" on="1"/>
        <pt x="411" y="689" on="0"/>
        <pt x="433" y="702" on="0"/>
        <pt x="458" y="702" on="1"/>
        <pt x="483" y="702" on="1"/>
        <pt x="508" y="702" on="0"/>
        <pt x="530" y="689" on="0"/>
        <pt x="530" y="676" on="1"/>
        <pt x="530" y="565" on="1"/>
        <pt x="538" y="565" on="1"/>
      </contour>
      <contour>
        <pt x="411" y="484" on="1"/>
        <pt x="188" y="484" on="1"/>
        <pt x="188" y="409" on="1"/>
        <pt x="411" y="409" on="1"/>
      </contour>
    </TTGlyph>
    <TTGlyph name="Hcircumflex" xMin="69" yMin="-2" xMax="530" yMax="895">
      <component glyphName="H" x="0" y="0" flags="0x0"/>
      <component glyphName="uni0302" x="298" y="177" flags="0x0"/>
    </TTGlyph>
    <TTGlyph name="I" xMin="71" yMin="-2" xMax="191" yMax="702">
      <contour>
        <pt x="71" y="-2" on="0"/>
        <pt x="71" y="24" on="1"/>
        <pt x="71" y="676" on="1"/>
        <pt x="71" y="702" on="0"/>
        <pt x="118" y="702" on="1"/>
        <pt x="145" y="702" on="1"/>
        <pt x="191" y="702" on="0"/>
        <pt x="191" y="676" on="1"/>
        <pt x="191" y="24" on="1"/>
        <pt x="191" y="-2" on="0"/>
        <pt x="145" y="-2" on="1"/>
        <pt x="118" y="-2" on="1"/>
      </contour>
    </TTGlyph>
    <TTGlyph name="IJ" xMin="71" yMin="-7" xMax="549" yMax="702">
      <component glyphName="I" x="0" y="0" flags="0x0"/>
      <component glyphName="J" x="262" y="0" flags="0x0"/>
    </TTGlyph>
    <TTGlyph name="Iacute" xMin="71" yMin="-2" xMax="259" yMax="910">
      <component glyphName="I" x="0" y="0" flags="0x0"/>
      <component glyphName="acutecomb" x="205" y="177" flags="0x0"/>
    </TTGlyph>
    <TTGlyph name="Iacute_J.loclNLD" xMin="71" yMin="-7" xMax="616" yMax="910">
      <component glyphName="I" x="0" y="0" flags="0x0"/>
      <component glyphName="acutecomb" x="205" y="177" flags="0x0"/>
      <component glyphName="J" x="262" y="0" flags="0x0"/>
      <component glyphName="acutecomb" x="562" y="177" flags="0x0"/>
    </TTGlyph>
    <TTGlyph name="Ibreve" xMin="7" yMin="-2" xMax="253" yMax="892">
      <component glyphName="I" x="0" y="0" flags="0x0"/>
      <component glyphName="uni0306" x="130" y="177" flags="0x0"/>
    </TTGlyph>
    <TTGlyph name="Icircumflex" xMin="15" yMin="-2" xMax="247" yMax="895">
      <component glyphName="I" x="0" y="0" flags="0x0"/>
      <component glyphName="uni0302" x="129" y="177" flags="0x0"/>
    </TTGlyph>
    <TTGlyph name="Idieresis" xMin="15" yMin="-2" xMax="250" yMax="879">
      <component glyphName="I" x="0" y="0" flags="0x0"/>
      <component glyphName="uni0308" x="133" y="177" flags="0x0"/>
    </TTGlyph>
    <TTGlyph name="Idotaccent" xMin="71" yMin="-2" xMax="191" yMax="879">
      <component glyphName="I" x="0" y="0" flags="0x0"/>
      <component glyphName="uni0307" x="131" y="177" flags="0x0"/>
    </TTGlyph>
    <TTGlyph name="Igrave" xMin="10" yMin="-2" xMax="191" yMax="910">
      <component glyphName="I" x="0" y="0" flags="0x0"/>
      <component glyphName="gravecomb" x="130" y="177" flags="0x0"/>
    </TTGlyph>
    <TTGlyph name="Imacron" xMin="11" yMin="-2" xMax="253" yMax="863">
      <component glyphName="I" x="0" y="0" flags="0x0"/>
      <component glyphName="uni0304" x="133" y="177" flags="0x0"/>
    </TTGlyph>
    <TTGlyph name="Iogonek" xMin="71" yMin="-174" xMax="273" yMax="702">
      <contour>
        <pt x="273" y="-103" on="0"/>
        <pt x="273" y="-129" on="1"/>
        <pt x="273" y="-149" on="0"/>
        <pt x="258" y="-158" on="1"/>
        <pt x="232" y="-174" on="0"/>
        <pt x="196" y="-174" on="1"/>
        <pt x="141" y="-174" on="0"/>
        <pt x="102" y="-115" on="0"/>
        <pt x="102" y="-83" on="1"/>
        <pt x="102" y="-45" on="0"/>
        <pt x="122" y="-2" on="1"/>
        <pt x="118" y="-2" on="1"/>
        <pt x="71" y="-2" on="0"/>
        <pt x="71" y="24" on="1"/>
        <pt x="71" y="676" on="1"/>
        <pt x="71" y="702" on="0"/>
        <pt x="118" y="702" on="1"/>
        <pt x="145" y="702" on="1"/>
        <pt x="191" y="702" on="0"/>
        <pt x="191" y="676" on="1"/>
        <pt x="191" y="24" on="1"/>
        <pt x="191" y="18" on="0"/>
        <pt x="188" y="13" on="1"/>
        <pt x="166" y="-26" on="0"/>
        <pt x="166" y="-65" on="1"/>
        <pt x="166" y="-90" on="0"/>
        <pt x="194" y="-108" on="0"/>
        <pt x="215" y="-108" on="1"/>
        <pt x="223" y="-108" on="0"/>
        <pt x="242" y="-103" on="0"/>
        <pt x="248" y="-103" on="1"/>
      </contour>
    </TTGlyph>
    <TTGlyph name="Itilde" xMin="-23" yMin="-2" xMax="281" yMax="871">
      <component glyphName="I" x="0" y="0" flags="0x0"/>
      <component glyphName="tildecomb" x="131" y="177" flags="0x0"/>
    </TTGlyph>
    <TTGlyph name="J" xMin="9" yMin="-7" xMax="287" yMax="702">
      <contour>
        <pt x="73" y="-7" on="0"/>
        <pt x="9" y="14" on="0"/>
        <pt x="9" y="31" on="1"/>
        <pt x="9" y="51" on="0"/>
        <pt x="28" y="103" on="0"/>
        <pt x="40" y="103" on="1"/>
        <pt x="46" y="103" on="0"/>
        <pt x="77" y="95" on="0"/>
        <pt x="93" y="95" on="1"/>
        <pt x="132" y="95" on="0"/>
        <pt x="167" y="149" on="0"/>
        <pt x="167" y="209" on="1"/>
        <pt x="167" y="676" on="1"/>
        <pt x="167" y="702" on="0"/>
        <pt x="214" y="702" on="1"/>
        <pt x="240" y="702" on="1"/>
        <pt x="287" y="702" on="0"/>
        <pt x="287" y="676" on="1"/>
        <pt x="287" y="204" on="1"/>
        <pt x="287" y="103" on="0"/>
        <pt x="201" y="-7" on="0"/>
        <pt x="109" y="-7" on="1"/>
      </contour>
    </TTGlyph>
    <TTGlyph name="Jcircumflex" xMin="9" yMin="-7" xMax="341" yMax="895">
      <component glyphName="J" x="0" y="0" flags="0x0"/>
      <component glyphName="uni0302" x="223" y="177" flags="0x0"/>
    </TTGlyph>
    <TTGlyph name="K" xMin="70" yMin="-2" xMax="511" yMax="702">
      <contour>
        <pt x="511" y="20" on="0"/>
        <pt x="511" y="12" on="1"/>
        <pt x="511" y="5" on="0"/>
        <pt x="490" y="-2" on="0"/>
        <pt x="466" y="-2" on="1"/>
        <pt x="425" y="-2" on="1"/>
        <pt x="405" y="-2" on="0"/>
        <pt x="381" y="4" on="0"/>
        <pt x="375" y="14" on="1"/>
        <pt x="192" y="334" on="1"/>
        <pt x="189" y="334" on="1"/>
        <pt x="189" y="24" on="1"/>
        <pt x="189" y="-2" on="0"/>
        <pt x="141" y="-2" on="1"/>
        <pt x="116" y="-2" on="1"/>
        <pt x="70" y="-2" on="0"/>
        <pt x="70" y="24" on="1"/>
        <pt x="70" y="676" on="1"/>
        <pt x="70" y="702" on="0"/>
        <pt x="116" y="702" on="1"/>
        <pt x="141" y="702" on="1"/>
        <pt x="189" y="702" on="0"/>
        <pt x="189" y="676" on="1"/>
        <pt x="189" y="370" on="1"/>
        <pt x="193" y="369" on="1"/>
        <pt x="371" y="686" on="1"/>
        <pt x="376" y="696" on="0"/>
        <pt x="399" y="702" on="0"/>
        <pt x="419" y="702" on="1"/>
        <pt x="453" y="702" on="1"/>
        <pt x="497" y="702" on="0"/>
        <pt x="497" y="688" on="1"/>
        <pt x="497" y="679" on="0"/>
        <pt x="489" y="668" on="1"/>
        <pt x="301" y="357" on="1"/>
        <pt x="505" y="31" on="1"/>
      </contour>
    </TTGlyph>
    <TTGlyph name="Kcommaaccent" xMin="70" yMin="-237" xMax="511" yMax="702">
      <component glyphName="K" x="0" y="0" flags="0x0"/>
      <component glyphName="uni0326" x="391" y="0" flags="0x0"/>
    </TTGlyph>
    <TTGlyph name="L" xMin="69" yMin="0" xMax="394" yMax="702">
      <contour>
        <pt x="84" y="0" on="0"/>
        <pt x="69" y="16" on="0"/>
        <pt x="69" y="34" on="1"/>
        <pt x="69" y="676" on="1"/>
        <pt x="69" y="689" on="0"/>
        <pt x="91" y="702" on="0"/>
        <pt x="116" y="702" on="1"/>
        <pt x="141" y="702" on="1"/>
        <pt x="188" y="702" on="0"/>
        <pt x="188" y="676" on="1"/>
        <pt x="188" y="100" on="1"/>
        <pt x="370" y="100" on="1"/>
        <pt x="383" y="100" on="0"/>
        <pt x="394" y="82" on="0"/>
        <pt x="394" y="61" on="1"/>
        <pt x="394" y="39" on="1"/>
        <pt x="394" y="19" on="0"/>
        <pt x="383" y="0" on="0"/>
        <pt x="370" y="0" on="1"/>
        <pt x="100" y="0" on="1"/>
      </contour>
    </TTGlyph>
    <TTGlyph name="Lacute" xMin="69" yMin="0" xMax="394" yMax="911">
      <component glyphName="L" x="0" y="0" flags="0x0"/>
      <component glyphName="acutecomb" x="204" y="178" flags="0x0"/>
    </TTGlyph>
    <TTGlyph name="Lcaron" xMin="69" yMin="0" xMax="394" yMax="702">
      <component glyphName="L" x="0" y="0" flags="0x0"/>
      <component glyphName="caron.alt" x="212" y="0" flags="0x0"/>
    </TTGlyph>
    <TTGlyph name="Lcommaaccent" xMin="69" yMin="-237" xMax="394" yMax="702">
      <component glyphName="L" x="0" y="0" flags="0x0"/>
      <component glyphName="uni0326" x="357" y="0" flags="0x0"/>
    </TTGlyph>
    <TTGlyph name="Ldot" xMin="69" yMin="0" xMax="394" yMax="702">
      <component glyphName="L" x="0" y="0" flags="0x0"/>
      <component glyphName="periodcentered" x="188" y="0" flags="0x0"/>
    </TTGlyph>
    <TTGlyph name="Lslash" xMin="69" yMin="0" xMax="394" yMax="702">
      <contour>
        <pt x="383" y="100" on="0"/>
        <pt x="394" y="82" on="0"/>
        <pt x="394" y="61" on="1"/>
        <pt x="394" y="39" on="1"/>
        <pt x="394" y="19" on="0"/>
        <pt x="383" y="0" on="0"/>
        <pt x="370" y="0" on="1"/>
        <pt x="100" y="0" on="1"/>
        <pt x="84" y="0" on="0"/>
        <pt x="69" y="16" on="0"/>
        <pt x="69" y="34" on="1"/>
        <pt x="69" y="676" on="1"/>
        <pt x="69" y="689" on="0"/>
        <pt x="91" y="702" on="0"/>
        <pt x="116" y="702" on="1"/>
        <pt x="141" y="702" on="1"/>
        <pt x="188" y="702" on="0"/>
        <pt x="188" y="676" on="1"/>
        <pt x="188" y="100" on="1"/>
        <pt x="370" y="100" on="1"/>
      </contour>
      <contour>
        <pt x="158" y="409" on="0"/>
        <pt x="159" y="410" on="1"/>
        <pt x="139" y="400" on="1"/>
        <pt x="139" y="400" on="0"/>
        <pt x="139" y="399" on="1"/>
        <pt x="139" y="393" on="1"/>
        <pt x="139" y="391" on="0"/>
        <pt x="138" y="390" on="1"/>
        <pt x="159" y="400" on="1"/>
        <pt x="158" y="400" on="0"/>
        <pt x="158" y="401" on="0"/>
        <pt x="158" y="401" on="1"/>
        <pt x="158" y="401" on="0"/>
        <pt x="158" y="402" on="1"/>
        <pt x="158" y="407" on="1"/>
      </contour>
    </TTGlyph>
    <TTGlyph name="M" xMin="64" yMin="-2" xMax="626" yMax="702">
      <contour>
        <pt x="320" y="232" on="0"/>
        <pt x="307" y="240" on="0"/>
        <pt x="302" y="250" on="1"/>
        <pt x="204" y="439" on="1"/>
        <pt x="194" y="458" on="0"/>
        <pt x="178" y="498" on="1"/>
        <pt x="174" y="497" on="1"/>
        <pt x="179" y="460" on="0"/>
        <pt x="179" y="433" on="1"/>
        <pt x="179" y="24" on="1"/>
        <pt x="179" y="-2" on="0"/>
        <pt x="132" y="-2" on="1"/>
        <pt x="111" y="-2" on="1"/>
        <pt x="86" y="-2" on="0"/>
        <pt x="64" y="11" on="0"/>
        <pt x="64" y="24" on="1"/>
        <pt x="64" y="676" on="1"/>
        <pt x="64" y="689" on="0"/>
        <pt x="86" y="702" on="0"/>
        <pt x="111" y="702" on="1"/>
        <pt x="136" y="702" on="1"/>
        <pt x="172" y="702" on="0"/>
        <pt x="184" y="680" on="1"/>
        <pt x="328" y="401" on="1"/>
        <pt x="337" y="383" on="0"/>
        <pt x="345" y="353" on="1"/>
        <pt x="353" y="383" on="0"/>
        <pt x="362" y="401" on="1"/>
        <pt x="506" y="680" on="1"/>
        <pt x="518" y="702" on="0"/>
        <pt x="554" y="702" on="1"/>
        <pt x="579" y="702" on="1"/>
        <pt x="626" y="702" on="0"/>
        <pt x="626" y="676" on="1"/>
        <pt x="626" y="24" on="1"/>
        <pt x="626" y="-2" on="0"/>
        <pt x="579" y="-2" on="1"/>
        <pt x="558" y="-2" on="1"/>
        <pt x="533" y="-2" on="0"/>
        <pt x="511" y="11" on="0"/>
        <pt x="511" y="24" on="1"/>
        <pt x="511" y="433" on="1"/>
        <pt x="511" y="464" on="0"/>
        <pt x="517" y="497" on="1"/>
        <pt x="513" y="498" on="1"/>
        <pt x="500" y="466" on="0"/>
        <pt x="486" y="439" on="1"/>
        <pt x="388" y="250" on="1"/>
        <pt x="383" y="240" on="0"/>
        <pt x="370" y="232" on="0"/>
        <pt x="358" y="232" on="1"/>
        <pt x="332" y="232" on="1"/>
      </contour>
    </TTGlyph>
    <TTGlyph name="N" xMin="64" yMin="-2" xMax="526" yMax="702">
      <contour>
        <pt x="86" y="-2" on="0"/>
        <pt x="64" y="11" on="0"/>
        <pt x="64" y="24" on="1"/>
        <pt x="64" y="676" on="1"/>
        <pt x="64" y="689" on="0"/>
        <pt x="86" y="702" on="0"/>
        <pt x="111" y="702" on="1"/>
        <pt x="135" y="702" on="1"/>
        <pt x="152" y="702" on="0"/>
        <pt x="174" y="692" on="0"/>
        <pt x="180" y="678" on="1"/>
        <pt x="389" y="285" on="1"/>
        <pt x="400" y="265" on="0"/>
        <pt x="419" y="215" on="1"/>
        <pt x="423" y="217" on="1"/>
        <pt x="415" y="265" on="0"/>
        <pt x="415" y="289" on="1"/>
        <pt x="415" y="676" on="1"/>
        <pt x="415" y="702" on="0"/>
        <pt x="462" y="702" on="1"/>
        <pt x="479" y="702" on="1"/>
        <pt x="526" y="702" on="0"/>
        <pt x="526" y="676" on="1"/>
        <pt x="526" y="24" on="1"/>
        <pt x="526" y="-2" on="0"/>
        <pt x="479" y="-2" on="1"/>
        <pt x="459" y="-2" on="1"/>
        <pt x="426" y="-2" on="0"/>
        <pt x="415" y="19" on="1"/>
        <pt x="198" y="427" on="1"/>
        <pt x="185" y="450" on="0"/>
        <pt x="172" y="490" on="1"/>
        <pt x="167" y="488" on="1"/>
        <pt x="175" y="442" on="0"/>
        <pt x="175" y="421" on="1"/>
        <pt x="175" y="24" on="1"/>
        <pt x="175" y="-2" on="0"/>
        <pt x="128" y="-2" on="1"/>
        <pt x="111" y="-2" on="1"/>
      </contour>
    </TTGlyph>
    <TTGlyph name="Nacute" xMin="64" yMin="-2" xMax="526" yMax="910">
      <component glyphName="N" x="0" y="0" flags="0x0"/>
      <component glyphName="acutecomb" x="369" y="177" flags="0x0"/>
    </TTGlyph>
    <TTGlyph name="Nacute.loclPLK" xMin="64" yMin="-2" xMax="526" yMax="910">
      <component glyphName="N" x="0" y="0" flags="0x0"/>
      <component glyphName="acute.loclPLK" x="206" y="177" flags="0x0"/>
    </TTGlyph>
    <TTGlyph name="Ncaron" xMin="64" yMin="-2" xMax="526" yMax="899">
      <component glyphName="N" x="0" y="0" flags="0x0"/>
      <component glyphName="uni030C" x="289" y="177" flags="0x0"/>
    </TTGlyph>
    <TTGlyph name="Ncommaaccent" xMin="64" yMin="-237" xMax="526" yMax="702">
      <component glyphName="N" x="0" y="0" flags="0x0"/>
      <component glyphName="uni0326" x="425" y="0" flags="0x0"/>
    </TTGlyph>
    <TTGlyph name="Ntilde" xMin="64" yMin="-2" xMax="526" yMax="871">
      <component glyphName="N" x="0" y="0" flags="0x0"/>
      <component glyphName="tildecomb" x="295" y="177" flags="0x0"/>
    </TTGlyph>
    <TTGlyph name="O" xMin="44" yMin="-7" xMax="555" yMax="707">
      <contour>
        <pt x="174" y="-7" on="0"/>
        <pt x="44" y="170" on="0"/>
        <pt x="44" y="351" on="1"/>
        <pt x="44" y="707" on="0"/>
        <pt x="299" y="707" on="1"/>
        <pt x="555" y="707" on="0"/>
        <pt x="555" y="351" on="1"/>
        <pt x="555" y="-7" on="0"/>
        <pt x="299" y="-7" on="1"/>
      </contour>
      <contour>
        <pt x="367" y="93" on="0"/>
        <pt x="434" y="215" on="0"/>
        <pt x="434" y="351" on="1"/>
        <pt x="434" y="487" on="0"/>
        <pt x="367" y="606" on="0"/>
        <pt x="300" y="606" on="1"/>
        <pt x="232" y="606" on="0"/>
        <pt x="166" y="487" on="0"/>
        <pt x="166" y="351" on="1"/>
        <pt x="166" y="215" on="0"/>
        <pt x="232" y="93" on="0"/>
        <pt x="300" y="93" on="1"/>
      </contour>
    </TTGlyph>
    <TTGlyph name="OE" xMin="44" yMin="-7" xMax="784" yMax="707">
      <contour>
        <pt x="773" y="100" on="0"/>
        <pt x="784" y="82" on="0"/>
        <pt x="784" y="61" on="1"/>
        <pt x="784" y="39" on="1"/>
        <pt x="784" y="19" on="0"/>
        <pt x="773" y="0" on="0"/>
        <pt x="761" y="0" on="1"/>
        <pt x="463" y="0" on="1"/>
        <pt x="446" y="0" on="0"/>
        <pt x="431" y="16" on="0"/>
        <pt x="431" y="35" on="1"/>
        <pt x="431" y="51" on="1"/>
        <pt x="402" y="21" on="0"/>
        <pt x="330" y="-7" on="0"/>
        <pt x="286" y="-7" on="1"/>
        <pt x="170" y="-7" on="0"/>
        <pt x="44" y="169" on="0"/>
        <pt x="44" y="352" on="1"/>
        <pt x="44" y="534" on="0"/>
        <pt x="170" y="707" on="0"/>
        <pt x="287" y="707" on="1"/>
        <pt x="331" y="707" on="0"/>
        <pt x="402" y="680" on="0"/>
        <pt x="431" y="651" on="1"/>
        <pt x="431" y="666" on="1"/>
        <pt x="431" y="684" on="0"/>
        <pt x="446" y="700" on="0"/>
        <pt x="463" y="700" on="1"/>
        <pt x="760" y="700" on="1"/>
        <pt x="772" y="700" on="0"/>
        <pt x="783" y="681" on="0"/>
        <pt x="783" y="661" on="1"/>
        <pt x="783" y="639" on="1"/>
        <pt x="783" y="618" on="0"/>
        <pt x="772" y="600" on="0"/>
        <pt x="760" y="600" on="1"/>
        <pt x="551" y="600" on="1"/>
        <pt x="551" y="408" on="1"/>
        <pt x="738" y="408" on="1"/>
        <pt x="751" y="408" on="0"/>
        <pt x="762" y="390" on="0"/>
        <pt x="762" y="370" on="1"/>
        <pt x="762" y="347" on="1"/>
        <pt x="762" y="327" on="0"/>
        <pt x="751" y="308" on="0"/>
        <pt x="738" y="308" on="1"/>
        <pt x="551" y="308" on="1"/>
        <pt x="551" y="100" on="1"/>
        <pt x="761" y="100" on="1"/>
      </contour>
      <contour>
        <pt x="365" y="93" on="0"/>
        <pt x="430" y="214" on="0"/>
        <pt x="430" y="351" on="1"/>
        <pt x="430" y="490" on="0"/>
        <pt x="365" y="606" on="0"/>
        <pt x="297" y="606" on="1"/>
        <pt x="230" y="606" on="0"/>
        <pt x="166" y="489" on="0"/>
        <pt x="166" y="351" on="1"/>
        <pt x="166" y="215" on="0"/>
        <pt x="231" y="93" on="0"/>
        <pt x="297" y="93" on="1"/>
      </contour>
    </TTGlyph>
    <TTGlyph name="Oacute" xMin="44" yMin="-7" xMax="555" yMax="910">
      <component glyphName="O" x="0" y="0" flags="0x0"/>
      <component glyphName="acutecomb" x="374" y="177" flags="0x0"/>
    </TTGlyph>
    <TTGlyph name="Oacute.loclPLK" xMin="44" yMin="-7" xMax="555" yMax="910">
      <component glyphName="O" x="0" y="0" flags="0x0"/>
      <component glyphName="acute.loclPLK" x="211" y="177" flags="0x0"/>
    </TTGlyph>
    <TTGlyph name="Obreve" xMin="44" yMin="-7" xMax="555" yMax="892">
      <component glyphName="O" x="0" y="0" flags="0x0"/>
      <component glyphName="uni0306" x="299" y="177" flags="0x0"/>
    </TTGlyph>
    <TTGlyph name="Ocircumflex" xMin="44" yMin="-7" xMax="555" yMax="895">
      <component glyphName="O" x="0" y="0" flags="0x0"/>
      <component glyphName="uni0302" x="298" y="177" flags="0x0"/>
    </TTGlyph>
    <TTGlyph name="Odieresis" xMin="44" yMin="-7" xMax="555" yMax="879">
      <component glyphName="O" x="0" y="0" flags="0x0"/>
      <component glyphName="uni0308" x="302" y="177" flags="0x0"/>
    </TTGlyph>
    <TTGlyph name="Ograve" xMin="44" yMin="-7" xMax="555" yMax="910">
      <component glyphName="O" x="0" y="0" flags="0x0"/>
      <component glyphName="gravecomb" x="299" y="177" flags="0x0"/>
    </TTGlyph>
    <TTGlyph name="Ohorn" xMin="44" yMin="-7" xMax="583" yMax="787">
      <contour>
        <pt x="174" y="-7" on="0"/>
        <pt x="44" y="170" on="0"/>
        <pt x="44" y="351" on="1"/>
        <pt x="44" y="707" on="0"/>
        <pt x="299" y="707" on="1"/>
        <pt x="382" y="707" on="0"/>
        <pt x="442" y="665" on="1"/>
        <pt x="460" y="654" on="0"/>
        <pt x="477" y="654" on="1"/>
        <pt x="497" y="654" on="0"/>
        <pt x="515" y="672" on="0"/>
        <pt x="515" y="686" on="1"/>
        <pt x="515" y="698" on="0"/>
        <pt x="506" y="717" on="0"/>
        <pt x="488" y="741" on="0"/>
        <pt x="488" y="746" on="1"/>
        <pt x="488" y="757" on="0"/>
        <pt x="497" y="764" on="1"/>
        <pt x="525" y="782" on="1"/>
        <pt x="530" y="787" on="0"/>
        <pt x="539" y="787" on="1"/>
        <pt x="556" y="787" on="0"/>
        <pt x="583" y="733" on="0"/>
        <pt x="583" y="709" on="1"/>
        <pt x="583" y="669" on="0"/>
        <pt x="537" y="621" on="0"/>
        <pt x="490" y="617" on="1"/>
        <pt x="555" y="527" on="0"/>
        <pt x="555" y="351" on="1"/>
        <pt x="555" y="-7" on="0"/>
        <pt x="299" y="-7" on="1"/>
      </contour>
      <contour>
        <pt x="367" y="93" on="0"/>
        <pt x="434" y="215" on="0"/>
        <pt x="434" y="351" on="1"/>
        <pt x="434" y="487" on="0"/>
        <pt x="367" y="606" on="0"/>
        <pt x="300" y="606" on="1"/>
        <pt x="232" y="606" on="0"/>
        <pt x="166" y="487" on="0"/>
        <pt x="166" y="351" on="1"/>
        <pt x="166" y="215" on="0"/>
        <pt x="232" y="93" on="0"/>
        <pt x="300" y="93" on="1"/>
      </contour>
    </TTGlyph>
    <TTGlyph name="Ohungarumlaut" xMin="44" yMin="-7" xMax="555" yMax="910">
      <component glyphName="O" x="0" y="0" flags="0x0"/>
      <component glyphName="uni030B" x="325" y="177" flags="0x0"/>
    </TTGlyph>
    <TTGlyph name="Omacron" xMin="44" yMin="-7" xMax="555" yMax="863">
      <component glyphName="O" x="0" y="0" flags="0x0"/>
      <component glyphName="uni0304" x="302" y="177" flags="0x0"/>
    </TTGlyph>
    <TTGlyph name="Oslash" xMin="44" yMin="-20" xMax="555" yMax="722">
      <contour>
        <pt x="555" y="524" on="0"/>
        <pt x="555" y="351" on="1"/>
        <pt x="555" y="-7" on="0"/>
        <pt x="299" y="-7" on="1"/>
        <pt x="199" y="-7" on="0"/>
        <pt x="137" y="50" on="1"/>
        <pt x="101" y="-6" on="1"/>
        <pt x="93" y="-20" on="0"/>
        <pt x="82" y="-20" on="1"/>
        <pt x="72" y="-20" on="0"/>
        <pt x="47" y="0" on="0"/>
        <pt x="47" y="9" on="1"/>
        <pt x="47" y="17" on="0"/>
        <pt x="53" y="24" on="1"/>
        <pt x="99" y="97" on="1"/>
        <pt x="44" y="187" on="0"/>
        <pt x="44" y="351" on="1"/>
        <pt x="44" y="707" on="0"/>
        <pt x="299" y="707" on="1"/>
        <pt x="395" y="707" on="0"/>
        <pt x="454" y="658" on="1"/>
        <pt x="487" y="709" on="1"/>
        <pt x="494" y="722" on="0"/>
        <pt x="505" y="722" on="1"/>
        <pt x="516" y="722" on="0"/>
        <pt x="541" y="704" on="0"/>
        <pt x="541" y="693" on="1"/>
        <pt x="541" y="686" on="0"/>
        <pt x="535" y="678" on="1"/>
        <pt x="494" y="614" on="1"/>
      </contour>
      <contour>
        <pt x="166" y="276" on="0"/>
        <pt x="177" y="221" on="1"/>
        <pt x="392" y="560" on="1"/>
        <pt x="360" y="606" on="0"/>
        <pt x="300" y="606" on="1"/>
        <pt x="232" y="606" on="0"/>
        <pt x="166" y="487" on="0"/>
        <pt x="166" y="351" on="1"/>
      </contour>
      <contour>
        <pt x="367" y="93" on="0"/>
        <pt x="434" y="215" on="0"/>
        <pt x="434" y="351" on="1"/>
        <pt x="434" y="438" on="0"/>
        <pt x="420" y="496" on="1"/>
        <pt x="201" y="151" on="1"/>
        <pt x="234" y="93" on="0"/>
        <pt x="300" y="93" on="1"/>
      </contour>
    </TTGlyph>
    <TTGlyph name="Oslashacute" xMin="44" yMin="-20" xMax="555" yMax="910">
      <component glyphName="Oslash" x="0" y="0" flags="0x0"/>
      <component glyphName="acutecomb" x="374" y="177" flags="0x0"/>
    </TTGlyph>
    <TTGlyph name="Otilde" xMin="44" yMin="-7" xMax="555" yMax="871">
      <component glyphName="O" x="0" y="0" flags="0x0"/>
      <component glyphName="tildecomb" x="300" y="177" flags="0x0"/>
    </TTGlyph>
    <TTGlyph name="P" xMin="65" yMin="-2" xMax="456" yMax="700">
      <contour>
        <pt x="65" y="-2" on="0"/>
        <pt x="65" y="24" on="1"/>
        <pt x="65" y="666" on="1"/>
        <pt x="65" y="684" on="0"/>
        <pt x="81" y="700" on="0"/>
        <pt x="98" y="700" on="1"/>
        <pt x="266" y="700" on="1"/>
        <pt x="341" y="700" on="0"/>
        <pt x="456" y="613" on="0"/>
        <pt x="456" y="494" on="1"/>
        <pt x="456" y="409" on="0"/>
        <pt x="390" y="314" on="0"/>
        <pt x="308" y="282" on="0"/>
        <pt x="275" y="282" on="1"/>
        <pt x="183" y="282" on="1"/>
        <pt x="183" y="24" on="1"/>
        <pt x="183" y="-2" on="0"/>
        <pt x="136" y="-2" on="1"/>
        <pt x="113" y="-2" on="1"/>
      </contour>
      <contour>
        <pt x="265" y="382" on="1"/>
        <pt x="294" y="382" on="0"/>
        <pt x="339" y="431" on="0"/>
        <pt x="339" y="494" on="1"/>
        <pt x="339" y="553" on="0"/>
        <pt x="293" y="600" on="0"/>
        <pt x="261" y="600" on="1"/>
        <pt x="183" y="600" on="1"/>
        <pt x="183" y="382" on="1"/>
      </contour>
    </TTGlyph>
    <TTGlyph name="Q" xMin="44" yMin="-165" xMax="588" yMax="707">
      <contour>
        <pt x="524" y="-165" on="0"/>
        <pt x="410" y="-103" on="1"/>
        <pt x="257" y="-20" on="0"/>
        <pt x="189" y="14" on="1"/>
        <pt x="117" y="50" on="0"/>
        <pt x="44" y="216" on="0"/>
        <pt x="44" y="350" on="1"/>
        <pt x="44" y="707" on="0"/>
        <pt x="299" y="707" on="1"/>
        <pt x="555" y="707" on="0"/>
        <pt x="555" y="350" on="1"/>
        <pt x="555" y="76" on="0"/>
        <pt x="406" y="15" on="1"/>
        <pt x="406" y="11" on="1"/>
        <pt x="576" y="-69" on="1"/>
        <pt x="588" y="-75" on="0"/>
        <pt x="588" y="-86" on="1"/>
        <pt x="587" y="-94" on="0"/>
        <pt x="568" y="-134" on="0"/>
        <pt x="543" y="-165" on="0"/>
        <pt x="531" y="-165" on="1"/>
      </contour>
      <contour>
        <pt x="367" y="92" on="0"/>
        <pt x="434" y="214" on="0"/>
        <pt x="434" y="350" on="1"/>
        <pt x="434" y="486" on="0"/>
        <pt x="367" y="606" on="0"/>
        <pt x="300" y="606" on="1"/>
        <pt x="233" y="606" on="0"/>
        <pt x="166" y="486" on="0"/>
        <pt x="166" y="350" on="1"/>
        <pt x="166" y="213" on="0"/>
        <pt x="233" y="92" on="0"/>
        <pt x="300" y="92" on="1"/>
      </contour>
    </TTGlyph>
    <TTGlyph name="R" xMin="67" yMin="-2" xMax="494" yMax="700">
      <contour>
        <pt x="67" y="-2" on="0"/>
        <pt x="67" y="24" on="1"/>
        <pt x="67" y="666" on="1"/>
        <pt x="67" y="684" on="0"/>
        <pt x="83" y="700" on="0"/>
        <pt x="100" y="700" on="1"/>
        <pt x="256" y="700" on="1"/>
        <pt x="352" y="700" on="0"/>
        <pt x="455" y="613" on="0"/>
        <pt x="455" y="514" on="1"/>
        <pt x="455" y="394" on="0"/>
        <pt x="362" y="345" on="1"/>
        <pt x="362" y="341" on="1"/>
        <pt x="399" y="322" on="0"/>
        <pt x="430" y="227" on="1"/>
        <pt x="491" y="32" on="1"/>
        <pt x="494" y="25" on="0"/>
        <pt x="494" y="19" on="1"/>
        <pt x="494" y="-2" on="0"/>
        <pt x="445" y="-2" on="1"/>
        <pt x="420" y="-2" on="1"/>
        <pt x="379" y="-2" on="0"/>
        <pt x="373" y="19" on="1"/>
        <pt x="316" y="213" on="1"/>
        <pt x="302" y="255" on="0"/>
        <pt x="267" y="285" on="0"/>
        <pt x="231" y="285" on="1"/>
        <pt x="185" y="285" on="1"/>
        <pt x="185" y="24" on="1"/>
        <pt x="185" y="-2" on="0"/>
        <pt x="137" y="-2" on="1"/>
        <pt x="115" y="-2" on="1"/>
      </contour>
      <contour>
        <pt x="266" y="392" on="1"/>
        <pt x="295" y="392" on="0"/>
        <pt x="338" y="452" on="0"/>
        <pt x="338" y="499" on="1"/>
        <pt x="338" y="550" on="0"/>
        <pt x="297" y="600" on="0"/>
        <pt x="261" y="600" on="1"/>
        <pt x="185" y="600" on="1"/>
        <pt x="185" y="392" on="1"/>
      </contour>
    </TTGlyph>
    <TTGlyph name="Racute" xMin="67" yMin="-2" xMax="494" yMax="910">
      <component glyphName="R" x="0" y="0" flags="0x0"/>
      <component glyphName="acutecomb" x="327" y="177" flags="0x0"/>
    </TTGlyph>
    <TTGlyph name="Rcaron" xMin="67" yMin="-2" xMax="494" yMax="899">
      <component glyphName="R" x="0" y="0" flags="0x0"/>
      <component glyphName="uni030C" x="246" y="177" flags="0x0"/>
    </TTGlyph>
    <TTGlyph name="Rcommaaccent" xMin="67" yMin="-237" xMax="494" yMax="700">
      <component glyphName="R" x="0" y="0" flags="0x0"/>
      <component glyphName="uni0326" x="388" y="0" flags="0x0"/>
    </TTGlyph>
    <TTGlyph name="S" xMin="29" yMin="-6" xMax="415" yMax="710">
      <contour>
        <pt x="155" y="-6" on="0"/>
        <pt x="68" y="20" on="0"/>
        <pt x="41" y="43" on="1"/>
        <pt x="29" y="55" on="0"/>
        <pt x="29" y="71" on="1"/>
        <pt x="29" y="93" on="0"/>
        <pt x="49" y="141" on="0"/>
        <pt x="63" y="141" on="1"/>
        <pt x="69" y="141" on="0"/>
        <pt x="86" y="131" on="0"/>
        <pt x="91" y="129" on="1"/>
        <pt x="138" y="96" on="0"/>
        <pt x="199" y="96" on="1"/>
        <pt x="241" y="96" on="0"/>
        <pt x="298" y="143" on="0"/>
        <pt x="298" y="188" on="1"/>
        <pt x="298" y="231" on="0"/>
        <pt x="249" y="280" on="0"/>
        <pt x="200" y="305" on="1"/>
        <pt x="147" y="333" on="0"/>
        <pt x="81" y="385" on="0"/>
        <pt x="42" y="460" on="0"/>
        <pt x="42" y="515" on="1"/>
        <pt x="42" y="606" on="0"/>
        <pt x="157" y="710" on="0"/>
        <pt x="250" y="710" on="1"/>
        <pt x="284" y="710" on="0"/>
        <pt x="353" y="692" on="0"/>
        <pt x="376" y="677" on="1"/>
        <pt x="388" y="669" on="0"/>
        <pt x="388" y="655" on="1"/>
        <pt x="388" y="636" on="0"/>
        <pt x="367" y="584" on="0"/>
        <pt x="355" y="584" on="1"/>
        <pt x="350" y="584" on="0"/>
        <pt x="334" y="590" on="1"/>
        <pt x="294" y="607" on="0"/>
        <pt x="254" y="607" on="1"/>
        <pt x="210" y="607" on="0"/>
        <pt x="159" y="561" on="0"/>
        <pt x="159" y="523" on="1"/>
        <pt x="159" y="492" on="0"/>
        <pt x="186" y="450" on="0"/>
        <pt x="229" y="422" on="0"/>
        <pt x="271" y="400" on="1"/>
        <pt x="319" y="374" on="0"/>
        <pt x="379" y="324" on="0"/>
        <pt x="415" y="250" on="0"/>
        <pt x="415" y="197" on="1"/>
        <pt x="415" y="106" on="0"/>
        <pt x="301" y="-6" on="0"/>
        <pt x="203" y="-6" on="1"/>
      </contour>
    </TTGlyph>
    <TTGlyph name="Sacute" xMin="29" yMin="-6" xMax="415" yMax="910">
      <component glyphName="S" x="0" y="0" flags="0x0"/>
      <component glyphName="acutecomb" x="305" y="177" flags="0x0"/>
    </TTGlyph>
    <TTGlyph name="Sacute.loclPLK" xMin="29" yMin="-6" xMax="415" yMax="910">
      <component glyphName="S" x="0" y="0" flags="0x0"/>
      <component glyphName="acute.loclPLK" x="141" y="177" flags="0x0"/>
    </TTGlyph>
    <TTGlyph name="Scaron" xMin="29" yMin="-6" xMax="415" yMax="899">
      <component glyphName="S" x="0" y="0" flags="0x0"/>
      <component glyphName="uni030C" x="225" y="177" flags="0x0"/>
    </TTGlyph>
    <TTGlyph name="Scedilla" xMin="29" yMin="-211" xMax="415" yMax="710">
      <contour>
        <pt x="415" y="117" on="0"/>
        <pt x="326" y="10" on="0"/>
        <pt x="247" y="-3" on="1"/>
        <pt x="233" y="-54" on="1"/>
        <pt x="262" y="-57" on="0"/>
        <pt x="302" y="-90" on="0"/>
        <pt x="302" y="-125" on="1"/>
        <pt x="302" y="-170" on="0"/>
        <pt x="247" y="-211" on="0"/>
        <pt x="202" y="-211" on="1"/>
        <pt x="165" y="-211" on="0"/>
        <pt x="103" y="-183" on="0"/>
        <pt x="103" y="-164" on="1"/>
        <pt x="103" y="-151" on="0"/>
        <pt x="120" y="-131" on="0"/>
        <pt x="127" y="-131" on="1"/>
        <pt x="133" y="-131" on="0"/>
        <pt x="149" y="-138" on="0"/>
        <pt x="152" y="-139" on="1"/>
        <pt x="154" y="-140" on="0"/>
        <pt x="180" y="-151" on="0"/>
        <pt x="195" y="-151" on="1"/>
        <pt x="207" y="-151" on="0"/>
        <pt x="224" y="-139" on="0"/>
        <pt x="224" y="-128" on="1"/>
        <pt x="224" y="-116" on="0"/>
        <pt x="210" y="-106" on="0"/>
        <pt x="195" y="-99" on="1"/>
        <pt x="183" y="-95" on="0"/>
        <pt x="172" y="-87" on="0"/>
        <pt x="172" y="-79" on="1"/>
        <pt x="172" y="-73" on="0"/>
        <pt x="183" y="-39" on="0"/>
        <pt x="194" y="-6" on="1"/>
        <pt x="149" y="-5" on="0"/>
        <pt x="67" y="20" on="0"/>
        <pt x="41" y="43" on="1"/>
        <pt x="29" y="55" on="0"/>
        <pt x="29" y="71" on="1"/>
        <pt x="29" y="93" on="0"/>
        <pt x="49" y="141" on="0"/>
        <pt x="63" y="141" on="1"/>
        <pt x="69" y="141" on="0"/>
        <pt x="86" y="131" on="0"/>
        <pt x="91" y="129" on="1"/>
        <pt x="138" y="96" on="0"/>
        <pt x="199" y="96" on="1"/>
        <pt x="241" y="96" on="0"/>
        <pt x="298" y="143" on="0"/>
        <pt x="298" y="188" on="1"/>
        <pt x="298" y="231" on="0"/>
        <pt x="249" y="280" on="0"/>
        <pt x="200" y="305" on="1"/>
        <pt x="147" y="333" on="0"/>
        <pt x="81" y="385" on="0"/>
        <pt x="42" y="460" on="0"/>
        <pt x="42" y="515" on="1"/>
        <pt x="42" y="606" on="0"/>
        <pt x="157" y="710" on="0"/>
        <pt x="250" y="710" on="1"/>
        <pt x="284" y="710" on="0"/>
        <pt x="353" y="692" on="0"/>
        <pt x="376" y="677" on="1"/>
        <pt x="388" y="669" on="0"/>
        <pt x="388" y="655" on="1"/>
        <pt x="388" y="636" on="0"/>
        <pt x="367" y="584" on="0"/>
        <pt x="355" y="584" on="1"/>
        <pt x="350" y="584" on="0"/>
        <pt x="334" y="590" on="1"/>
        <pt x="294" y="607" on="0"/>
        <pt x="254" y="607" on="1"/>
        <pt x="210" y="607" on="0"/>
        <pt x="159" y="561" on="0"/>
        <pt x="159" y="523" on="1"/>
        <pt x="159" y="492" on="0"/>
        <pt x="186" y="450" on="0"/>
        <pt x="229" y="422" on="0"/>
        <pt x="271" y="400" on="1"/>
        <pt x="319" y="374" on="0"/>
        <pt x="379" y="324" on="0"/>
        <pt x="415" y="250" on="0"/>
        <pt x="415" y="197" on="1"/>
      </contour>
    </TTGlyph>
    <TTGlyph name="Scircumflex" xMin="29" yMin="-6" xMax="415" yMax="895">
      <component glyphName="S" x="0" y="0" flags="0x0"/>
      <component glyphName="uni0302" x="228" y="177" flags="0x0"/>
    </TTGlyph>
    <TTGlyph name="Scommaaccent" xMin="29" yMin="-237" xMax="415" yMax="710">
      <component glyphName="S" x="0" y="0" flags="0x0"/>
      <component glyphName="uni0326" x="349" y="0" flags="0x0"/>
    </TTGlyph>
    <TTGlyph name="T" xMin="15" yMin="-2" xMax="440" yMax="700">
      <contour>
        <pt x="168" y="-2" on="0"/>
        <pt x="168" y="24" on="1"/>
        <pt x="168" y="600" on="1"/>
        <pt x="38" y="600" on="1"/>
        <pt x="26" y="600" on="0"/>
        <pt x="15" y="618" on="0"/>
        <pt x="15" y="639" on="1"/>
        <pt x="15" y="661" on="1"/>
        <pt x="15" y="681" on="0"/>
        <pt x="26" y="700" on="0"/>
        <pt x="38" y="700" on="1"/>
        <pt x="416" y="700" on="1"/>
        <pt x="429" y="700" on="0"/>
        <pt x="440" y="681" on="0"/>
        <pt x="440" y="661" on="1"/>
        <pt x="440" y="639" on="1"/>
        <pt x="440" y="618" on="0"/>
        <pt x="429" y="600" on="0"/>
        <pt x="416" y="600" on="1"/>
        <pt x="287" y="600" on="1"/>
        <pt x="287" y="24" on="1"/>
        <pt x="287" y="11" on="0"/>
        <pt x="265" y="-2" on="0"/>
        <pt x="240" y="-2" on="1"/>
        <pt x="214" y="-2" on="1"/>
      </contour>
    </TTGlyph>
    <TTGlyph name="Tbar" xMin="15" yMin="-2" xMax="440" yMax="700">
      <contour>
        <pt x="429" y="700" on="0"/>
        <pt x="440" y="681" on="0"/>
        <pt x="440" y="661" on="1"/>
        <pt x="440" y="639" on="1"/>
        <pt x="440" y="618" on="0"/>
        <pt x="429" y="600" on="0"/>
        <pt x="416" y="600" on="1"/>
        <pt x="287" y="600" on="1"/>
        <pt x="287" y="392" on="1"/>
        <pt x="363" y="392" on="1"/>
        <pt x="376" y="392" on="0"/>
        <pt x="387" y="376" on="0"/>
        <pt x="387" y="358" on="1"/>
        <pt x="387" y="346" on="1"/>
        <pt x="387" y="328" on="0"/>
        <pt x="376" y="311" on="0"/>
        <pt x="363" y="311" on="1"/>
        <pt x="287" y="311" on="1"/>
        <pt x="287" y="24" on="1"/>
        <pt x="287" y="11" on="0"/>
        <pt x="265" y="-2" on="0"/>
        <pt x="240" y="-2" on="1"/>
        <pt x="214" y="-2" on="1"/>
        <pt x="168" y="-2" on="0"/>
        <pt x="168" y="24" on="1"/>
        <pt x="168" y="311" on="1"/>
        <pt x="79" y="311" on="1"/>
        <pt x="55" y="311" on="0"/>
        <pt x="55" y="346" on="1"/>
        <pt x="55" y="358" on="1"/>
        <pt x="55" y="392" on="0"/>
        <pt x="79" y="392" on="1"/>
        <pt x="168" y="392" on="1"/>
        <pt x="168" y="600" on="1"/>
        <pt x="38" y="600" on="1"/>
        <pt x="26" y="600" on="0"/>
        <pt x="15" y="618" on="0"/>
        <pt x="15" y="639" on="1"/>
        <pt x="15" y="661" on="1"/>
        <pt x="15" y="681" on="0"/>
        <pt x="26" y="700" on="0"/>
        <pt x="38" y="700" on="1"/>
        <pt x="416" y="700" on="1"/>
      </contour>
    </TTGlyph>
    <TTGlyph name="Tcaron" xMin="15" yMin="-2" xMax="440" yMax="899">
      <component glyphName="T" x="0" y="0" flags="0x0"/>
      <component glyphName="uni030C" x="221" y="177" flags="0x0"/>
    </TTGlyph>
    <TTGlyph name="Thorn" xMin="65" yMin="-2" xMax="456" yMax="702">
      <contour>
        <pt x="65" y="-2" on="0"/>
        <pt x="65" y="24" on="1"/>
        <pt x="65" y="676" on="1"/>
        <pt x="65" y="702" on="0"/>
        <pt x="112" y="702" on="1"/>
        <pt x="137" y="702" on="1"/>
        <pt x="184" y="702" on="0"/>
        <pt x="184" y="676" on="1"/>
        <pt x="184" y="584" on="1"/>
        <pt x="266" y="584" on="1"/>
        <pt x="341" y="584" on="0"/>
        <pt x="456" y="497" on="0"/>
        <pt x="456" y="378" on="1"/>
        <pt x="456" y="293" on="0"/>
        <pt x="390" y="199" on="0"/>
        <pt x="308" y="166" on="0"/>
        <pt x="275" y="166" on="1"/>
        <pt x="184" y="166" on="1"/>
        <pt x="184" y="24" on="1"/>
        <pt x="184" y="-2" on="0"/>
        <pt x="137" y="-2" on="1"/>
        <pt x="112" y="-2" on="1"/>
      </contour>
      <contour>
        <pt x="265" y="266" on="1"/>
        <pt x="294" y="266" on="0"/>
        <pt x="338" y="316" on="0"/>
        <pt x="338" y="378" on="1"/>
        <pt x="338" y="437" on="0"/>
        <pt x="292" y="484" on="0"/>
        <pt x="260" y="484" on="1"/>
        <pt x="184" y="484" on="1"/>
        <pt x="184" y="266" on="1"/>
      </contour>
    </TTGlyph>
    <TTGlyph name="U" xMin="60" yMin="-7" xMax="523" yMax="702">
      <contour>
        <pt x="182" y="-7" on="0"/>
        <pt x="60" y="101" on="0"/>
        <pt x="60" y="199" on="1"/>
        <pt x="60" y="676" on="1"/>
        <pt x="60" y="702" on="0"/>
        <pt x="107" y="702" on="1"/>
        <pt x="133" y="702" on="1"/>
        <pt x="180" y="702" on="0"/>
        <pt x="180" y="676" on="1"/>
        <pt x="180" y="202" on="1"/>
        <pt x="180" y="154" on="0"/>
        <pt x="242" y="93" on="0"/>
        <pt x="292" y="93" on="1"/>
        <pt x="342" y="93" on="0"/>
        <pt x="404" y="154" on="0"/>
        <pt x="404" y="202" on="1"/>
        <pt x="404" y="676" on="1"/>
        <pt x="404" y="702" on="0"/>
        <pt x="451" y="702" on="1"/>
        <pt x="476" y="702" on="1"/>
        <pt x="523" y="702" on="0"/>
        <pt x="523" y="676" on="1"/>
        <pt x="523" y="199" on="1"/>
        <pt x="523" y="101" on="0"/>
        <pt x="401" y="-7" on="0"/>
        <pt x="292" y="-7" on="1"/>
      </contour>
    </TTGlyph>
    <TTGlyph name="Uacute" xMin="60" yMin="-7" xMax="523" yMax="910">
      <component glyphName="U" x="0" y="0" flags="0x0"/>
      <component glyphName="acutecomb" x="366" y="177" flags="0x0"/>
    </TTGlyph>
    <TTGlyph name="Ubreve" xMin="60" yMin="-7" xMax="523" yMax="892">
      <component glyphName="U" x="0" y="0" flags="0x0"/>
      <component glyphName="uni0306" x="291" y="177" flags="0x0"/>
    </TTGlyph>
    <TTGlyph name="Ucircumflex" xMin="60" yMin="-7" xMax="523" yMax="895">
      <component glyphName="U" x="0" y="0" flags="0x0"/>
      <component glyphName="uni0302" x="290" y="177" flags="0x0"/>
    </TTGlyph>
    <TTGlyph name="Udieresis" xMin="60" yMin="-7" xMax="523" yMax="879">
      <component glyphName="U" x="0" y="0" flags="0x0"/>
      <component glyphName="uni0308" x="294" y="177" flags="0x0"/>
    </TTGlyph>
    <TTGlyph name="Ugrave" xMin="60" yMin="-7" xMax="523" yMax="910">
      <component glyphName="U" x="0" y="0" flags="0x0"/>
      <component glyphName="gravecomb" x="291" y="177" flags="0x0"/>
    </TTGlyph>
    <TTGlyph name="Uhorn" xMin="53" yMin="-7" xMax="594" yMax="834">
      <contour>
        <pt x="594" y="720" on="0"/>
        <pt x="555" y="674" on="0"/>
        <pt x="516" y="668" on="1"/>
        <pt x="516" y="199" on="1"/>
        <pt x="516" y="101" on="0"/>
        <pt x="394" y="-7" on="0"/>
        <pt x="285" y="-7" on="1"/>
        <pt x="175" y="-7" on="0"/>
        <pt x="53" y="101" on="0"/>
        <pt x="53" y="199" on="1"/>
        <pt x="53" y="676" on="1"/>
        <pt x="53" y="702" on="0"/>
        <pt x="100" y="702" on="1"/>
        <pt x="126" y="702" on="1"/>
        <pt x="173" y="702" on="0"/>
        <pt x="173" y="676" on="1"/>
        <pt x="173" y="202" on="1"/>
        <pt x="173" y="154" on="0"/>
        <pt x="235" y="93" on="0"/>
        <pt x="285" y="93" on="1"/>
        <pt x="335" y="93" on="0"/>
        <pt x="397" y="154" on="0"/>
        <pt x="397" y="202" on="1"/>
        <pt x="397" y="676" on="1"/>
        <pt x="397" y="702" on="0"/>
        <pt x="444" y="702" on="1"/>
        <pt x="482" y="702" on="1"/>
        <pt x="504" y="702" on="0"/>
        <pt x="525" y="721" on="0"/>
        <pt x="525" y="735" on="1"/>
        <pt x="525" y="750" on="0"/>
        <pt x="509" y="774" on="0"/>
        <pt x="508" y="776" on="1"/>
        <pt x="498" y="790" on="0"/>
        <pt x="498" y="794" on="1"/>
        <pt x="498" y="805" on="0"/>
        <pt x="508" y="811" on="1"/>
        <pt x="536" y="830" on="1"/>
        <pt x="541" y="834" on="0"/>
        <pt x="550" y="834" on="1"/>
        <pt x="567" y="834" on="0"/>
        <pt x="594" y="781" on="0"/>
        <pt x="594" y="756" on="1"/>
      </contour>
    </TTGlyph>
    <TTGlyph name="Uhungarumlaut" xMin="60" yMin="-7" xMax="523" yMax="910">
      <component glyphName="U" x="0" y="0" flags="0x0"/>
      <component glyphName="uni030B" x="317" y="177" flags="0x0"/>
    </TTGlyph>
    <TTGlyph name="Umacron" xMin="60" yMin="-7" xMax="523" yMax="863">
      <component glyphName="U" x="0" y="0" flags="0x0"/>
      <component glyphName="uni0304" x="294" y="177" flags="0x0"/>
    </TTGlyph>
    <TTGlyph name="Uogonek" xMin="60" yMin="-163" xMax="523" yMax="702">
      <contour>
        <pt x="523" y="138" on="0"/>
        <pt x="473" y="48" on="0"/>
        <pt x="426" y="22" on="1"/>
        <pt x="405" y="-16" on="0"/>
        <pt x="405" y="-54" on="1"/>
        <pt x="405" y="-79" on="0"/>
        <pt x="433" y="-97" on="0"/>
        <pt x="454" y="-97" on="1"/>
        <pt x="462" y="-97" on="0"/>
        <pt x="481" y="-92" on="0"/>
        <pt x="487" y="-92" on="1"/>
        <pt x="512" y="-92" on="0"/>
        <pt x="512" y="-118" on="1"/>
        <pt x="512" y="-138" on="0"/>
        <pt x="497" y="-147" on="1"/>
        <pt x="471" y="-163" on="0"/>
        <pt x="435" y="-163" on="1"/>
        <pt x="380" y="-163" on="0"/>
        <pt x="341" y="-104" on="0"/>
        <pt x="341" y="-72" on="1"/>
        <pt x="341" y="-38" on="0"/>
        <pt x="357" y="-1" on="1"/>
        <pt x="327" y="-7" on="0"/>
        <pt x="292" y="-7" on="1"/>
        <pt x="182" y="-7" on="0"/>
        <pt x="60" y="101" on="0"/>
        <pt x="60" y="199" on="1"/>
        <pt x="60" y="676" on="1"/>
        <pt x="60" y="702" on="0"/>
        <pt x="107" y="702" on="1"/>
        <pt x="133" y="702" on="1"/>
        <pt x="180" y="702" on="0"/>
        <pt x="180" y="676" on="1"/>
        <pt x="180" y="202" on="1"/>
        <pt x="180" y="154" on="0"/>
        <pt x="242" y="93" on="0"/>
        <pt x="292" y="93" on="1"/>
        <pt x="342" y="93" on="0"/>
        <pt x="404" y="154" on="0"/>
        <pt x="404" y="202" on="1"/>
        <pt x="404" y="676" on="1"/>
        <pt x="404" y="702" on="0"/>
        <pt x="451" y="702" on="1"/>
        <pt x="476" y="702" on="1"/>
        <pt x="523" y="702" on="0"/>
        <pt x="523" y="676" on="1"/>
        <pt x="523" y="199" on="1"/>
      </contour>
    </TTGlyph>
    <TTGlyph name="Uring" xMin="60" yMin="-7" xMax="523" yMax="917">
      <component glyphName="U" x="0" y="0" flags="0x0"/>
      <component glyphName="uni030A" x="290" y="177" flags="0x0"/>
    </TTGlyph>
    <TTGlyph name="Utilde" xMin="60" yMin="-7" xMax="523" yMax="871">
      <component glyphName="U" x="0" y="0" flags="0x0"/>
      <component glyphName="tildecomb" x="292" y="177" flags="0x0"/>
    </TTGlyph>
    <TTGlyph name="V" xMin="12" yMin="-2" xMax="494" yMax="702">
      <contour>
        <pt x="185" y="-2" on="0"/>
        <pt x="180" y="16" on="1"/>
        <pt x="16" y="668" on="1"/>
        <pt x="12" y="678" on="0"/>
        <pt x="12" y="683" on="1"/>
        <pt x="12" y="702" on="0"/>
        <pt x="60" y="702" on="1"/>
        <pt x="85" y="702" on="1"/>
        <pt x="125" y="702" on="0"/>
        <pt x="130" y="680" on="1"/>
        <pt x="242" y="184" on="1"/>
        <pt x="251" y="124" on="1"/>
        <pt x="254" y="124" on="1"/>
        <pt x="263" y="184" on="1"/>
        <pt x="378" y="680" on="1"/>
        <pt x="383" y="702" on="0"/>
        <pt x="423" y="702" on="1"/>
        <pt x="446" y="702" on="1"/>
        <pt x="494" y="702" on="0"/>
        <pt x="494" y="683" on="1"/>
        <pt x="494" y="676" on="0"/>
        <pt x="491" y="667" on="1"/>
        <pt x="326" y="16" on="1"/>
        <pt x="322" y="-2" on="0"/>
        <pt x="282" y="-2" on="1"/>
        <pt x="224" y="-2" on="1"/>
      </contour>
    </TTGlyph>
    <TTGlyph name="W" xMin="13" yMin="-2" xMax="740" yMax="702">
      <contour>
        <pt x="153" y="-2" on="0"/>
        <pt x="150" y="16" on="1"/>
        <pt x="14" y="667" on="1"/>
        <pt x="13" y="672" on="0"/>
        <pt x="13" y="680" on="1"/>
        <pt x="13" y="702" on="0"/>
        <pt x="62" y="702" on="1"/>
        <pt x="82" y="702" on="1"/>
        <pt x="128" y="702" on="0"/>
        <pt x="132" y="679" on="1"/>
        <pt x="204" y="247" on="1"/>
        <pt x="210" y="213" on="0"/>
        <pt x="214" y="171" on="1"/>
        <pt x="218" y="138" on="0"/>
        <pt x="221" y="119" on="1"/>
        <pt x="242" y="248" on="1"/>
        <pt x="321" y="683" on="1"/>
        <pt x="323" y="694" on="0"/>
        <pt x="342" y="702" on="0"/>
        <pt x="362" y="702" on="1"/>
        <pt x="395" y="702" on="1"/>
        <pt x="415" y="702" on="0"/>
        <pt x="434" y="694" on="0"/>
        <pt x="436" y="683" on="1"/>
        <pt x="515" y="247" on="1"/>
        <pt x="523" y="202" on="0"/>
        <pt x="534" y="117" on="1"/>
        <pt x="545" y="185" on="1"/>
        <pt x="547" y="209" on="0"/>
        <pt x="554" y="247" on="1"/>
        <pt x="624" y="679" on="1"/>
        <pt x="628" y="702" on="0"/>
        <pt x="675" y="702" on="1"/>
        <pt x="691" y="702" on="1"/>
        <pt x="740" y="702" on="0"/>
        <pt x="740" y="680" on="1"/>
        <pt x="738" y="667" on="1"/>
        <pt x="601" y="16" on="1"/>
        <pt x="598" y="-2" on="0"/>
        <pt x="560" y="-2" on="1"/>
        <pt x="509" y="-2" on="1"/>
        <pt x="472" y="-2" on="0"/>
        <pt x="469" y="16" on="1"/>
        <pt x="390" y="407" on="1"/>
        <pt x="376" y="524" on="1"/>
        <pt x="362" y="407" on="1"/>
        <pt x="282" y="16" on="1"/>
        <pt x="279" y="-2" on="0"/>
        <pt x="242" y="-2" on="1"/>
        <pt x="191" y="-2" on="1"/>
      </contour>
    </TTGlyph>
    <TTGlyph name="Wacute" xMin="13" yMin="-2" xMax="740" yMax="910">
      <component glyphName="W" x="0" y="0" flags="0x0"/>
      <component glyphName="acutecomb" x="450" y="177" flags="0x0"/>
    </TTGlyph>
    <TTGlyph name="Wcircumflex" xMin="13" yMin="-2" xMax="740" yMax="895">
      <component glyphName="W" x="0" y="0" flags="0x0"/>
      <component glyphName="uni0302" x="374" y="177" flags="0x0"/>
    </TTGlyph>
    <TTGlyph name="Wdieresis" xMin="13" yMin="-2" xMax="740" yMax="879">
      <component glyphName="W" x="0" y="0" flags="0x0"/>
      <component glyphName="uni0308" x="378" y="177" flags="0x0"/>
    </TTGlyph>
    <TTGlyph name="Wgrave" xMin="13" yMin="-2" xMax="740" yMax="910">
      <component glyphName="W" x="0" y="0" flags="0x0"/>
      <component glyphName="gravecomb" x="375" y="177" flags="0x0"/>
    </TTGlyph>
    <TTGlyph name="X" xMin="15" yMin="-2" xMax="490" yMax="702">
      <contour>
        <pt x="15" y="-2" on="0"/>
        <pt x="15" y="16" on="1"/>
        <pt x="15" y="21" on="0"/>
        <pt x="23" y="37" on="1"/>
        <pt x="181" y="365" on="1"/>
        <pt x="42" y="663" on="1"/>
        <pt x="34" y="676" on="0"/>
        <pt x="34" y="684" on="1"/>
        <pt x="34" y="702" on="0"/>
        <pt x="84" y="702" on="1"/>
        <pt x="116" y="702" on="1"/>
        <pt x="135" y="702" on="0"/>
        <pt x="157" y="695" on="0"/>
        <pt x="161" y="685" on="1"/>
        <pt x="256" y="441" on="1"/>
        <pt x="356" y="685" on="1"/>
        <pt x="360" y="695" on="0"/>
        <pt x="383" y="702" on="0"/>
        <pt x="403" y="702" on="1"/>
        <pt x="432" y="702" on="1"/>
        <pt x="481" y="702" on="0"/>
        <pt x="481" y="684" on="1"/>
        <pt x="481" y="679" on="0"/>
        <pt x="474" y="663" on="1"/>
        <pt x="329" y="367" on="1"/>
        <pt x="483" y="37" on="1"/>
        <pt x="490" y="21" on="0"/>
        <pt x="490" y="16" on="1"/>
        <pt x="490" y="-2" on="0"/>
        <pt x="441" y="-2" on="1"/>
        <pt x="411" y="-2" on="1"/>
        <pt x="392" y="-2" on="0"/>
        <pt x="368" y="5" on="0"/>
        <pt x="365" y="15" on="1"/>
        <pt x="255" y="287" on="1"/>
        <pt x="139" y="15" on="1"/>
        <pt x="135" y="4" on="0"/>
        <pt x="114" y="-2" on="0"/>
        <pt x="93" y="-2" on="1"/>
        <pt x="65" y="-2" on="1"/>
      </contour>
    </TTGlyph>
    <TTGlyph name="Y" xMin="12" yMin="-2" xMax="472" yMax="702">
      <contour>
        <pt x="182" y="-2" on="0"/>
        <pt x="182" y="24" on="1"/>
        <pt x="182" y="310" on="1"/>
        <pt x="19" y="663" on="1"/>
        <pt x="12" y="677" on="0"/>
        <pt x="12" y="684" on="1"/>
        <pt x="12" y="702" on="0"/>
        <pt x="62" y="702" on="1"/>
        <pt x="94" y="702" on="1"/>
        <pt x="113" y="702" on="0"/>
        <pt x="137" y="695" on="0"/>
        <pt x="140" y="685" on="1"/>
        <pt x="245" y="419" on="1"/>
        <pt x="350" y="686" on="1"/>
        <pt x="353" y="696" on="0"/>
        <pt x="377" y="702" on="0"/>
        <pt x="397" y="702" on="1"/>
        <pt x="423" y="702" on="1"/>
        <pt x="472" y="701" on="0"/>
        <pt x="472" y="684" on="1"/>
        <pt x="472" y="675" on="0"/>
        <pt x="466" y="663" on="1"/>
        <pt x="302" y="307" on="1"/>
        <pt x="302" y="24" on="1"/>
        <pt x="302" y="-2" on="0"/>
        <pt x="255" y="-2" on="1"/>
        <pt x="230" y="-2" on="1"/>
      </contour>
    </TTGlyph>
    <TTGlyph name="Y.loclGUA" xMin="54" yMin="-8" xMax="443" yMax="702">
      <contour>
        <pt x="443" y="702" on="0"/>
        <pt x="443" y="675" on="1"/>
        <pt x="443" y="274" on="1"/>
        <pt x="443" y="171" on="0"/>
        <pt x="401" y="48" on="0"/>
        <pt x="314" y="-8" on="0"/>
        <pt x="243" y="-8" on="1"/>
        <pt x="195" y="-8" on="0"/>
        <pt x="112" y="8" on="0"/>
        <pt x="61" y="36" on="0"/>
        <pt x="59" y="51" on="1"/>
        <pt x="57" y="62" on="0"/>
        <pt x="57" y="86" on="1"/>
        <pt x="57" y="103" on="0"/>
        <pt x="65" y="120" on="0"/>
        <pt x="70" y="120" on="1"/>
        <pt x="73" y="120" on="0"/>
        <pt x="89" y="113" on="1"/>
        <pt x="154" y="83" on="0"/>
        <pt x="219" y="83" on="1"/>
        <pt x="280" y="83" on="0"/>
        <pt x="331" y="160" on="0"/>
        <pt x="331" y="252" on="1"/>
        <pt x="331" y="272" on="1"/>
        <pt x="307" y="242" on="0"/>
        <pt x="241" y="210" on="0"/>
        <pt x="202" y="210" on="1"/>
        <pt x="130" y="210" on="0"/>
        <pt x="54" y="289" on="0"/>
        <pt x="54" y="363" on="1"/>
        <pt x="54" y="675" on="1"/>
        <pt x="54" y="702" on="0"/>
        <pt x="103" y="702" on="1"/>
        <pt x="117" y="702" on="1"/>
        <pt x="166" y="702" on="0"/>
        <pt x="166" y="675" on="1"/>
        <pt x="166" y="377" on="1"/>
        <pt x="166" y="342" on="0"/>
        <pt x="205" y="304" on="0"/>
        <pt x="241" y="304" on="1"/>
        <pt x="292" y="304" on="0"/>
        <pt x="331" y="369" on="1"/>
        <pt x="331" y="675" on="1"/>
        <pt x="331" y="702" on="0"/>
        <pt x="380" y="702" on="1"/>
        <pt x="394" y="702" on="1"/>
      </contour>
    </TTGlyph>
    <TTGlyph name="Yacute" xMin="12" yMin="-2" xMax="472" yMax="910">
      <component glyphName="Y" x="0" y="0" flags="0x0"/>
      <component glyphName="acutecomb" x="316" y="177" flags="0x0"/>
    </TTGlyph>
    <TTGlyph name="Yacute.loclGUA" xMin="54" yMin="-8" xMax="443" yMax="910">
      <component glyphName="Y.loclGUA" x="0" y="0" flags="0x0"/>
      <component glyphName="acutecomb" x="321" y="177" flags="0x0"/>
    </TTGlyph>
    <TTGlyph name="Ycircumflex" xMin="12" yMin="-2" xMax="472" yMax="895">
      <component glyphName="Y" x="0" y="0" flags="0x0"/>
      <component glyphName="uni0302" x="240" y="177" flags="0x0"/>
    </TTGlyph>
    <TTGlyph name="Ycircumflex.loclGUA" xMin="54" yMin="-8" xMax="443" yMax="895">
      <component glyphName="Y.loclGUA" x="0" y="0" flags="0x0"/>
      <component glyphName="uni0302" x="244" y="177" flags="0x0"/>
    </TTGlyph>
    <TTGlyph name="Ydieresis" xMin="12" yMin="-2" xMax="472" yMax="879">
      <component glyphName="Y" x="0" y="0" flags="0x0"/>
      <component glyphName="uni0308" x="244" y="177" flags="0x0"/>
    </TTGlyph>
    <TTGlyph name="Ydieresis.loclGUA" xMin="54" yMin="-8" xMax="443" yMax="879">
      <component glyphName="Y.loclGUA" x="0" y="0" flags="0x0"/>
      <component glyphName="uni0308" x="248" y="177" flags="0x0"/>
    </TTGlyph>
    <TTGlyph name="Ygrave" xMin="12" yMin="-2" xMax="472" yMax="910">
      <component glyphName="Y" x="0" y="0" flags="0x0"/>
      <component glyphName="gravecomb" x="241" y="177" flags="0x0"/>
    </TTGlyph>
    <TTGlyph name="Ygrave.loclGUA" xMin="54" yMin="-8" xMax="443" yMax="910">
      <component glyphName="Y.loclGUA" x="0" y="0" flags="0x0"/>
      <component glyphName="gravecomb" x="246" y="177" flags="0x0"/>
    </TTGlyph>
    <TTGlyph name="Z" xMin="29" yMin="0" xMax="471" yMax="700">
      <contour>
        <pt x="50" y="0" on="0"/>
        <pt x="29" y="50" on="0"/>
        <pt x="29" y="69" on="1"/>
        <pt x="29" y="74" on="0"/>
        <pt x="31" y="80" on="1"/>
        <pt x="322" y="600" on="1"/>
        <pt x="76" y="600" on="1"/>
        <pt x="64" y="600" on="0"/>
        <pt x="53" y="619" on="0"/>
        <pt x="53" y="641" on="1"/>
        <pt x="53" y="659" on="1"/>
        <pt x="53" y="681" on="0"/>
        <pt x="64" y="700" on="0"/>
        <pt x="76" y="700" on="1"/>
        <pt x="441" y="700" on="1"/>
        <pt x="450" y="700" on="0"/>
        <pt x="470" y="649" on="0"/>
        <pt x="470" y="630" on="1"/>
        <pt x="470" y="627" on="0"/>
        <pt x="471" y="622" on="0"/>
        <pt x="470" y="620" on="1"/>
        <pt x="180" y="100" on="1"/>
        <pt x="447" y="100" on="1"/>
        <pt x="460" y="100" on="0"/>
        <pt x="471" y="81" on="0"/>
        <pt x="471" y="59" on="1"/>
        <pt x="471" y="41" on="1"/>
        <pt x="471" y="19" on="0"/>
        <pt x="460" y="0" on="0"/>
        <pt x="447" y="0" on="1"/>
        <pt x="60" y="0" on="1"/>
      </contour>
    </TTGlyph>
    <TTGlyph name="Zacute" xMin="29" yMin="0" xMax="471" yMax="910">
      <component glyphName="Z" x="0" y="0" flags="0x0"/>
      <component glyphName="acutecomb" x="331" y="177" flags="0x0"/>
    </TTGlyph>
    <TTGlyph name="Zacute.loclPLK" xMin="29" yMin="0" xMax="471" yMax="910">
      <component glyphName="Z" x="0" y="0" flags="0x0"/>
      <component glyphName="acute.loclPLK" x="167" y="177" flags="0x0"/>
    </TTGlyph>
    <TTGlyph name="Zcaron" xMin="29" yMin="0" xMax="471" yMax="899">
      <component glyphName="Z" x="0" y="0" flags="0x0"/>
      <component glyphName="uni030C" x="250" y="177" flags="0x0"/>
    </TTGlyph>
    <TTGlyph name="Zdotaccent" xMin="29" yMin="0" xMax="471" yMax="879">
      <component glyphName="Z" x="0" y="0" flags="0x0"/>
      <component glyphName="uni0307" x="256" y="177" flags="0x0"/>
    </TTGlyph>
    <TTGlyph name="a" xMin="45" yMin="-7" xMax="423" yMax="530">
      <contour>
        <pt x="120" y="-7" on="0"/>
        <pt x="45" y="76" on="0"/>
        <pt x="45" y="149" on="1"/>
        <pt x="45" y="240" on="0"/>
        <pt x="177" y="333" on="0"/>
        <pt x="298" y="333" on="1"/>
        <pt x="298" y="367" on="1"/>
        <pt x="298" y="438" on="0"/>
        <pt x="223" y="438" on="1"/>
        <pt x="193" y="438" on="0"/>
        <pt x="148" y="423" on="0"/>
        <pt x="112" y="405" on="0"/>
        <pt x="108" y="405" on="1"/>
        <pt x="96" y="405" on="0"/>
        <pt x="65" y="454" on="0"/>
        <pt x="65" y="468" on="1"/>
        <pt x="65" y="483" on="0"/>
        <pt x="112" y="512" on="0"/>
        <pt x="188" y="530" on="0"/>
        <pt x="228" y="530" on="1"/>
        <pt x="319" y="530" on="0"/>
        <pt x="411" y="445" on="0"/>
        <pt x="411" y="369" on="1"/>
        <pt x="411" y="160" on="1"/>
        <pt x="411" y="93" on="0"/>
        <pt x="423" y="32" on="0"/>
        <pt x="423" y="26" on="1"/>
        <pt x="423" y="12" on="0"/>
        <pt x="366" y="-1" on="0"/>
        <pt x="343" y="-1" on="1"/>
        <pt x="328" y="-1" on="0"/>
        <pt x="314" y="27" on="0"/>
        <pt x="308" y="54" on="1"/>
        <pt x="260" y="-7" on="0"/>
        <pt x="187" y="-7" on="1"/>
      </contour>
      <contour>
        <pt x="242" y="85" on="0"/>
        <pt x="284" y="109" on="0"/>
        <pt x="298" y="131" on="1"/>
        <pt x="298" y="255" on="1"/>
        <pt x="230" y="253" on="0"/>
        <pt x="153" y="209" on="0"/>
        <pt x="153" y="154" on="1"/>
        <pt x="153" y="121" on="0"/>
        <pt x="185" y="85" on="0"/>
        <pt x="217" y="85" on="1"/>
      </contour>
    </TTGlyph>
    <TTGlyph name="aacute" xMin="45" yMin="-7" xMax="423" yMax="733">
      <component glyphName="a" x="0" y="0" flags="0x0"/>
      <component glyphName="acutecomb" x="314" y="0" flags="0x0"/>
    </TTGlyph>
    <TTGlyph name="abreve" xMin="45" yMin="-7" xMax="423" yMax="715">
      <component glyphName="a" x="0" y="0" flags="0x0"/>
      <component glyphName="uni0306" x="239" y="0" flags="0x0"/>
    </TTGlyph>
    <TTGlyph name="acircumflex" xMin="45" yMin="-7" xMax="423" yMax="718">
      <component glyphName="a" x="0" y="0" flags="0x0"/>
      <component glyphName="uni0302" x="238" y="0" flags="0x0"/>
    </TTGlyph>
    <TTGlyph name="acute" xMin="44" yMin="581" xMax="210" yMax="733">
      <contour>
        <pt x="55" y="581" on="0"/>
        <pt x="44" y="586" on="0"/>
        <pt x="44" y="593" on="1"/>
        <pt x="44" y="599" on="0"/>
        <pt x="59" y="630" on="0"/>
        <pt x="72" y="656" on="1"/>
        <pt x="78" y="670" on="0"/>
        <pt x="96" y="706" on="1"/>
        <pt x="110" y="733" on="0"/>
        <pt x="162" y="733" on="1"/>
        <pt x="187" y="733" on="0"/>
        <pt x="210" y="727" on="0"/>
        <pt x="210" y="719" on="1"/>
        <pt x="210" y="713" on="0"/>
        <pt x="195" y="691" on="0"/>
        <pt x="177" y="668" on="1"/>
        <pt x="127" y="602" on="1"/>
        <pt x="120" y="591" on="0"/>
        <pt x="94" y="581" on="0"/>
        <pt x="69" y="581" on="1"/>
      </contour>
    </TTGlyph>
    <TTGlyph name="acute.loclPLK" xMin="49" yMin="581" xMax="191" yMax="733">
      <contour>
        <pt x="61" y="581" on="0"/>
        <pt x="49" y="586" on="0"/>
        <pt x="49" y="593" on="1"/>
        <pt x="49" y="605" on="0"/>
        <pt x="77" y="706" on="1"/>
        <pt x="84" y="733" on="0"/>
        <pt x="145" y="733" on="1"/>
        <pt x="191" y="733" on="0"/>
        <pt x="191" y="719" on="1"/>
        <pt x="191" y="710" on="0"/>
        <pt x="152" y="639" on="1"/>
        <pt x="132" y="602" on="1"/>
        <pt x="126" y="592" on="0"/>
        <pt x="101" y="581" on="0"/>
        <pt x="77" y="581" on="1"/>
      </contour>
    </TTGlyph>
    <TTGlyph name="acutecomb" xMin="-112" yMin="581" xMax="54" yMax="733">
      <contour>
        <pt x="-101" y="581" on="0"/>
        <pt x="-112" y="586" on="0"/>
        <pt x="-112" y="593" on="1"/>
        <pt x="-112" y="599" on="0"/>
        <pt x="-97" y="630" on="0"/>
        <pt x="-84" y="656" on="1"/>
        <pt x="-78" y="670" on="0"/>
        <pt x="-60" y="706" on="1"/>
        <pt x="-47" y="733" on="0"/>
        <pt x="6" y="733" on="1"/>
        <pt x="31" y="733" on="0"/>
        <pt x="54" y="727" on="0"/>
        <pt x="54" y="719" on="1"/>
        <pt x="54" y="713" on="0"/>
        <pt x="39" y="691" on="0"/>
        <pt x="21" y="668" on="1"/>
        <pt x="-29" y="602" on="1"/>
        <pt x="-36" y="591" on="0"/>
        <pt x="-62" y="581" on="0"/>
        <pt x="-87" y="581" on="1"/>
      </contour>
    </TTGlyph>
    <TTGlyph name="adieresis" xMin="45" yMin="-7" xMax="423" yMax="702">
      <component glyphName="a" x="0" y="0" flags="0x0"/>
      <component glyphName="uni0308" x="242" y="0" flags="0x0"/>
    </TTGlyph>
    <TTGlyph name="ae" xMin="26" yMin="-7" xMax="639" yMax="530">
      <contour>
        <pt x="106" y="-7" on="0"/>
        <pt x="26" y="76" on="0"/>
        <pt x="26" y="150" on="1"/>
        <pt x="26" y="235" on="0"/>
        <pt x="146" y="328" on="0"/>
        <pt x="262" y="329" on="1"/>
        <pt x="267" y="368" on="0"/>
        <pt x="276" y="393" on="1"/>
        <pt x="261" y="438" on="0"/>
        <pt x="203" y="438" on="1"/>
        <pt x="158" y="438" on="0"/>
        <pt x="110" y="413" on="1"/>
        <pt x="94" y="406" on="0"/>
        <pt x="90" y="406" on="1"/>
        <pt x="78" y="406" on="0"/>
        <pt x="48" y="455" on="0"/>
        <pt x="48" y="468" on="1"/>
        <pt x="48" y="483" on="0"/>
        <pt x="94" y="512" on="0"/>
        <pt x="169" y="530" on="0"/>
        <pt x="210" y="530" on="1"/>
        <pt x="250" y="530" on="0"/>
        <pt x="316" y="510" on="0"/>
        <pt x="338" y="492" on="1"/>
        <pt x="385" y="530" on="0"/>
        <pt x="459" y="530" on="1"/>
        <pt x="551" y="530" on="0"/>
        <pt x="639" y="398" on="0"/>
        <pt x="639" y="270" on="1"/>
        <pt x="639" y="259" on="0"/>
        <pt x="608" y="222" on="0"/>
        <pt x="598" y="222" on="1"/>
        <pt x="377" y="222" on="1"/>
        <pt x="379" y="150" on="0"/>
        <pt x="429" y="85" on="0"/>
        <pt x="477" y="85" on="1"/>
        <pt x="507" y="85" on="0"/>
        <pt x="549" y="101" on="0"/>
        <pt x="582" y="121" on="0"/>
        <pt x="585" y="121" on="1"/>
        <pt x="597" y="121" on="0"/>
        <pt x="628" y="73" on="0"/>
        <pt x="628" y="59" on="1"/>
        <pt x="628" y="43" on="0"/>
        <pt x="582" y="12" on="0"/>
        <pt x="509" y="-7" on="0"/>
        <pt x="473" y="-7" on="1"/>
        <pt x="370" y="-7" on="0"/>
        <pt x="316" y="52" on="1"/>
        <pt x="294" y="25" on="0"/>
        <pt x="220" y="-7" on="0"/>
        <pt x="175" y="-7" on="1"/>
      </contour>
      <contour>
        <pt x="527" y="305" on="1"/>
        <pt x="527" y="373" on="0"/>
        <pt x="493" y="438" on="0"/>
        <pt x="458" y="438" on="1"/>
        <pt x="420" y="438" on="0"/>
        <pt x="379" y="375" on="0"/>
        <pt x="375" y="305" on="1"/>
      </contour>
      <contour>
        <pt x="246" y="89" on="0"/>
        <pt x="276" y="128" on="1"/>
        <pt x="260" y="173" on="0"/>
        <pt x="258" y="246" on="1"/>
        <pt x="137" y="242" on="0"/>
        <pt x="137" y="156" on="1"/>
        <pt x="137" y="124" on="0"/>
        <pt x="166" y="89" on="0"/>
        <pt x="195" y="89" on="1"/>
      </contour>
    </TTGlyph>
    <TTGlyph name="aeacute" xMin="26" yMin="-7" xMax="639" yMax="733">
      <component glyphName="ae" x="0" y="0" flags="0x0"/>
      <component glyphName="acutecomb" x="414" y="0" flags="0x0"/>
    </TTGlyph>
    <TTGlyph name="agrave" xMin="45" yMin="-7" xMax="423" yMax="733">
      <component glyphName="a" x="0" y="0" flags="0x0"/>
      <component glyphName="gravecomb" x="239" y="0" flags="0x0"/>
    </TTGlyph>
    <TTGlyph name="amacron" xMin="45" yMin="-7" xMax="423" yMax="686">
      <component glyphName="a" x="0" y="0" flags="0x0"/>
      <component glyphName="uni0304" x="242" y="0" flags="0x0"/>
    </TTGlyph>
    <TTGlyph name="ampersand" xMin="20" yMin="-7" xMax="507" yMax="707">
      <contour>
        <pt x="493" y="90" on="0"/>
        <pt x="507" y="43" on="0"/>
        <pt x="507" y="32" on="1"/>
        <pt x="507" y="-7" on="0"/>
        <pt x="431" y="-7" on="1"/>
        <pt x="402" y="-7" on="0"/>
        <pt x="359" y="12" on="0"/>
        <pt x="344" y="35" on="1"/>
        <pt x="305" y="13" on="0"/>
        <pt x="244" y="-7" on="0"/>
        <pt x="201" y="-7" on="1"/>
        <pt x="119" y="-7" on="0"/>
        <pt x="20" y="99" on="0"/>
        <pt x="20" y="203" on="1"/>
        <pt x="20" y="275" on="0"/>
        <pt x="67" y="369" on="0"/>
        <pt x="114" y="385" on="1"/>
        <pt x="114" y="389" on="1"/>
        <pt x="79" y="407" on="0"/>
        <pt x="38" y="483" on="0"/>
        <pt x="38" y="536" on="1"/>
        <pt x="38" y="617" on="0"/>
        <pt x="127" y="707" on="0"/>
        <pt x="202" y="707" on="1"/>
        <pt x="234" y="707" on="0"/>
        <pt x="288" y="688" on="0"/>
        <pt x="288" y="670" on="1"/>
        <pt x="288" y="651" on="0"/>
        <pt x="271" y="607" on="0"/>
        <pt x="262" y="607" on="1"/>
        <pt x="258" y="607" on="0"/>
        <pt x="234" y="615" on="0"/>
        <pt x="221" y="615" on="1"/>
        <pt x="186" y="615" on="0"/>
        <pt x="154" y="558" on="0"/>
        <pt x="154" y="520" on="1"/>
        <pt x="154" y="480" on="0"/>
        <pt x="201" y="416" on="0"/>
        <pt x="239" y="416" on="1"/>
        <pt x="315" y="416" on="1"/>
        <pt x="326" y="517" on="1"/>
        <pt x="329" y="543" on="0"/>
        <pt x="368" y="543" on="1"/>
        <pt x="391" y="543" on="1"/>
        <pt x="430" y="543" on="0"/>
        <pt x="430" y="517" on="1"/>
        <pt x="430" y="416" on="1"/>
        <pt x="472" y="416" on="1"/>
        <pt x="484" y="416" on="0"/>
        <pt x="495" y="397" on="0"/>
        <pt x="495" y="377" on="1"/>
        <pt x="495" y="363" on="1"/>
        <pt x="495" y="343" on="0"/>
        <pt x="484" y="324" on="0"/>
        <pt x="472" y="324" on="1"/>
        <pt x="430" y="324" on="1"/>
        <pt x="430" y="145" on="1"/>
        <pt x="430" y="112" on="0"/>
        <pt x="444" y="85" on="0"/>
        <pt x="459" y="85" on="1"/>
        <pt x="467" y="85" on="0"/>
        <pt x="480" y="90" on="0"/>
        <pt x="483" y="90" on="1"/>
      </contour>
      <contour>
        <pt x="136" y="85" on="0"/>
        <pt x="218" y="85" on="1"/>
        <pt x="241" y="85" on="0"/>
        <pt x="286" y="99" on="0"/>
        <pt x="316" y="114" on="1"/>
        <pt x="315" y="120" on="0"/>
        <pt x="315" y="131" on="1"/>
        <pt x="315" y="324" on="1"/>
        <pt x="232" y="324" on="1"/>
        <pt x="181" y="324" on="0"/>
        <pt x="136" y="269" on="0"/>
        <pt x="136" y="205" on="1"/>
      </contour>
    </TTGlyph>
    <TTGlyph name="aogonek" xMin="45" yMin="-162" xMax="507" yMax="530">
      <contour>
        <pt x="507" y="-91" on="0"/>
        <pt x="507" y="-117" on="1"/>
        <pt x="507" y="-137" on="0"/>
        <pt x="492" y="-146" on="1"/>
        <pt x="466" y="-162" on="0"/>
        <pt x="430" y="-162" on="1"/>
        <pt x="375" y="-162" on="0"/>
        <pt x="336" y="-103" on="0"/>
        <pt x="336" y="-71" on="1"/>
        <pt x="336" y="-37" on="0"/>
        <pt x="352" y="-1" on="1"/>
        <pt x="343" y="-1" on="1"/>
        <pt x="328" y="-1" on="0"/>
        <pt x="314" y="27" on="0"/>
        <pt x="308" y="54" on="1"/>
        <pt x="260" y="-7" on="0"/>
        <pt x="187" y="-7" on="1"/>
        <pt x="120" y="-7" on="0"/>
        <pt x="45" y="76" on="0"/>
        <pt x="45" y="149" on="1"/>
        <pt x="45" y="240" on="0"/>
        <pt x="177" y="333" on="0"/>
        <pt x="298" y="333" on="1"/>
        <pt x="298" y="367" on="1"/>
        <pt x="298" y="438" on="0"/>
        <pt x="223" y="438" on="1"/>
        <pt x="193" y="438" on="0"/>
        <pt x="148" y="423" on="0"/>
        <pt x="112" y="405" on="0"/>
        <pt x="108" y="405" on="1"/>
        <pt x="96" y="405" on="0"/>
        <pt x="65" y="454" on="0"/>
        <pt x="65" y="468" on="1"/>
        <pt x="65" y="483" on="0"/>
        <pt x="112" y="512" on="0"/>
        <pt x="188" y="530" on="0"/>
        <pt x="228" y="530" on="1"/>
        <pt x="319" y="530" on="0"/>
        <pt x="411" y="445" on="0"/>
        <pt x="411" y="369" on="1"/>
        <pt x="411" y="160" on="1"/>
        <pt x="411" y="93" on="0"/>
        <pt x="423" y="32" on="0"/>
        <pt x="423" y="26" on="1"/>
        <pt x="423" y="21" on="0"/>
        <pt x="417" y="16" on="1"/>
        <pt x="400" y="-19" on="0"/>
        <pt x="400" y="-53" on="1"/>
        <pt x="400" y="-78" on="0"/>
        <pt x="428" y="-96" on="0"/>
        <pt x="449" y="-96" on="1"/>
        <pt x="457" y="-96" on="0"/>
        <pt x="476" y="-91" on="0"/>
        <pt x="482" y="-91" on="1"/>
      </contour>
      <contour>
        <pt x="298" y="255" on="1"/>
        <pt x="230" y="253" on="0"/>
        <pt x="153" y="209" on="0"/>
        <pt x="153" y="154" on="1"/>
        <pt x="153" y="121" on="0"/>
        <pt x="185" y="85" on="0"/>
        <pt x="217" y="85" on="1"/>
        <pt x="242" y="85" on="0"/>
        <pt x="284" y="109" on="0"/>
        <pt x="298" y="131" on="1"/>
      </contour>
    </TTGlyph>
    <TTGlyph name="approxequal" xMin="51" yMin="176" xMax="393" yMax="291">
      <contour>
        <pt x="393" y="266" on="1"/>
        <pt x="393" y="263" on="1"/>
        <pt x="393" y="260" on="0"/>
        <pt x="391" y="250" on="1"/>
        <pt x="382" y="215" on="0"/>
        <pt x="333" y="179" on="0"/>
        <pt x="296" y="179" on="1"/>
        <pt x="275" y="179" on="0"/>
        <pt x="219" y="197" on="1"/>
        <pt x="198" y="204" on="0"/>
        <pt x="157" y="215" on="0"/>
        <pt x="145" y="215" on="1"/>
        <pt x="119" y="215" on="0"/>
        <pt x="105" y="192" on="1"/>
        <pt x="96" y="176" on="0"/>
        <pt x="85" y="176" on="1"/>
        <pt x="77" y="178" on="1"/>
        <pt x="69" y="182" on="1"/>
        <pt x="51" y="190" on="0"/>
        <pt x="51" y="199" on="1"/>
        <pt x="51" y="201" on="0"/>
        <pt x="52" y="202" on="1"/>
        <pt x="51" y="204" on="1"/>
        <pt x="51" y="207" on="0"/>
        <pt x="53" y="217" on="1"/>
        <pt x="62" y="252" on="0"/>
        <pt x="111" y="289" on="0"/>
        <pt x="148" y="289" on="1"/>
        <pt x="161" y="289" on="0"/>
        <pt x="204" y="277" on="0"/>
        <pt x="225" y="270" on="1"/>
        <pt x="246" y="263" on="0"/>
        <pt x="287" y="252" on="0"/>
        <pt x="299" y="252" on="1"/>
        <pt x="325" y="252" on="0"/>
        <pt x="339" y="275" on="1"/>
        <pt x="349" y="291" on="0"/>
        <pt x="359" y="291" on="1"/>
        <pt x="363" y="291" on="0"/>
        <pt x="369" y="288" on="1"/>
        <pt x="376" y="285" on="1"/>
        <pt x="386" y="281" on="0"/>
        <pt x="393" y="274" on="0"/>
        <pt x="393" y="268" on="1"/>
      </contour>
    </TTGlyph>
    <TTGlyph name="aring" xMin="45" yMin="-7" xMax="423" yMax="740">
      <component glyphName="a" x="0" y="0" flags="0x0"/>
      <component glyphName="uni030A" x="238" y="0" flags="0x0"/>
    </TTGlyph>
    <TTGlyph name="aringacute" xMin="45" yMin="-7" xMax="423" yMax="918">
      <component glyphName="a" x="0" y="0" flags="0x0"/>
      <component glyphName="uni030A" x="238" y="0" flags="0x0"/>
      <component glyphName="acutecomb" x="315" y="185" flags="0x0"/>
    </TTGlyph>
    <TTGlyph name="arrowdown" xMin="5" yMin="5" xMax="499" yMax="707">
      <contour>
        <pt x="241" y="5" on="0"/>
        <pt x="234" y="12" on="1"/>
        <pt x="23" y="225" on="1"/>
        <pt x="5" y="242" on="0"/>
        <pt x="5" y="267" on="1"/>
        <pt x="5" y="335" on="1"/>
        <pt x="5" y="354" on="0"/>
        <pt x="12" y="354" on="1"/>
        <pt x="16" y="354" on="0"/>
        <pt x="26" y="344" on="1"/>
        <pt x="209" y="158" on="1"/>
        <pt x="209" y="680" on="1"/>
        <pt x="209" y="707" on="0"/>
        <pt x="245" y="707" on="1"/>
        <pt x="259" y="707" on="1"/>
        <pt x="295" y="707" on="0"/>
        <pt x="295" y="680" on="1"/>
        <pt x="295" y="158" on="1"/>
        <pt x="478" y="344" on="1"/>
        <pt x="488" y="354" on="0"/>
        <pt x="492" y="354" on="1"/>
        <pt x="499" y="354" on="0"/>
        <pt x="499" y="335" on="1"/>
        <pt x="499" y="267" on="1"/>
        <pt x="499" y="241" on="0"/>
        <pt x="482" y="225" on="1"/>
        <pt x="270" y="12" on="1"/>
        <pt x="263" y="5" on="0"/>
        <pt x="252" y="5" on="1"/>
      </contour>
    </TTGlyph>
    <TTGlyph name="arrowleft" xMin="0" yMin="0" xMax="594" yMax="529">
      <contour>
        <pt x="220" y="0" on="0"/>
        <pt x="202" y="8" on="0"/>
        <pt x="194" y="18" on="1"/>
        <pt x="7" y="247" on="1"/>
        <pt x="0" y="254" on="0"/>
        <pt x="0" y="265" on="1"/>
        <pt x="0" y="275" on="0"/>
        <pt x="7" y="283" on="1"/>
        <pt x="193" y="511" on="1"/>
        <pt x="207" y="529" on="0"/>
        <pt x="233" y="529" on="1"/>
        <pt x="286" y="529" on="1"/>
        <pt x="308" y="529" on="0"/>
        <pt x="308" y="520" on="1"/>
        <pt x="308" y="515" on="0"/>
        <pt x="296" y="500" on="1"/>
        <pt x="139" y="308" on="1"/>
        <pt x="569" y="308" on="1"/>
        <pt x="594" y="308" on="0"/>
        <pt x="594" y="271" on="1"/>
        <pt x="594" y="257" on="1"/>
        <pt x="594" y="221" on="0"/>
        <pt x="569" y="221" on="1"/>
        <pt x="139" y="221" on="1"/>
        <pt x="297" y="28" on="1"/>
        <pt x="309" y="15" on="0"/>
        <pt x="309" y="8" on="1"/>
        <pt x="309" y="0" on="0"/>
        <pt x="287" y="0" on="1"/>
        <pt x="234" y="0" on="1"/>
      </contour>
    </TTGlyph>
    <TTGlyph name="arrowright" xMin="6" yMin="0" xMax="600" yMax="529">
      <contour>
        <pt x="292" y="0" on="0"/>
        <pt x="292" y="8" on="1"/>
        <pt x="292" y="14" on="0"/>
        <pt x="303" y="28" on="1"/>
        <pt x="461" y="221" on="1"/>
        <pt x="32" y="221" on="1"/>
        <pt x="6" y="221" on="0"/>
        <pt x="6" y="257" on="1"/>
        <pt x="6" y="271" on="1"/>
        <pt x="6" y="308" on="0"/>
        <pt x="32" y="308" on="1"/>
        <pt x="461" y="308" on="1"/>
        <pt x="304" y="500" on="1"/>
        <pt x="292" y="515" on="0"/>
        <pt x="292" y="520" on="1"/>
        <pt x="292" y="529" on="0"/>
        <pt x="314" y="529" on="1"/>
        <pt x="367" y="529" on="1"/>
        <pt x="393" y="529" on="0"/>
        <pt x="407" y="511" on="1"/>
        <pt x="593" y="283" on="1"/>
        <pt x="600" y="275" on="0"/>
        <pt x="600" y="263" on="1"/>
        <pt x="600" y="254" on="0"/>
        <pt x="593" y="247" on="1"/>
        <pt x="407" y="18" on="1"/>
        <pt x="393" y="0" on="0"/>
        <pt x="367" y="0" on="1"/>
        <pt x="314" y="0" on="1"/>
      </contour>
    </TTGlyph>
    <TTGlyph name="arrowup" xMin="5" yMin="-3" xMax="499" yMax="708">
      <contour>
        <pt x="209" y="-3" on="0"/>
        <pt x="209" y="23" on="1"/>
        <pt x="209" y="556" on="1"/>
        <pt x="26" y="369" on="1"/>
        <pt x="16" y="359" on="0"/>
        <pt x="12" y="359" on="1"/>
        <pt x="5" y="359" on="0"/>
        <pt x="5" y="378" on="1"/>
        <pt x="5" y="447" on="1"/>
        <pt x="5" y="471" on="0"/>
        <pt x="22" y="488" on="1"/>
        <pt x="234" y="701" on="1"/>
        <pt x="241" y="708" on="0"/>
        <pt x="252" y="708" on="1"/>
        <pt x="263" y="708" on="0"/>
        <pt x="270" y="701" on="1"/>
        <pt x="482" y="489" on="1"/>
        <pt x="499" y="471" on="0"/>
        <pt x="499" y="447" on="1"/>
        <pt x="499" y="378" on="1"/>
        <pt x="499" y="359" on="0"/>
        <pt x="492" y="359" on="1"/>
        <pt x="488" y="359" on="0"/>
        <pt x="478" y="369" on="1"/>
        <pt x="295" y="555" on="1"/>
        <pt x="295" y="23" on="1"/>
        <pt x="295" y="-3" on="0"/>
        <pt x="259" y="-3" on="1"/>
        <pt x="245" y="-3" on="1"/>
      </contour>
    </TTGlyph>
    <TTGlyph name="asciicircum" xMin="29" yMin="319" xMax="331" yMax="685">
      <contour>
        <pt x="29" y="319" on="0"/>
        <pt x="29" y="337" on="1"/>
        <pt x="29" y="340" on="0"/>
        <pt x="31" y="352" on="1"/>
        <pt x="135" y="660" on="1"/>
        <pt x="139" y="674" on="0"/>
        <pt x="155" y="685" on="0"/>
        <pt x="168" y="685" on="1"/>
        <pt x="193" y="685" on="1"/>
        <pt x="205" y="685" on="0"/>
        <pt x="221" y="674" on="0"/>
        <pt x="225" y="660" on="1"/>
        <pt x="329" y="352" on="1"/>
        <pt x="331" y="340" on="0"/>
        <pt x="331" y="337" on="1"/>
        <pt x="331" y="319" on="0"/>
        <pt x="306" y="319" on="1"/>
        <pt x="291" y="319" on="1"/>
        <pt x="258" y="319" on="0"/>
        <pt x="251" y="345" on="1"/>
        <pt x="180" y="582" on="1"/>
        <pt x="109" y="345" on="1"/>
        <pt x="100" y="319" on="0"/>
        <pt x="71" y="319" on="1"/>
        <pt x="54" y="319" on="1"/>
      </contour>
    </TTGlyph>
    <TTGlyph name="asciitilde" xMin="44" yMin="220" xMax="403" yMax="329">
      <contour>
        <pt x="62" y="225" on="1"/>
        <pt x="44" y="230" on="0"/>
        <pt x="44" y="243" on="1"/>
        <pt x="44" y="250" on="0"/>
        <pt x="48" y="258" on="1"/>
        <pt x="79" y="327" on="0"/>
        <pt x="149" y="327" on="1"/>
        <pt x="165" y="327" on="0"/>
        <pt x="200" y="318" on="0"/>
        <pt x="229" y="308" on="1"/>
        <pt x="277" y="292" on="0"/>
        <pt x="294" y="292" on="1"/>
        <pt x="305" y="292" on="0"/>
        <pt x="322" y="300" on="0"/>
        <pt x="332" y="313" on="1"/>
        <pt x="344" y="329" on="0"/>
        <pt x="359" y="329" on="1"/>
        <pt x="364" y="329" on="0"/>
        <pt x="374" y="327" on="1"/>
        <pt x="384" y="324" on="1"/>
        <pt x="395" y="320" on="0"/>
        <pt x="403" y="312" on="0"/>
        <pt x="403" y="305" on="1"/>
        <pt x="403" y="299" on="0"/>
        <pt x="400" y="291" on="1"/>
        <pt x="367" y="222" on="0"/>
        <pt x="298" y="222" on="1"/>
        <pt x="281" y="222" on="0"/>
        <pt x="246" y="231" on="0"/>
        <pt x="217" y="241" on="1"/>
        <pt x="199" y="247" on="0"/>
        <pt x="163" y="257" on="0"/>
        <pt x="151" y="257" on="1"/>
        <pt x="131" y="257" on="0"/>
        <pt x="115" y="235" on="1"/>
        <pt x="102" y="220" on="0"/>
        <pt x="89" y="220" on="1"/>
        <pt x="84" y="220" on="0"/>
        <pt x="74" y="222" on="1"/>
      </contour>
    </TTGlyph>
    <TTGlyph name="asterisk" xMin="19" yMin="425" xMax="276" yMax="709">
      <contour>
        <pt x="69" y="425" on="0"/>
        <pt x="50" y="440" on="0"/>
        <pt x="50" y="447" on="1"/>
        <pt x="50" y="455" on="0"/>
        <pt x="57" y="465" on="1"/>
        <pt x="109" y="551" on="1"/>
        <pt x="36" y="579" on="1"/>
        <pt x="19" y="587" on="0"/>
        <pt x="19" y="598" on="1"/>
        <pt x="19" y="609" on="0"/>
        <pt x="31" y="627" on="0"/>
        <pt x="41" y="627" on="1"/>
        <pt x="50" y="627" on="0"/>
        <pt x="55" y="624" on="1"/>
        <pt x="123" y="599" on="1"/>
        <pt x="123" y="684" on="1"/>
        <pt x="123" y="697" on="0"/>
        <pt x="135" y="709" on="0"/>
        <pt x="148" y="709" on="1"/>
        <pt x="172" y="709" on="0"/>
        <pt x="172" y="684" on="1"/>
        <pt x="172" y="599" on="1"/>
        <pt x="239" y="624" on="1"/>
        <pt x="245" y="627" on="0"/>
        <pt x="253" y="627" on="1"/>
        <pt x="263" y="627" on="0"/>
        <pt x="276" y="610" on="0"/>
        <pt x="276" y="598" on="1"/>
        <pt x="276" y="587" on="0"/>
        <pt x="258" y="579" on="1"/>
        <pt x="184" y="551" on="1"/>
        <pt x="238" y="465" on="1"/>
        <pt x="245" y="455" on="0"/>
        <pt x="245" y="447" on="1"/>
        <pt x="244" y="440" on="0"/>
        <pt x="225" y="425" on="0"/>
        <pt x="217" y="425" on="1"/>
        <pt x="205" y="427" on="0"/>
        <pt x="198" y="438" on="1"/>
        <pt x="148" y="518" on="1"/>
        <pt x="96" y="438" on="1"/>
        <pt x="90" y="427" on="0"/>
        <pt x="78" y="425" on="1"/>
      </contour>
    </TTGlyph>
    <TTGlyph name="at" xMin="55" yMin="-125" xMax="727" yMax="706">
      <contour>
        <pt x="527" y="706" on="0"/>
        <pt x="656" y="625" on="0"/>
        <pt x="727" y="477" on="0"/>
        <pt x="727" y="379" on="1"/>
        <pt x="727" y="290" on="0"/>
        <pt x="675" y="142" on="0"/>
        <pt x="583" y="56" on="0"/>
        <pt x="525" y="56" on="1"/>
        <pt x="488" y="56" on="0"/>
        <pt x="441" y="92" on="0"/>
        <pt x="434" y="125" on="1"/>
        <pt x="417" y="92" on="0"/>
        <pt x="362" y="56" on="0"/>
        <pt x="329" y="56" on="1"/>
        <pt x="282" y="56" on="0"/>
        <pt x="213" y="144" on="0"/>
        <pt x="213" y="237" on="1"/>
        <pt x="213" y="316" on="0"/>
        <pt x="255" y="438" on="0"/>
        <pt x="332" y="506" on="0"/>
        <pt x="382" y="506" on="1"/>
        <pt x="410" y="506" on="0"/>
        <pt x="456" y="480" on="0"/>
        <pt x="470" y="463" on="1"/>
        <pt x="477" y="487" on="0"/>
        <pt x="491" y="502" on="0"/>
        <pt x="511" y="502" on="1"/>
        <pt x="519" y="502" on="1"/>
        <pt x="552" y="502" on="0"/>
        <pt x="552" y="480" on="1"/>
        <pt x="544" y="381" on="1"/>
        <pt x="526" y="183" on="0"/>
        <pt x="526" y="158" on="1"/>
        <pt x="526" y="138" on="0"/>
        <pt x="545" y="122" on="0"/>
        <pt x="557" y="122" on="1"/>
        <pt x="585" y="122" on="0"/>
        <pt x="637" y="194" on="0"/>
        <pt x="669" y="313" on="0"/>
        <pt x="669" y="379" on="1"/>
        <pt x="669" y="463" on="0"/>
        <pt x="611" y="590" on="0"/>
        <pt x="507" y="658" on="0"/>
        <pt x="439" y="658" on="1"/>
        <pt x="349" y="658" on="0"/>
        <pt x="200" y="546" on="0"/>
        <pt x="113" y="353" on="0"/>
        <pt x="113" y="236" on="1"/>
        <pt x="113" y="144" on="0"/>
        <pt x="169" y="3" on="0"/>
        <pt x="270" y="-76" on="0"/>
        <pt x="336" y="-76" on="1"/>
        <pt x="367" y="-76" on="0"/>
        <pt x="411" y="-65" on="0"/>
        <pt x="435" y="-55" on="1"/>
        <pt x="453" y="-47" on="0"/>
        <pt x="460" y="-47" on="1"/>
        <pt x="474" y="-47" on="0"/>
        <pt x="474" y="-75" on="1"/>
        <pt x="474" y="-101" on="0"/>
        <pt x="378" y="-125" on="0"/>
        <pt x="331" y="-125" on="1"/>
        <pt x="250" y="-125" on="0"/>
        <pt x="125" y="-33" on="0"/>
        <pt x="55" y="132" on="0"/>
        <pt x="55" y="238" on="1"/>
        <pt x="55" y="368" on="0"/>
        <pt x="157" y="582" on="0"/>
        <pt x="334" y="706" on="0"/>
        <pt x="442" y="706" on="1"/>
      </contour>
      <contour>
        <pt x="444" y="357" on="0"/>
        <pt x="454" y="404" on="1"/>
        <pt x="428" y="428" on="0"/>
        <pt x="399" y="428" on="1"/>
        <pt x="352" y="428" on="0"/>
        <pt x="309" y="328" on="0"/>
        <pt x="309" y="244" on="1"/>
        <pt x="309" y="134" on="0"/>
        <pt x="363" y="134" on="1"/>
        <pt x="382" y="134" on="0"/>
        <pt x="421" y="171" on="0"/>
        <pt x="435" y="210" on="1"/>
      </contour>
    </TTGlyph>
    <TTGlyph name="atilde" xMin="45" yMin="-7" xMax="423" yMax="694">
      <component glyphName="a" x="0" y="0" flags="0x0"/>
      <component glyphName="tildecomb" x="240" y="0" flags="0x0"/>
    </TTGlyph>
    <TTGlyph name="b" xMin="66" yMin="-7" xMax="440" yMax="753">
      <contour>
        <pt x="251" y="-7" on="0"/>
        <pt x="190" y="32" on="0"/>
        <pt x="170" y="66" on="1"/>
        <pt x="161" y="16" on="1"/>
        <pt x="157" y="5" on="0"/>
        <pt x="137" y="-2" on="0"/>
        <pt x="119" y="-2" on="1"/>
        <pt x="111" y="-2" on="1"/>
        <pt x="66" y="-2" on="0"/>
        <pt x="66" y="24" on="1"/>
        <pt x="66" y="726" on="1"/>
        <pt x="66" y="753" on="0"/>
        <pt x="113" y="753" on="1"/>
        <pt x="132" y="753" on="1"/>
        <pt x="179" y="753" on="0"/>
        <pt x="179" y="726" on="1"/>
        <pt x="179" y="488" on="1"/>
        <pt x="219" y="530" on="0"/>
        <pt x="275" y="530" on="1"/>
        <pt x="352" y="530" on="0"/>
        <pt x="440" y="390" on="0"/>
        <pt x="440" y="263" on="1"/>
        <pt x="440" y="181" on="0"/>
        <pt x="402" y="59" on="0"/>
        <pt x="332" y="-7" on="0"/>
        <pt x="286" y="-7" on="1"/>
      </contour>
      <contour>
        <pt x="324" y="87" on="0"/>
        <pt x="324" y="264" on="1"/>
        <pt x="324" y="354" on="0"/>
        <pt x="285" y="437" on="0"/>
        <pt x="245" y="437" on="1"/>
        <pt x="206" y="437" on="0"/>
        <pt x="179" y="405" on="1"/>
        <pt x="179" y="141" on="1"/>
        <pt x="212" y="87" on="0"/>
        <pt x="252" y="87" on="1"/>
      </contour>
    </TTGlyph>
    <TTGlyph name="backslash" xMin="1" yMin="-21" xMax="283" yMax="702">
      <contour>
        <pt x="200" y="-21" on="0"/>
        <pt x="194" y="5" on="1"/>
        <pt x="4" y="661" on="1"/>
        <pt x="1" y="675" on="0"/>
        <pt x="1" y="682" on="1"/>
        <pt x="1" y="702" on="0"/>
        <pt x="30" y="702" on="1"/>
        <pt x="52" y="702" on="1"/>
        <pt x="82" y="702" on="0"/>
        <pt x="89" y="677" on="1"/>
        <pt x="280" y="22" on="1"/>
        <pt x="283" y="1" on="0"/>
        <pt x="283" y="-1" on="1"/>
        <pt x="283" y="-10" on="0"/>
        <pt x="268" y="-21" on="0"/>
        <pt x="254" y="-21" on="1"/>
        <pt x="230" y="-21" on="1"/>
      </contour>
    </TTGlyph>
    <TTGlyph name="bar" xMin="57" yMin="-139" xMax="145" yMax="769">
      <contour>
        <pt x="75" y="-139" on="0"/>
        <pt x="57" y="-127" on="0"/>
        <pt x="57" y="-114" on="1"/>
        <pt x="57" y="744" on="1"/>
        <pt x="57" y="757" on="0"/>
        <pt x="75" y="769" on="0"/>
        <pt x="95" y="769" on="1"/>
        <pt x="106" y="769" on="1"/>
        <pt x="127" y="769" on="0"/>
        <pt x="145" y="757" on="0"/>
        <pt x="145" y="744" on="1"/>
        <pt x="145" y="-114" on="1"/>
        <pt x="145" y="-127" on="0"/>
        <pt x="127" y="-139" on="0"/>
        <pt x="106" y="-139" on="1"/>
        <pt x="95" y="-139" on="1"/>
      </contour>
    </TTGlyph>
    <TTGlyph name="braceleft" xMin="15" yMin="-138" xMax="237" yMax="768">
      <contour>
        <pt x="135" y="-138" on="0"/>
        <pt x="83" y="-80" on="0"/>
        <pt x="83" y="-22" on="1"/>
        <pt x="83" y="159" on="1"/>
        <pt x="83" y="205" on="0"/>
        <pt x="66" y="256" on="0"/>
        <pt x="42" y="267" on="1"/>
        <pt x="28" y="274" on="0"/>
        <pt x="15" y="293" on="0"/>
        <pt x="15" y="308" on="1"/>
        <pt x="15" y="322" on="1"/>
        <pt x="15" y="337" on="0"/>
        <pt x="28" y="356" on="0"/>
        <pt x="42" y="363" on="1"/>
        <pt x="66" y="374" on="0"/>
        <pt x="83" y="424" on="0"/>
        <pt x="83" y="471" on="1"/>
        <pt x="83" y="652" on="1"/>
        <pt x="83" y="709" on="0"/>
        <pt x="136" y="768" on="0"/>
        <pt x="170" y="768" on="1"/>
        <pt x="212" y="768" on="1"/>
        <pt x="225" y="768" on="0"/>
        <pt x="237" y="752" on="0"/>
        <pt x="237" y="734" on="1"/>
        <pt x="237" y="726" on="1"/>
        <pt x="237" y="692" on="0"/>
        <pt x="214" y="692" on="1"/>
        <pt x="205" y="692" on="1"/>
        <pt x="187" y="692" on="0"/>
        <pt x="174" y="668" on="0"/>
        <pt x="174" y="642" on="1"/>
        <pt x="174" y="455" on="1"/>
        <pt x="174" y="401" on="0"/>
        <pt x="133" y="329" on="0"/>
        <pt x="108" y="314" on="1"/>
        <pt x="132" y="301" on="0"/>
        <pt x="174" y="230" on="0"/>
        <pt x="174" y="175" on="1"/>
        <pt x="174" y="-11" on="1"/>
        <pt x="174" y="-37" on="0"/>
        <pt x="187" y="-62" on="0"/>
        <pt x="203" y="-62" on="1"/>
        <pt x="213" y="-62" on="1"/>
        <pt x="237" y="-62" on="0"/>
        <pt x="237" y="-96" on="1"/>
        <pt x="237" y="-104" on="1"/>
        <pt x="237" y="-122" on="0"/>
        <pt x="225" y="-138" on="0"/>
        <pt x="212" y="-138" on="1"/>
        <pt x="170" y="-138" on="1"/>
      </contour>
    </TTGlyph>
    <TTGlyph name="braceright" xMin="17" yMin="-138" xMax="239" yMax="768">
      <contour>
        <pt x="29" y="-138" on="0"/>
        <pt x="17" y="-122" on="0"/>
        <pt x="17" y="-104" on="1"/>
        <pt x="17" y="-96" on="1"/>
        <pt x="17" y="-62" on="0"/>
        <pt x="41" y="-62" on="1"/>
        <pt x="50" y="-62" on="1"/>
        <pt x="67" y="-62" on="0"/>
        <pt x="80" y="-37" on="0"/>
        <pt x="80" y="-11" on="1"/>
        <pt x="80" y="175" on="1"/>
        <pt x="80" y="230" on="0"/>
        <pt x="122" y="301" on="0"/>
        <pt x="146" y="314" on="1"/>
        <pt x="121" y="330" on="0"/>
        <pt x="80" y="402" on="0"/>
        <pt x="80" y="455" on="1"/>
        <pt x="80" y="642" on="1"/>
        <pt x="80" y="668" on="0"/>
        <pt x="67" y="692" on="0"/>
        <pt x="49" y="692" on="1"/>
        <pt x="40" y="692" on="1"/>
        <pt x="17" y="692" on="0"/>
        <pt x="17" y="726" on="1"/>
        <pt x="17" y="734" on="1"/>
        <pt x="17" y="752" on="0"/>
        <pt x="29" y="768" on="0"/>
        <pt x="42" y="768" on="1"/>
        <pt x="84" y="768" on="1"/>
        <pt x="118" y="768" on="0"/>
        <pt x="171" y="709" on="0"/>
        <pt x="171" y="652" on="1"/>
        <pt x="171" y="471" on="1"/>
        <pt x="171" y="424" on="0"/>
        <pt x="189" y="374" on="0"/>
        <pt x="213" y="363" on="1"/>
        <pt x="226" y="356" on="0"/>
        <pt x="239" y="337" on="0"/>
        <pt x="239" y="322" on="1"/>
        <pt x="239" y="308" on="1"/>
        <pt x="239" y="293" on="0"/>
        <pt x="226" y="274" on="0"/>
        <pt x="213" y="267" on="1"/>
        <pt x="189" y="256" on="0"/>
        <pt x="171" y="206" on="0"/>
        <pt x="171" y="159" on="1"/>
        <pt x="171" y="-22" on="1"/>
        <pt x="171" y="-80" on="0"/>
        <pt x="119" y="-138" on="0"/>
        <pt x="84" y="-138" on="1"/>
        <pt x="42" y="-138" on="1"/>
      </contour>
    </TTGlyph>
    <TTGlyph name="bracketleft" xMin="59" yMin="-138" xMax="217" yMax="768">
      <contour>
        <pt x="74" y="-138" on="0"/>
        <pt x="59" y="-122" on="0"/>
        <pt x="59" y="-104" on="1"/>
        <pt x="59" y="734" on="1"/>
        <pt x="59" y="752" on="0"/>
        <pt x="74" y="768" on="0"/>
        <pt x="90" y="768" on="1"/>
        <pt x="194" y="768" on="1"/>
        <pt x="207" y="768" on="0"/>
        <pt x="217" y="752" on="0"/>
        <pt x="217" y="734" on="1"/>
        <pt x="217" y="725" on="1"/>
        <pt x="217" y="707" on="0"/>
        <pt x="207" y="691" on="0"/>
        <pt x="194" y="691" on="1"/>
        <pt x="149" y="691" on="1"/>
        <pt x="149" y="-61" on="1"/>
        <pt x="194" y="-61" on="1"/>
        <pt x="207" y="-61" on="0"/>
        <pt x="217" y="-77" on="0"/>
        <pt x="217" y="-95" on="1"/>
        <pt x="217" y="-104" on="1"/>
        <pt x="217" y="-122" on="0"/>
        <pt x="207" y="-138" on="0"/>
        <pt x="194" y="-138" on="1"/>
        <pt x="90" y="-138" on="1"/>
      </contour>
    </TTGlyph>
    <TTGlyph name="bracketright" xMin="22" yMin="-138" xMax="181" yMax="768">
      <contour>
        <pt x="22" y="-138" on="0"/>
        <pt x="22" y="-104" on="1"/>
        <pt x="22" y="-95" on="1"/>
        <pt x="22" y="-61" on="0"/>
        <pt x="46" y="-61" on="1"/>
        <pt x="92" y="-61" on="1"/>
        <pt x="92" y="691" on="1"/>
        <pt x="46" y="691" on="1"/>
        <pt x="22" y="691" on="0"/>
        <pt x="22" y="725" on="1"/>
        <pt x="22" y="734" on="1"/>
        <pt x="22" y="768" on="0"/>
        <pt x="46" y="768" on="1"/>
        <pt x="150" y="768" on="1"/>
        <pt x="166" y="768" on="0"/>
        <pt x="181" y="752" on="0"/>
        <pt x="181" y="734" on="1"/>
        <pt x="181" y="-104" on="1"/>
        <pt x="181" y="-122" on="0"/>
        <pt x="166" y="-138" on="0"/>
        <pt x="150" y="-138" on="1"/>
        <pt x="46" y="-138" on="1"/>
      </contour>
    </TTGlyph>
    <TTGlyph name="breve" xMin="4" yMin="581" xMax="249" yMax="715">
      <contour>
        <pt x="71" y="581" on="0"/>
        <pt x="4" y="643" on="0"/>
        <pt x="4" y="692" on="1"/>
        <pt x="4" y="715" on="0"/>
        <pt x="32" y="715" on="1"/>
        <pt x="42" y="715" on="0"/>
        <pt x="51" y="706" on="0"/>
        <pt x="57" y="693" on="1"/>
        <pt x="65" y="676" on="0"/>
        <pt x="96" y="658" on="0"/>
        <pt x="127" y="658" on="1"/>
        <pt x="159" y="658" on="0"/>
        <pt x="190" y="677" on="0"/>
        <pt x="198" y="694" on="1"/>
        <pt x="202" y="705" on="0"/>
        <pt x="212" y="715" on="0"/>
        <pt x="221" y="715" on="1"/>
        <pt x="249" y="715" on="0"/>
        <pt x="249" y="692" on="1"/>
        <pt x="249" y="643" on="0"/>
        <pt x="183" y="581" on="0"/>
        <pt x="127" y="581" on="1"/>
      </contour>
    </TTGlyph>
    <TTGlyph name="brokenbar" xMin="57" yMin="-140" xMax="145" yMax="770">
      <contour>
        <pt x="57" y="393" on="0"/>
        <pt x="57" y="419" on="1"/>
        <pt x="57" y="744" on="1"/>
        <pt x="57" y="770" on="0"/>
        <pt x="95" y="770" on="1"/>
        <pt x="106" y="770" on="1"/>
        <pt x="145" y="770" on="0"/>
        <pt x="145" y="744" on="1"/>
        <pt x="145" y="419" on="1"/>
        <pt x="145" y="393" on="0"/>
        <pt x="106" y="393" on="1"/>
        <pt x="95" y="393" on="1"/>
      </contour>
      <contour>
        <pt x="57" y="-140" on="0"/>
        <pt x="57" y="-114" on="1"/>
        <pt x="57" y="210" on="1"/>
        <pt x="57" y="237" on="0"/>
        <pt x="95" y="237" on="1"/>
        <pt x="106" y="237" on="1"/>
        <pt x="145" y="237" on="0"/>
        <pt x="145" y="210" on="1"/>
        <pt x="145" y="-114" on="1"/>
        <pt x="145" y="-140" on="0"/>
        <pt x="106" y="-140" on="1"/>
        <pt x="95" y="-140" on="1"/>
      </contour>
    </TTGlyph>
    <TTGlyph name="bullet" xMin="31" yMin="199" xMax="266" yMax="454">
      <contour>
        <pt x="97" y="199" on="0"/>
        <pt x="31" y="264" on="0"/>
        <pt x="31" y="326" on="1"/>
        <pt x="31" y="388" on="0"/>
        <pt x="97" y="454" on="0"/>
        <pt x="148" y="454" on="1"/>
        <pt x="200" y="454" on="0"/>
        <pt x="266" y="388" on="0"/>
        <pt x="266" y="326" on="1"/>
        <pt x="266" y="264" on="0"/>
        <pt x="200" y="199" on="0"/>
        <pt x="148" y="199" on="1"/>
      </contour>
    </TTGlyph>
    <TTGlyph name="c" xMin="41" yMin="-7" xMax="391" yMax="530">
      <contour>
        <pt x="146" y="-7" on="0"/>
        <pt x="41" y="123" on="0"/>
        <pt x="41" y="262" on="1"/>
        <pt x="41" y="403" on="0"/>
        <pt x="149" y="530" on="0"/>
        <pt x="252" y="530" on="1"/>
        <pt x="284" y="530" on="0"/>
        <pt x="346" y="514" on="0"/>
        <pt x="386" y="488" on="0"/>
        <pt x="386" y="474" on="1"/>
        <pt x="386" y="459" on="0"/>
        <pt x="359" y="410" on="0"/>
        <pt x="348" y="410" on="1"/>
        <pt x="343" y="410" on="0"/>
        <pt x="334" y="416" on="1"/>
        <pt x="316" y="426" on="0"/>
        <pt x="282" y="438" on="0"/>
        <pt x="260" y="438" on="1"/>
        <pt x="208" y="438" on="0"/>
        <pt x="158" y="357" on="0"/>
        <pt x="158" y="264" on="1"/>
        <pt x="158" y="169" on="0"/>
        <pt x="206" y="85" on="0"/>
        <pt x="260" y="85" on="1"/>
        <pt x="285" y="85" on="0"/>
        <pt x="321" y="97" on="0"/>
        <pt x="338" y="107" on="1"/>
        <pt x="342" y="109" on="0"/>
        <pt x="351" y="114" on="0"/>
        <pt x="353" y="114" on="1"/>
        <pt x="365" y="114" on="0"/>
        <pt x="391" y="67" on="0"/>
        <pt x="391" y="52" on="1"/>
        <pt x="391" y="37" on="0"/>
        <pt x="345" y="10" on="0"/>
        <pt x="279" y="-7" on="0"/>
        <pt x="252" y="-7" on="1"/>
      </contour>
    </TTGlyph>
    <TTGlyph name="cacute" xMin="41" yMin="-7" xMax="391" yMax="733">
      <component glyphName="c" x="0" y="0" flags="0x0"/>
      <component glyphName="acutecomb" x="308" y="0" flags="0x0"/>
    </TTGlyph>
    <TTGlyph name="cacute.loclPLK" xMin="41" yMin="-7" xMax="391" yMax="733">
      <component glyphName="c" x="0" y="0" flags="0x0"/>
      <component glyphName="acute.loclPLK" x="144" y="0" flags="0x0"/>
    </TTGlyph>
    <TTGlyph name="caron" xMin="10" yMin="578" xMax="241" yMax="722">
      <contour>
        <pt x="102" y="578" on="0"/>
        <pt x="79" y="587" on="0"/>
        <pt x="72" y="599" on="1"/>
        <pt x="17" y="692" on="1"/>
        <pt x="10" y="703" on="0"/>
        <pt x="10" y="710" on="1"/>
        <pt x="10" y="715" on="0"/>
        <pt x="20" y="722" on="0"/>
        <pt x="30" y="722" on="1"/>
        <pt x="52" y="722" on="1"/>
        <pt x="78" y="722" on="0"/>
        <pt x="89" y="705" on="1"/>
        <pt x="125" y="645" on="1"/>
        <pt x="162" y="706" on="1"/>
        <pt x="171" y="722" on="0"/>
        <pt x="198" y="722" on="1"/>
        <pt x="222" y="722" on="1"/>
        <pt x="241" y="722" on="0"/>
        <pt x="241" y="709" on="1"/>
        <pt x="241" y="706" on="0"/>
        <pt x="235" y="692" on="1"/>
        <pt x="178" y="599" on="1"/>
        <pt x="171" y="587" on="0"/>
        <pt x="148" y="578" on="0"/>
        <pt x="131" y="578" on="1"/>
        <pt x="120" y="578" on="1"/>
      </contour>
    </TTGlyph>
    <TTGlyph name="caron.alt" xMin="41" yMin="519" xMax="152" yMax="700">
      <contour>
        <pt x="64" y="519" on="0"/>
        <pt x="41" y="528" on="0"/>
        <pt x="41" y="537" on="1"/>
        <pt x="41" y="550" on="0"/>
        <pt x="45" y="586" on="1"/>
        <pt x="50" y="641" on="0"/>
        <pt x="50" y="663" on="1"/>
        <pt x="50" y="680" on="0"/>
        <pt x="72" y="700" on="0"/>
        <pt x="94" y="700" on="1"/>
        <pt x="107" y="700" on="1"/>
        <pt x="129" y="700" on="0"/>
        <pt x="152" y="681" on="0"/>
        <pt x="152" y="665" on="1"/>
        <pt x="152" y="628" on="0"/>
        <pt x="126" y="561" on="0"/>
        <pt x="90" y="520" on="0"/>
        <pt x="77" y="519" on="1"/>
      </contour>
    </TTGlyph>
    <TTGlyph name="ccaron" xMin="41" yMin="-7" xMax="391" yMax="722">
      <component glyphName="c" x="0" y="0" flags="0x0"/>
      <component glyphName="uni030C" x="227" y="0" flags="0x0"/>
    </TTGlyph>
    <TTGlyph name="ccedilla" xMin="41" yMin="-211" xMax="391" yMax="530">
      <contour>
        <pt x="391" y="33" on="0"/>
        <pt x="316" y="-1" on="0"/>
        <pt x="273" y="-6" on="1"/>
        <pt x="260" y="-54" on="1"/>
        <pt x="289" y="-57" on="0"/>
        <pt x="329" y="-90" on="0"/>
        <pt x="329" y="-125" on="1"/>
        <pt x="329" y="-170" on="0"/>
        <pt x="274" y="-211" on="0"/>
        <pt x="229" y="-211" on="1"/>
        <pt x="192" y="-211" on="0"/>
        <pt x="130" y="-183" on="0"/>
        <pt x="130" y="-164" on="1"/>
        <pt x="130" y="-151" on="0"/>
        <pt x="147" y="-131" on="0"/>
        <pt x="154" y="-131" on="1"/>
        <pt x="160" y="-131" on="0"/>
        <pt x="176" y="-138" on="0"/>
        <pt x="179" y="-139" on="1"/>
        <pt x="181" y="-140" on="0"/>
        <pt x="207" y="-151" on="0"/>
        <pt x="222" y="-151" on="1"/>
        <pt x="234" y="-151" on="0"/>
        <pt x="251" y="-139" on="0"/>
        <pt x="251" y="-128" on="1"/>
        <pt x="251" y="-116" on="0"/>
        <pt x="237" y="-106" on="0"/>
        <pt x="222" y="-99" on="1"/>
        <pt x="210" y="-95" on="0"/>
        <pt x="199" y="-87" on="0"/>
        <pt x="199" y="-79" on="1"/>
        <pt x="199" y="-73" on="0"/>
        <pt x="210" y="-39" on="0"/>
        <pt x="222" y="-6" on="1"/>
        <pt x="131" y="3" on="0"/>
        <pt x="41" y="133" on="0"/>
        <pt x="41" y="262" on="1"/>
        <pt x="41" y="403" on="0"/>
        <pt x="149" y="530" on="0"/>
        <pt x="252" y="530" on="1"/>
        <pt x="284" y="530" on="0"/>
        <pt x="346" y="514" on="0"/>
        <pt x="386" y="488" on="0"/>
        <pt x="386" y="474" on="1"/>
        <pt x="386" y="459" on="0"/>
        <pt x="359" y="410" on="0"/>
        <pt x="348" y="410" on="1"/>
        <pt x="343" y="410" on="0"/>
        <pt x="334" y="416" on="1"/>
        <pt x="316" y="426" on="0"/>
        <pt x="282" y="438" on="0"/>
        <pt x="260" y="438" on="1"/>
        <pt x="208" y="438" on="0"/>
        <pt x="158" y="357" on="0"/>
        <pt x="158" y="264" on="1"/>
        <pt x="158" y="169" on="0"/>
        <pt x="206" y="85" on="0"/>
        <pt x="260" y="85" on="1"/>
        <pt x="285" y="85" on="0"/>
        <pt x="321" y="97" on="0"/>
        <pt x="338" y="107" on="1"/>
        <pt x="342" y="109" on="0"/>
        <pt x="351" y="114" on="0"/>
        <pt x="353" y="114" on="1"/>
        <pt x="365" y="114" on="0"/>
        <pt x="391" y="67" on="0"/>
        <pt x="391" y="52" on="1"/>
      </contour>
    </TTGlyph>
    <TTGlyph name="ccircumflex" xMin="41" yMin="-7" xMax="391" yMax="718">
      <component glyphName="c" x="0" y="0" flags="0x0"/>
      <component glyphName="uni0302" x="231" y="0" flags="0x0"/>
    </TTGlyph>
    <TTGlyph name="cdotaccent" xMin="41" yMin="-7" xMax="391" yMax="702">
      <component glyphName="c" x="0" y="0" flags="0x0"/>
      <component glyphName="uni0307" x="233" y="0" flags="0x0"/>
    </TTGlyph>
    <TTGlyph name="cedilla" xMin="24" yMin="-211" xMax="223" yMax="4">
      <contour>
        <pt x="182" y="-57" on="0"/>
        <pt x="223" y="-90" on="0"/>
        <pt x="223" y="-125" on="1"/>
        <pt x="223" y="-170" on="0"/>
        <pt x="168" y="-211" on="0"/>
        <pt x="123" y="-211" on="1"/>
        <pt x="86" y="-211" on="0"/>
        <pt x="24" y="-183" on="0"/>
        <pt x="24" y="-164" on="1"/>
        <pt x="24" y="-151" on="0"/>
        <pt x="41" y="-131" on="0"/>
        <pt x="49" y="-131" on="1"/>
        <pt x="55" y="-131" on="0"/>
        <pt x="70" y="-138" on="0"/>
        <pt x="72" y="-139" on="1"/>
        <pt x="81" y="-143" on="0"/>
        <pt x="105" y="-151" on="0"/>
        <pt x="116" y="-151" on="1"/>
        <pt x="128" y="-151" on="0"/>
        <pt x="145" y="-139" on="0"/>
        <pt x="145" y="-128" on="1"/>
        <pt x="145" y="-116" on="0"/>
        <pt x="131" y="-106" on="0"/>
        <pt x="116" y="-99" on="1"/>
        <pt x="104" y="-95" on="0"/>
        <pt x="93" y="-87" on="0"/>
        <pt x="93" y="-79" on="1"/>
        <pt x="93" y="-68" on="0"/>
        <pt x="119" y="4" on="1"/>
        <pt x="170" y="4" on="1"/>
        <pt x="153" y="-54" on="1"/>
      </contour>
    </TTGlyph>
    <TTGlyph name="cent" xMin="41" yMin="-76" xMax="391" yMax="585">
      <contour>
        <pt x="391" y="31" on="0"/>
        <pt x="300" y="-5" on="0"/>
        <pt x="256" y="-7" on="1"/>
        <pt x="256" y="-54" on="1"/>
        <pt x="256" y="-66" on="0"/>
        <pt x="245" y="-76" on="0"/>
        <pt x="234" y="-76" on="1"/>
        <pt x="210" y="-76" on="0"/>
        <pt x="210" y="-54" on="1"/>
        <pt x="210" y="-4" on="1"/>
        <pt x="125" y="7" on="0"/>
        <pt x="41" y="137" on="0"/>
        <pt x="41" y="262" on="1"/>
        <pt x="41" y="388" on="0"/>
        <pt x="127" y="515" on="0"/>
        <pt x="210" y="527" on="1"/>
        <pt x="210" y="563" on="1"/>
        <pt x="210" y="585" on="0"/>
        <pt x="232" y="585" on="1"/>
        <pt x="256" y="585" on="0"/>
        <pt x="256" y="563" on="1"/>
        <pt x="256" y="530" on="1"/>
        <pt x="305" y="529" on="0"/>
        <pt x="386" y="495" on="0"/>
        <pt x="386" y="474" on="1"/>
        <pt x="386" y="459" on="0"/>
        <pt x="359" y="410" on="0"/>
        <pt x="348" y="410" on="1"/>
        <pt x="343" y="410" on="0"/>
        <pt x="334" y="416" on="1"/>
        <pt x="316" y="426" on="0"/>
        <pt x="282" y="438" on="0"/>
        <pt x="260" y="438" on="1"/>
        <pt x="256" y="438" on="1"/>
        <pt x="256" y="85" on="1"/>
        <pt x="260" y="85" on="1"/>
        <pt x="285" y="85" on="0"/>
        <pt x="321" y="97" on="0"/>
        <pt x="338" y="107" on="1"/>
        <pt x="342" y="109" on="0"/>
        <pt x="351" y="114" on="0"/>
        <pt x="353" y="114" on="1"/>
        <pt x="365" y="114" on="0"/>
        <pt x="391" y="67" on="0"/>
        <pt x="391" y="52" on="1"/>
      </contour>
      <contour>
        <pt x="158" y="194" on="0"/>
        <pt x="183" y="113" on="0"/>
        <pt x="210" y="97" on="1"/>
        <pt x="210" y="426" on="1"/>
        <pt x="184" y="409" on="0"/>
        <pt x="158" y="331" on="0"/>
        <pt x="158" y="264" on="1"/>
      </contour>
    </TTGlyph>
    <TTGlyph name="circumflex" xMin="10" yMin="574" xMax="241" yMax="718">
      <contour>
        <pt x="20" y="574" on="0"/>
        <pt x="10" y="581" on="0"/>
        <pt x="10" y="586" on="1"/>
        <pt x="10" y="594" on="0"/>
        <pt x="17" y="604" on="1"/>
        <pt x="72" y="697" on="1"/>
        <pt x="85" y="718" on="0"/>
        <pt x="121" y="718" on="1"/>
        <pt x="130" y="718" on="1"/>
        <pt x="148" y="718" on="0"/>
        <pt x="171" y="709" on="0"/>
        <pt x="178" y="697" on="1"/>
        <pt x="235" y="604" on="1"/>
        <pt x="241" y="592" on="0"/>
        <pt x="241" y="587" on="1"/>
        <pt x="241" y="574" on="0"/>
        <pt x="222" y="574" on="1"/>
        <pt x="198" y="574" on="1"/>
        <pt x="171" y="574" on="0"/>
        <pt x="162" y="590" on="1"/>
        <pt x="125" y="651" on="1"/>
        <pt x="89" y="590" on="1"/>
        <pt x="77" y="574" on="0"/>
        <pt x="52" y="574" on="1"/>
        <pt x="30" y="574" on="1"/>
      </contour>
    </TTGlyph>
    <TTGlyph name="colon" xMin="35" yMin="-2" xMax="153" yMax="525">
      <contour>
        <pt x="35" y="395" on="0"/>
        <pt x="35" y="421" on="1"/>
        <pt x="35" y="499" on="1"/>
        <pt x="35" y="525" on="0"/>
        <pt x="81" y="525" on="1"/>
        <pt x="106" y="525" on="1"/>
        <pt x="153" y="525" on="0"/>
        <pt x="153" y="499" on="1"/>
        <pt x="153" y="421" on="1"/>
        <pt x="153" y="395" on="0"/>
        <pt x="106" y="395" on="1"/>
        <pt x="81" y="395" on="1"/>
      </contour>
      <contour>
        <pt x="35" y="-2" on="0"/>
        <pt x="35" y="24" on="1"/>
        <pt x="35" y="102" on="1"/>
        <pt x="35" y="128" on="0"/>
        <pt x="81" y="128" on="1"/>
        <pt x="106" y="128" on="1"/>
        <pt x="153" y="128" on="0"/>
        <pt x="153" y="102" on="1"/>
        <pt x="153" y="24" on="1"/>
        <pt x="153" y="-2" on="0"/>
        <pt x="106" y="-2" on="1"/>
        <pt x="81" y="-2" on="1"/>
      </contour>
    </TTGlyph>
    <TTGlyph name="comma" xMin="9" yMin="-120" xMax="152" yMax="128">
      <contour>
        <pt x="31" y="-120" on="0"/>
        <pt x="9" y="-111" on="0"/>
        <pt x="9" y="-102" on="1"/>
        <pt x="9" y="-98" on="0"/>
        <pt x="14" y="-81" on="0"/>
        <pt x="15" y="-74" on="1"/>
        <pt x="30" y="-27" on="0"/>
        <pt x="44" y="40" on="0"/>
        <pt x="44" y="91" on="1"/>
        <pt x="44" y="128" on="0"/>
        <pt x="91" y="128" on="1"/>
        <pt x="106" y="128" on="1"/>
        <pt x="129" y="128" on="0"/>
        <pt x="152" y="109" on="0"/>
        <pt x="152" y="93" on="1"/>
        <pt x="152" y="39" on="0"/>
        <pt x="114" y="-59" on="0"/>
        <pt x="62" y="-120" on="0"/>
        <pt x="44" y="-120" on="1"/>
      </contour>
    </TTGlyph>
    <TTGlyph name="copyright" xMin="9" yMin="-6" xMax="582" yMax="709">
      <contour>
        <pt x="215" y="-6" on="0"/>
        <pt x="85" y="77" on="0"/>
        <pt x="9" y="239" on="0"/>
        <pt x="9" y="352" on="1"/>
        <pt x="9" y="465" on="0"/>
        <pt x="85" y="626" on="0"/>
        <pt x="215" y="709" on="0"/>
        <pt x="296" y="709" on="1"/>
        <pt x="377" y="709" on="0"/>
        <pt x="507" y="626" on="0"/>
        <pt x="582" y="465" on="0"/>
        <pt x="582" y="352" on="1"/>
        <pt x="582" y="239" on="0"/>
        <pt x="507" y="77" on="0"/>
        <pt x="377" y="-6" on="0"/>
        <pt x="296" y="-6" on="1"/>
      </contour>
      <contour>
        <pt x="360" y="49" on="0"/>
        <pt x="464" y="118" on="0"/>
        <pt x="525" y="255" on="0"/>
        <pt x="525" y="352" on="1"/>
        <pt x="525" y="450" on="0"/>
        <pt x="464" y="586" on="0"/>
        <pt x="361" y="654" on="0"/>
        <pt x="296" y="654" on="1"/>
        <pt x="231" y="654" on="0"/>
        <pt x="128" y="586" on="0"/>
        <pt x="67" y="450" on="0"/>
        <pt x="67" y="352" on="1"/>
        <pt x="67" y="255" on="0"/>
        <pt x="128" y="118" on="0"/>
        <pt x="232" y="49" on="0"/>
        <pt x="296" y="49" on="1"/>
      </contour>
      <contour>
        <pt x="231" y="144" on="0"/>
        <pt x="159" y="245" on="0"/>
        <pt x="159" y="351" on="1"/>
        <pt x="159" y="558" on="0"/>
        <pt x="308" y="558" on="1"/>
        <pt x="340" y="558" on="0"/>
        <pt x="402" y="534" on="0"/>
        <pt x="402" y="520" on="1"/>
        <pt x="402" y="510" on="0"/>
        <pt x="382" y="477" on="0"/>
        <pt x="374" y="477" on="1"/>
        <pt x="372" y="477" on="0"/>
        <pt x="339" y="500" on="0"/>
        <pt x="307" y="500" on="1"/>
        <pt x="266" y="500" on="0"/>
        <pt x="227" y="427" on="0"/>
        <pt x="227" y="351" on="1"/>
        <pt x="227" y="275" on="0"/>
        <pt x="266" y="201" on="0"/>
        <pt x="306" y="201" on="1"/>
        <pt x="338" y="201" on="0"/>
        <pt x="378" y="228" on="0"/>
        <pt x="380" y="228" on="1"/>
        <pt x="389" y="228" on="0"/>
        <pt x="406" y="196" on="0"/>
        <pt x="406" y="188" on="1"/>
        <pt x="406" y="171" on="0"/>
        <pt x="337" y="144" on="0"/>
        <pt x="306" y="144" on="1"/>
      </contour>
    </TTGlyph>
    <TTGlyph name="currency" xMin="47" yMin="112" xMax="412" yMax="507">
      <contour>
        <pt x="82" y="112" on="0"/>
        <pt x="72" y="122" on="1"/>
        <pt x="57" y="136" on="1"/>
        <pt x="48" y="147" on="0"/>
        <pt x="48" y="157" on="1"/>
        <pt x="48" y="169" on="0"/>
        <pt x="59" y="180" on="1"/>
        <pt x="88" y="209" on="1"/>
        <pt x="64" y="255" on="0"/>
        <pt x="64" y="307" on="1"/>
        <pt x="64" y="363" on="0"/>
        <pt x="89" y="408" on="1"/>
        <pt x="58" y="438" on="1"/>
        <pt x="47" y="448" on="0"/>
        <pt x="47" y="461" on="1"/>
        <pt x="47" y="472" on="0"/>
        <pt x="56" y="481" on="1"/>
        <pt x="71" y="497" on="1"/>
        <pt x="81" y="507" on="0"/>
        <pt x="91" y="507" on="1"/>
        <pt x="103" y="507" on="0"/>
        <pt x="114" y="495" on="1"/>
        <pt x="140" y="469" on="1"/>
        <pt x="181" y="500" on="0"/>
        <pt x="228" y="500" on="1"/>
        <pt x="276" y="500" on="0"/>
        <pt x="318" y="469" on="1"/>
        <pt x="343" y="495" on="1"/>
        <pt x="354" y="506" on="0"/>
        <pt x="365" y="506" on="1"/>
        <pt x="377" y="506" on="0"/>
        <pt x="387" y="496" on="1"/>
        <pt x="402" y="481" on="1"/>
        <pt x="412" y="471" on="0"/>
        <pt x="412" y="461" on="1"/>
        <pt x="412" y="450" on="0"/>
        <pt x="400" y="438" on="1"/>
        <pt x="369" y="406" on="1"/>
        <pt x="393" y="360" on="0"/>
        <pt x="393" y="307" on="1"/>
        <pt x="393" y="258" on="0"/>
        <pt x="370" y="210" on="1"/>
        <pt x="399" y="180" on="1"/>
        <pt x="411" y="170" on="0"/>
        <pt x="411" y="157" on="1"/>
        <pt x="411" y="147" on="0"/>
        <pt x="400" y="136" on="1"/>
        <pt x="386" y="122" on="1"/>
        <pt x="374" y="112" on="0"/>
        <pt x="365" y="112" on="1"/>
        <pt x="352" y="112" on="0"/>
        <pt x="342" y="123" on="1"/>
        <pt x="319" y="146" on="1"/>
        <pt x="277" y="115" on="0"/>
        <pt x="228" y="115" on="1"/>
        <pt x="181" y="115" on="0"/>
        <pt x="139" y="145" on="1"/>
        <pt x="116" y="122" on="1"/>
        <pt x="105" y="112" on="0"/>
        <pt x="93" y="112" on="1"/>
      </contour>
      <contour>
        <pt x="263" y="200" on="0"/>
        <pt x="308" y="256" on="0"/>
        <pt x="308" y="307" on="1"/>
        <pt x="308" y="359" on="0"/>
        <pt x="263" y="416" on="0"/>
        <pt x="228" y="416" on="1"/>
        <pt x="193" y="416" on="0"/>
        <pt x="148" y="358" on="0"/>
        <pt x="148" y="307" on="1"/>
        <pt x="148" y="256" on="0"/>
        <pt x="193" y="200" on="0"/>
        <pt x="228" y="200" on="1"/>
      </contour>
    </TTGlyph>
    <TTGlyph name="d" xMin="42" yMin="-7" xMax="427" yMax="753">
      <contour>
        <pt x="150" y="-7" on="0"/>
        <pt x="80" y="59" on="0"/>
        <pt x="42" y="181" on="0"/>
        <pt x="42" y="264" on="1"/>
        <pt x="42" y="390" on="0"/>
        <pt x="131" y="530" on="0"/>
        <pt x="208" y="530" on="1"/>
        <pt x="264" y="530" on="0"/>
        <pt x="303" y="489" on="1"/>
        <pt x="303" y="726" on="1"/>
        <pt x="303" y="753" on="0"/>
        <pt x="350" y="753" on="1"/>
        <pt x="369" y="753" on="1"/>
        <pt x="416" y="753" on="0"/>
        <pt x="416" y="726" on="1"/>
        <pt x="416" y="160" on="1"/>
        <pt x="416" y="95" on="0"/>
        <pt x="427" y="32" on="0"/>
        <pt x="427" y="25" on="1"/>
        <pt x="427" y="12" on="0"/>
        <pt x="368" y="-1" on="0"/>
        <pt x="345" y="-1" on="1"/>
        <pt x="327" y="-1" on="0"/>
        <pt x="315" y="32" on="0"/>
        <pt x="309" y="66" on="1"/>
        <pt x="289" y="31" on="0"/>
        <pt x="230" y="-7" on="0"/>
        <pt x="196" y="-7" on="1"/>
      </contour>
      <contour>
        <pt x="250" y="87" on="0"/>
        <pt x="288" y="117" on="0"/>
        <pt x="303" y="144" on="1"/>
        <pt x="303" y="406" on="1"/>
        <pt x="275" y="437" on="0"/>
        <pt x="238" y="437" on="1"/>
        <pt x="197" y="437" on="0"/>
        <pt x="158" y="352" on="0"/>
        <pt x="158" y="263" on="1"/>
        <pt x="158" y="87" on="0"/>
        <pt x="229" y="87" on="1"/>
      </contour>
    </TTGlyph>
    <TTGlyph name="dagger" xMin="37" yMin="-140" xMax="390" yMax="702">
      <contour>
        <pt x="169" y="-140" on="0"/>
        <pt x="169" y="-114" on="1"/>
        <pt x="169" y="417" on="1"/>
        <pt x="60" y="417" on="1"/>
        <pt x="48" y="417" on="0"/>
        <pt x="37" y="435" on="0"/>
        <pt x="37" y="456" on="1"/>
        <pt x="37" y="470" on="1"/>
        <pt x="37" y="490" on="0"/>
        <pt x="48" y="509" on="0"/>
        <pt x="60" y="509" on="1"/>
        <pt x="169" y="509" on="1"/>
        <pt x="169" y="676" on="1"/>
        <pt x="169" y="702" on="0"/>
        <pt x="208" y="702" on="1"/>
        <pt x="220" y="702" on="1"/>
        <pt x="259" y="702" on="0"/>
        <pt x="259" y="676" on="1"/>
        <pt x="259" y="509" on="1"/>
        <pt x="367" y="509" on="1"/>
        <pt x="380" y="509" on="0"/>
        <pt x="390" y="491" on="0"/>
        <pt x="390" y="470" on="1"/>
        <pt x="390" y="456" on="1"/>
        <pt x="390" y="435" on="0"/>
        <pt x="380" y="417" on="0"/>
        <pt x="367" y="417" on="1"/>
        <pt x="259" y="417" on="1"/>
        <pt x="259" y="-114" on="1"/>
        <pt x="259" y="-140" on="0"/>
        <pt x="220" y="-140" on="1"/>
        <pt x="208" y="-140" on="1"/>
      </contour>
    </TTGlyph>
    <TTGlyph name="daggerdbl" xMin="37" yMin="-140" xMax="390" yMax="702">
      <contour>
        <pt x="169" y="-140" on="0"/>
        <pt x="169" y="-114" on="1"/>
        <pt x="169" y="52" on="1"/>
        <pt x="60" y="52" on="1"/>
        <pt x="48" y="52" on="0"/>
        <pt x="37" y="71" on="0"/>
        <pt x="37" y="91" on="1"/>
        <pt x="37" y="105" on="1"/>
        <pt x="37" y="125" on="0"/>
        <pt x="48" y="144" on="0"/>
        <pt x="60" y="144" on="1"/>
        <pt x="169" y="144" on="1"/>
        <pt x="169" y="417" on="1"/>
        <pt x="60" y="417" on="1"/>
        <pt x="48" y="417" on="0"/>
        <pt x="37" y="435" on="0"/>
        <pt x="37" y="456" on="1"/>
        <pt x="37" y="470" on="1"/>
        <pt x="37" y="490" on="0"/>
        <pt x="48" y="509" on="0"/>
        <pt x="60" y="509" on="1"/>
        <pt x="169" y="509" on="1"/>
        <pt x="169" y="676" on="1"/>
        <pt x="169" y="702" on="0"/>
        <pt x="208" y="702" on="1"/>
        <pt x="220" y="702" on="1"/>
        <pt x="259" y="702" on="0"/>
        <pt x="259" y="676" on="1"/>
        <pt x="259" y="509" on="1"/>
        <pt x="367" y="509" on="1"/>
        <pt x="380" y="509" on="0"/>
        <pt x="390" y="491" on="0"/>
        <pt x="390" y="470" on="1"/>
        <pt x="390" y="456" on="1"/>
        <pt x="390" y="435" on="0"/>
        <pt x="380" y="417" on="0"/>
        <pt x="367" y="417" on="1"/>
        <pt x="259" y="417" on="1"/>
        <pt x="259" y="144" on="1"/>
        <pt x="367" y="144" on="1"/>
        <pt x="380" y="144" on="0"/>
        <pt x="390" y="126" on="0"/>
        <pt x="390" y="105" on="1"/>
        <pt x="390" y="91" on="1"/>
        <pt x="390" y="70" on="0"/>
        <pt x="380" y="52" on="0"/>
        <pt x="367" y="52" on="1"/>
        <pt x="259" y="52" on="1"/>
        <pt x="259" y="-114" on="1"/>
        <pt x="259" y="-140" on="0"/>
        <pt x="220" y="-140" on="1"/>
        <pt x="208" y="-140" on="1"/>
      </contour>
    </TTGlyph>
    <TTGlyph name="dcaron" xMin="42" yMin="-7" xMax="555" yMax="753">
      <component glyphName="d" x="0" y="0" flags="0x0"/>
      <component glyphName="caron.alt" x="403" y="0" flags="0x0"/>
    </TTGlyph>
    <TTGlyph name="dcroat" xMin="42" yMin="-7" xMax="482" yMax="753">
      <contour>
        <pt x="470" y="672" on="0"/>
        <pt x="482" y="656" on="0"/>
        <pt x="482" y="638" on="1"/>
        <pt x="482" y="626" on="1"/>
        <pt x="482" y="608" on="0"/>
        <pt x="470" y="591" on="0"/>
        <pt x="455" y="591" on="1"/>
        <pt x="416" y="591" on="1"/>
        <pt x="416" y="160" on="1"/>
        <pt x="416" y="95" on="0"/>
        <pt x="427" y="32" on="0"/>
        <pt x="427" y="25" on="1"/>
        <pt x="427" y="12" on="0"/>
        <pt x="368" y="-1" on="0"/>
        <pt x="345" y="-1" on="1"/>
        <pt x="327" y="-1" on="0"/>
        <pt x="315" y="32" on="0"/>
        <pt x="309" y="66" on="1"/>
        <pt x="289" y="31" on="0"/>
        <pt x="230" y="-7" on="0"/>
        <pt x="196" y="-7" on="1"/>
        <pt x="150" y="-7" on="0"/>
        <pt x="80" y="59" on="0"/>
        <pt x="42" y="181" on="0"/>
        <pt x="42" y="264" on="1"/>
        <pt x="42" y="390" on="0"/>
        <pt x="131" y="530" on="0"/>
        <pt x="208" y="530" on="1"/>
        <pt x="264" y="530" on="0"/>
        <pt x="303" y="489" on="1"/>
        <pt x="303" y="591" on="1"/>
        <pt x="227" y="591" on="1"/>
        <pt x="213" y="591" on="0"/>
        <pt x="200" y="608" on="0"/>
        <pt x="200" y="626" on="1"/>
        <pt x="200" y="638" on="1"/>
        <pt x="200" y="656" on="0"/>
        <pt x="213" y="672" on="0"/>
        <pt x="227" y="672" on="1"/>
        <pt x="303" y="672" on="1"/>
        <pt x="303" y="726" on="1"/>
        <pt x="303" y="753" on="0"/>
        <pt x="350" y="753" on="1"/>
        <pt x="369" y="753" on="1"/>
        <pt x="416" y="753" on="0"/>
        <pt x="416" y="726" on="1"/>
        <pt x="416" y="672" on="1"/>
        <pt x="455" y="672" on="1"/>
      </contour>
      <contour>
        <pt x="303" y="406" on="1"/>
        <pt x="275" y="437" on="0"/>
        <pt x="238" y="437" on="1"/>
        <pt x="197" y="437" on="0"/>
        <pt x="158" y="352" on="0"/>
        <pt x="158" y="263" on="1"/>
        <pt x="158" y="87" on="0"/>
        <pt x="229" y="87" on="1"/>
        <pt x="250" y="87" on="0"/>
        <pt x="288" y="117" on="0"/>
        <pt x="303" y="144" on="1"/>
      </contour>
    </TTGlyph>
    <TTGlyph name="degree" xMin="31" yMin="442" xMax="243" yMax="707">
      <contour>
        <pt x="90" y="442" on="0"/>
        <pt x="31" y="511" on="0"/>
        <pt x="31" y="574" on="1"/>
        <pt x="31" y="637" on="0"/>
        <pt x="90" y="707" on="0"/>
        <pt x="137" y="707" on="1"/>
        <pt x="184" y="707" on="0"/>
        <pt x="243" y="637" on="0"/>
        <pt x="243" y="574" on="1"/>
        <pt x="243" y="511" on="0"/>
        <pt x="184" y="442" on="0"/>
        <pt x="137" y="442" on="1"/>
      </contour>
      <contour>
        <pt x="159" y="494" on="0"/>
        <pt x="186" y="536" on="0"/>
        <pt x="186" y="574" on="1"/>
        <pt x="186" y="612" on="0"/>
        <pt x="159" y="654" on="0"/>
        <pt x="136" y="654" on="1"/>
        <pt x="113" y="654" on="0"/>
        <pt x="86" y="612" on="0"/>
        <pt x="86" y="574" on="1"/>
        <pt x="86" y="536" on="0"/>
        <pt x="113" y="494" on="0"/>
        <pt x="136" y="494" on="1"/>
      </contour>
    </TTGlyph>
    <TTGlyph name="dieresis" xMin="11" yMin="594" xMax="247" yMax="702">
      <contour>
        <pt x="11" y="594" on="0"/>
        <pt x="11" y="621" on="1"/>
        <pt x="11" y="676" on="1"/>
        <pt x="11" y="702" on="0"/>
        <pt x="58" y="702" on="1"/>
        <pt x="105" y="702" on="0"/>
        <pt x="105" y="676" on="1"/>
        <pt x="105" y="621" on="1"/>
        <pt x="105" y="594" on="0"/>
        <pt x="58" y="594" on="1"/>
      </contour>
      <contour>
        <pt x="153" y="594" on="0"/>
        <pt x="153" y="621" on="1"/>
        <pt x="153" y="676" on="1"/>
        <pt x="153" y="702" on="0"/>
        <pt x="200" y="702" on="1"/>
        <pt x="247" y="702" on="0"/>
        <pt x="247" y="676" on="1"/>
        <pt x="247" y="621" on="1"/>
        <pt x="247" y="594" on="0"/>
        <pt x="200" y="594" on="1"/>
      </contour>
    </TTGlyph>
    <TTGlyph name="divide" xMin="24" yMin="-2" xMax="425" yMax="459">
      <contour>
        <pt x="172" y="346" on="0"/>
        <pt x="172" y="372" on="1"/>
        <pt x="172" y="432" on="1"/>
        <pt x="172" y="459" on="0"/>
        <pt x="219" y="459" on="1"/>
        <pt x="227" y="459" on="1"/>
        <pt x="274" y="459" on="0"/>
        <pt x="274" y="432" on="1"/>
        <pt x="274" y="372" on="1"/>
        <pt x="274" y="359" on="0"/>
        <pt x="252" y="346" on="0"/>
        <pt x="227" y="346" on="1"/>
        <pt x="219" y="346" on="1"/>
      </contour>
      <contour>
        <pt x="24" y="186" on="0"/>
        <pt x="24" y="225" on="1"/>
        <pt x="24" y="232" on="1"/>
        <pt x="24" y="271" on="0"/>
        <pt x="48" y="271" on="1"/>
        <pt x="401" y="271" on="1"/>
        <pt x="425" y="271" on="0"/>
        <pt x="425" y="232" on="1"/>
        <pt x="425" y="225" on="1"/>
        <pt x="425" y="186" on="0"/>
        <pt x="401" y="186" on="1"/>
        <pt x="48" y="186" on="1"/>
      </contour>
      <contour>
        <pt x="172" y="-2" on="0"/>
        <pt x="172" y="24" on="1"/>
        <pt x="172" y="84" on="1"/>
        <pt x="172" y="111" on="0"/>
        <pt x="219" y="111" on="1"/>
        <pt x="227" y="111" on="1"/>
        <pt x="274" y="111" on="0"/>
        <pt x="274" y="84" on="1"/>
        <pt x="274" y="24" on="1"/>
        <pt x="274" y="11" on="0"/>
        <pt x="252" y="-2" on="0"/>
        <pt x="227" y="-2" on="1"/>
        <pt x="219" y="-2" on="1"/>
      </contour>
    </TTGlyph>
    <TTGlyph name="dollar" xMin="28" yMin="-73" xMax="413" yMax="761">
      <contour>
        <pt x="202" y="-73" on="0"/>
        <pt x="202" y="-55" on="1"/>
        <pt x="202" y="-6" on="1"/>
        <pt x="123" y="-6" on="0"/>
        <pt x="68" y="26" on="1"/>
        <pt x="51" y="33" on="0"/>
        <pt x="31" y="51" on="0"/>
        <pt x="30" y="65" on="1"/>
        <pt x="28" y="88" on="0"/>
        <pt x="46" y="140" on="0"/>
        <pt x="61" y="140" on="1"/>
        <pt x="65" y="140" on="0"/>
        <pt x="75" y="134" on="1"/>
        <pt x="105" y="114" on="0"/>
        <pt x="165" y="96" on="0"/>
        <pt x="202" y="96" on="1"/>
        <pt x="202" y="305" on="1"/>
        <pt x="148" y="330" on="0"/>
        <pt x="79" y="377" on="0"/>
        <pt x="35" y="455" on="0"/>
        <pt x="35" y="514" on="1"/>
        <pt x="35" y="593" on="0"/>
        <pt x="125" y="696" on="0"/>
        <pt x="202" y="707" on="1"/>
        <pt x="202" y="743" on="1"/>
        <pt x="202" y="745" on="1"/>
        <pt x="202" y="761" on="0"/>
        <pt x="220" y="761" on="1"/>
        <pt x="229" y="761" on="1"/>
        <pt x="239" y="761" on="0"/>
        <pt x="247" y="753" on="0"/>
        <pt x="247" y="743" on="1"/>
        <pt x="247" y="709" on="1"/>
        <pt x="319" y="707" on="0"/>
        <pt x="364" y="681" on="1"/>
        <pt x="379" y="671" on="0"/>
        <pt x="379" y="658" on="1"/>
        <pt x="381" y="639" on="0"/>
        <pt x="362" y="585" on="0"/>
        <pt x="348" y="585" on="1"/>
        <pt x="345" y="585" on="0"/>
        <pt x="327" y="590" on="1"/>
        <pt x="288" y="607" on="0"/>
        <pt x="248" y="607" on="1"/>
        <pt x="247" y="405" on="1"/>
        <pt x="255" y="401" on="1"/>
        <pt x="306" y="376" on="0"/>
        <pt x="369" y="332" on="0"/>
        <pt x="413" y="256" on="0"/>
        <pt x="413" y="198" on="1"/>
        <pt x="413" y="117" on="0"/>
        <pt x="325" y="12" on="0"/>
        <pt x="247" y="-3" on="1"/>
        <pt x="247" y="-55" on="1"/>
        <pt x="247" y="-73" on="0"/>
        <pt x="229" y="-73" on="1"/>
        <pt x="220" y="-73" on="1"/>
      </contour>
      <contour>
        <pt x="202" y="601" on="1"/>
        <pt x="173" y="591" on="0"/>
        <pt x="143" y="547" on="0"/>
        <pt x="143" y="517" on="1"/>
        <pt x="144" y="464" on="0"/>
        <pt x="202" y="429" on="1"/>
      </contour>
      <contour>
        <pt x="274" y="114" on="0"/>
        <pt x="305" y="160" on="0"/>
        <pt x="305" y="192" on="1"/>
        <pt x="305" y="225" on="0"/>
        <pt x="275" y="264" on="0"/>
        <pt x="247" y="281" on="1"/>
        <pt x="247" y="104" on="1"/>
      </contour>
    </TTGlyph>
    <TTGlyph name="dotaccent" xMin="74" yMin="594" xMax="185" yMax="702">
      <contour>
        <pt x="74" y="594" on="0"/>
        <pt x="74" y="621" on="1"/>
        <pt x="74" y="676" on="1"/>
        <pt x="74" y="702" on="0"/>
        <pt x="130" y="702" on="1"/>
        <pt x="185" y="702" on="0"/>
        <pt x="185" y="676" on="1"/>
        <pt x="185" y="621" on="1"/>
        <pt x="185" y="594" on="0"/>
        <pt x="130" y="594" on="1"/>
      </contour>
    </TTGlyph>
    <TTGlyph name="dotbelowcomb" xMin="-51" yMin="-188" xMax="60" yMax="-80">
      <contour>
        <pt x="-25" y="-188" on="0"/>
        <pt x="-51" y="-175" on="0"/>
        <pt x="-51" y="-161" on="1"/>
        <pt x="-51" y="-106" on="1"/>
        <pt x="-51" y="-80" on="0"/>
        <pt x="4" y="-80" on="1"/>
        <pt x="60" y="-80" on="0"/>
        <pt x="60" y="-106" on="1"/>
        <pt x="60" y="-161" on="1"/>
        <pt x="60" y="-188" on="0"/>
        <pt x="4" y="-188" on="1"/>
      </contour>
    </TTGlyph>
    <TTGlyph name="dotlessi" xMin="71" yMin="-2" xMax="183" yMax="525">
      <contour>
        <pt x="71" y="-2" on="0"/>
        <pt x="71" y="24" on="1"/>
        <pt x="71" y="499" on="1"/>
        <pt x="71" y="525" on="0"/>
        <pt x="120" y="525" on="1"/>
        <pt x="134" y="525" on="1"/>
        <pt x="183" y="525" on="0"/>
        <pt x="183" y="499" on="1"/>
        <pt x="183" y="24" on="1"/>
        <pt x="183" y="-2" on="0"/>
        <pt x="134" y="-2" on="1"/>
        <pt x="120" y="-2" on="1"/>
      </contour>
    </TTGlyph>
    <TTGlyph name="e" xMin="41" yMin="-7" xMax="423" yMax="530">
      <contour>
        <pt x="148" y="-7" on="0"/>
        <pt x="41" y="125" on="0"/>
        <pt x="41" y="258" on="1"/>
        <pt x="41" y="397" on="0"/>
        <pt x="145" y="530" on="0"/>
        <pt x="243" y="530" on="1"/>
        <pt x="423" y="530" on="0"/>
        <pt x="423" y="265" on="1"/>
        <pt x="423" y="254" on="0"/>
        <pt x="391" y="216" on="0"/>
        <pt x="382" y="216" on="1"/>
        <pt x="159" y="216" on="1"/>
        <pt x="163" y="147" on="0"/>
        <pt x="211" y="85" on="0"/>
        <pt x="260" y="85" on="1"/>
        <pt x="290" y="85" on="0"/>
        <pt x="333" y="101" on="0"/>
        <pt x="365" y="121" on="0"/>
        <pt x="368" y="121" on="1"/>
        <pt x="380" y="121" on="0"/>
        <pt x="411" y="73" on="0"/>
        <pt x="411" y="60" on="1"/>
        <pt x="411" y="43" on="0"/>
        <pt x="364" y="12" on="0"/>
        <pt x="292" y="-7" on="0"/>
        <pt x="258" y="-7" on="1"/>
      </contour>
      <contour>
        <pt x="314" y="296" on="1"/>
        <pt x="314" y="371" on="0"/>
        <pt x="279" y="442" on="0"/>
        <pt x="241" y="442" on="1"/>
        <pt x="202" y="442" on="0"/>
        <pt x="160" y="372" on="0"/>
        <pt x="156" y="296" on="1"/>
      </contour>
    </TTGlyph>
    <TTGlyph name="eacute" xMin="41" yMin="-7" xMax="423" yMax="733">
      <component glyphName="e" x="0" y="0" flags="0x0"/>
      <component glyphName="acutecomb" x="305" y="0" flags="0x0"/>
    </TTGlyph>
    <TTGlyph name="ebreve" xMin="41" yMin="-7" xMax="423" yMax="715">
      <component glyphName="e" x="0" y="0" flags="0x0"/>
      <component glyphName="uni0306" x="230" y="0" flags="0x0"/>
    </TTGlyph>
    <TTGlyph name="ecaron" xMin="41" yMin="-7" xMax="423" yMax="722">
      <component glyphName="e" x="0" y="0" flags="0x0"/>
      <component glyphName="uni030C" x="225" y="0" flags="0x0"/>
    </TTGlyph>
    <TTGlyph name="ecircumflex" xMin="41" yMin="-7" xMax="423" yMax="718">
      <component glyphName="e" x="0" y="0" flags="0x0"/>
      <component glyphName="uni0302" x="229" y="0" flags="0x0"/>
    </TTGlyph>
    <TTGlyph name="edieresis" xMin="41" yMin="-7" xMax="423" yMax="702">
      <component glyphName="e" x="0" y="0" flags="0x0"/>
      <component glyphName="uni0308" x="233" y="0" flags="0x0"/>
    </TTGlyph>
    <TTGlyph name="edotaccent" xMin="41" yMin="-7" xMax="423" yMax="702">
      <component glyphName="e" x="0" y="0" flags="0x0"/>
      <component glyphName="uni0307" x="231" y="0" flags="0x0"/>
    </TTGlyph>
    <TTGlyph name="egrave" xMin="41" yMin="-7" xMax="423" yMax="733">
      <component glyphName="e" x="0" y="0" flags="0x0"/>
      <component glyphName="gravecomb" x="230" y="0" flags="0x0"/>
    </TTGlyph>
    <TTGlyph name="eight" xMin="34" yMin="-7" xMax="428" yMax="707">
      <contour>
        <pt x="139" y="-7" on="0"/>
        <pt x="34" y="102" on="0"/>
        <pt x="34" y="195" on="1"/>
        <pt x="34" y="322" on="0"/>
        <pt x="130" y="373" on="1"/>
        <pt x="94" y="399" on="0"/>
        <pt x="52" y="472" on="0"/>
        <pt x="52" y="528" on="1"/>
        <pt x="52" y="611" on="0"/>
        <pt x="152" y="707" on="0"/>
        <pt x="234" y="707" on="1"/>
        <pt x="312" y="707" on="0"/>
        <pt x="413" y="616" on="0"/>
        <pt x="413" y="535" on="1"/>
        <pt x="413" y="427" on="0"/>
        <pt x="325" y="377" on="1"/>
        <pt x="373" y="349" on="0"/>
        <pt x="428" y="266" on="0"/>
        <pt x="428" y="196" on="1"/>
        <pt x="428" y="106" on="0"/>
        <pt x="324" y="-7" on="0"/>
        <pt x="231" y="-7" on="1"/>
      </contour>
      <contour>
        <pt x="307" y="464" on="0"/>
        <pt x="307" y="531" on="1"/>
        <pt x="307" y="572" on="0"/>
        <pt x="265" y="615" on="0"/>
        <pt x="233" y="615" on="1"/>
        <pt x="202" y="615" on="0"/>
        <pt x="160" y="573" on="0"/>
        <pt x="160" y="533" on="1"/>
        <pt x="160" y="493" on="0"/>
        <pt x="203" y="444" on="0"/>
        <pt x="245" y="423" on="1"/>
      </contour>
      <contour>
        <pt x="270" y="85" on="0"/>
        <pt x="318" y="146" on="0"/>
        <pt x="318" y="193" on="1"/>
        <pt x="318" y="229" on="0"/>
        <pt x="289" y="277" on="0"/>
        <pt x="246" y="306" on="0"/>
        <pt x="208" y="326" on="1"/>
        <pt x="177" y="304" on="0"/>
        <pt x="144" y="245" on="0"/>
        <pt x="144" y="200" on="1"/>
        <pt x="144" y="143" on="0"/>
        <pt x="192" y="85" on="0"/>
        <pt x="231" y="85" on="1"/>
      </contour>
    </TTGlyph>
    <TTGlyph name="ellipsis" xMin="35" yMin="-2" xMax="517" yMax="128">
      <contour>
        <pt x="35" y="-2" on="0"/>
        <pt x="35" y="24" on="1"/>
        <pt x="35" y="102" on="1"/>
        <pt x="35" y="128" on="0"/>
        <pt x="81" y="128" on="1"/>
        <pt x="103" y="128" on="1"/>
        <pt x="128" y="128" on="0"/>
        <pt x="150" y="115" on="0"/>
        <pt x="150" y="102" on="1"/>
        <pt x="150" y="24" on="1"/>
        <pt x="150" y="11" on="0"/>
        <pt x="128" y="-2" on="0"/>
        <pt x="103" y="-2" on="1"/>
        <pt x="81" y="-2" on="1"/>
      </contour>
      <contour>
        <pt x="218" y="-2" on="0"/>
        <pt x="218" y="24" on="1"/>
        <pt x="218" y="102" on="1"/>
        <pt x="218" y="128" on="0"/>
        <pt x="265" y="128" on="1"/>
        <pt x="287" y="128" on="1"/>
        <pt x="334" y="128" on="0"/>
        <pt x="334" y="102" on="1"/>
        <pt x="334" y="24" on="1"/>
        <pt x="334" y="-2" on="0"/>
        <pt x="287" y="-2" on="1"/>
        <pt x="265" y="-2" on="1"/>
      </contour>
      <contour>
        <pt x="401" y="-2" on="0"/>
        <pt x="401" y="24" on="1"/>
        <pt x="401" y="102" on="1"/>
        <pt x="401" y="128" on="0"/>
        <pt x="448" y="128" on="1"/>
        <pt x="471" y="128" on="1"/>
        <pt x="517" y="128" on="0"/>
        <pt x="517" y="102" on="1"/>
        <pt x="517" y="24" on="1"/>
        <pt x="517" y="-2" on="0"/>
        <pt x="471" y="-2" on="1"/>
        <pt x="448" y="-2" on="1"/>
      </contour>
    </TTGlyph>
    <TTGlyph name="emacron" xMin="41" yMin="-7" xMax="423" yMax="686">
      <component glyphName="e" x="0" y="0" flags="0x0"/>
      <component glyphName="uni0304" x="233" y="0" flags="0x0"/>
    </TTGlyph>
    <TTGlyph name="emdash" xMin="0" yMin="222" xMax="886" yMax="308">
      <contour>
        <pt x="11" y="222" on="0"/>
        <pt x="0" y="241" on="0"/>
        <pt x="0" y="261" on="1"/>
        <pt x="0" y="270" on="1"/>
        <pt x="0" y="290" on="0"/>
        <pt x="11" y="308" on="0"/>
        <pt x="23" y="308" on="1"/>
        <pt x="863" y="308" on="1"/>
        <pt x="875" y="308" on="0"/>
        <pt x="886" y="290" on="0"/>
        <pt x="886" y="270" on="1"/>
        <pt x="886" y="261" on="1"/>
        <pt x="886" y="241" on="0"/>
        <pt x="875" y="222" on="0"/>
        <pt x="863" y="222" on="1"/>
        <pt x="23" y="222" on="1"/>
      </contour>
    </TTGlyph>
    <TTGlyph name="endash" xMin="0" yMin="222" xMax="443" yMax="308">
      <contour>
        <pt x="11" y="222" on="0"/>
        <pt x="0" y="241" on="0"/>
        <pt x="0" y="261" on="1"/>
        <pt x="0" y="270" on="1"/>
        <pt x="0" y="290" on="0"/>
        <pt x="11" y="308" on="0"/>
        <pt x="23" y="308" on="1"/>
        <pt x="420" y="308" on="1"/>
        <pt x="432" y="308" on="0"/>
        <pt x="443" y="290" on="0"/>
        <pt x="443" y="270" on="1"/>
        <pt x="443" y="261" on="1"/>
        <pt x="443" y="241" on="0"/>
        <pt x="432" y="222" on="0"/>
        <pt x="420" y="222" on="1"/>
        <pt x="23" y="222" on="1"/>
      </contour>
    </TTGlyph>
    <TTGlyph name="eng" xMin="56" yMin="-212" xMax="424" yMax="530">
      <contour>
        <pt x="219" y="-212" on="0"/>
        <pt x="219" y="-173" on="1"/>
        <pt x="219" y="-157" on="0"/>
        <pt x="233" y="-116" on="0"/>
        <pt x="244" y="-116" on="1"/>
        <pt x="248" y="-116" on="0"/>
        <pt x="266" y="-120" on="0"/>
        <pt x="277" y="-120" on="1"/>
        <pt x="292" y="-120" on="0"/>
        <pt x="309" y="-94" on="0"/>
        <pt x="309" y="-63" on="1"/>
        <pt x="309" y="362" on="1"/>
        <pt x="309" y="398" on="0"/>
        <pt x="282" y="435" on="0"/>
        <pt x="253" y="435" on="1"/>
        <pt x="231" y="435" on="0"/>
        <pt x="193" y="406" on="0"/>
        <pt x="179" y="382" on="1"/>
        <pt x="179" y="24" on="1"/>
        <pt x="179" y="-2" on="0"/>
        <pt x="133" y="-2" on="1"/>
        <pt x="111" y="-2" on="1"/>
        <pt x="66" y="-2" on="0"/>
        <pt x="66" y="24" on="1"/>
        <pt x="66" y="362" on="1"/>
        <pt x="66" y="429" on="0"/>
        <pt x="56" y="489" on="0"/>
        <pt x="56" y="494" on="1"/>
        <pt x="56" y="508" on="0"/>
        <pt x="117" y="522" on="0"/>
        <pt x="139" y="522" on="1"/>
        <pt x="155" y="522" on="0"/>
        <pt x="167" y="497" on="0"/>
        <pt x="172" y="463" on="0"/>
        <pt x="173" y="454" on="1"/>
        <pt x="196" y="488" on="0"/>
        <pt x="263" y="530" on="0"/>
        <pt x="302" y="530" on="1"/>
        <pt x="361" y="530" on="0"/>
        <pt x="424" y="453" on="0"/>
        <pt x="424" y="381" on="1"/>
        <pt x="424" y="-67" on="1"/>
        <pt x="424" y="-143" on="0"/>
        <pt x="352" y="-212" on="0"/>
        <pt x="301" y="-212" on="1"/>
      </contour>
    </TTGlyph>
    <TTGlyph name="eogonek" xMin="41" yMin="-171" xMax="450" yMax="530">
      <contour>
        <pt x="450" y="-100" on="0"/>
        <pt x="450" y="-126" on="1"/>
        <pt x="450" y="-146" on="0"/>
        <pt x="435" y="-155" on="1"/>
        <pt x="409" y="-171" on="0"/>
        <pt x="373" y="-171" on="1"/>
        <pt x="318" y="-171" on="0"/>
        <pt x="279" y="-112" on="0"/>
        <pt x="279" y="-80" on="1"/>
        <pt x="279" y="-44" on="0"/>
        <pt x="297" y="-4" on="1"/>
        <pt x="278" y="-7" on="0"/>
        <pt x="258" y="-7" on="1"/>
        <pt x="148" y="-7" on="0"/>
        <pt x="41" y="125" on="0"/>
        <pt x="41" y="258" on="1"/>
        <pt x="41" y="397" on="0"/>
        <pt x="145" y="530" on="0"/>
        <pt x="243" y="530" on="1"/>
        <pt x="423" y="530" on="0"/>
        <pt x="423" y="265" on="1"/>
        <pt x="423" y="254" on="0"/>
        <pt x="391" y="216" on="0"/>
        <pt x="382" y="216" on="1"/>
        <pt x="159" y="216" on="1"/>
        <pt x="163" y="147" on="0"/>
        <pt x="211" y="85" on="0"/>
        <pt x="260" y="85" on="1"/>
        <pt x="290" y="85" on="0"/>
        <pt x="333" y="101" on="0"/>
        <pt x="365" y="121" on="0"/>
        <pt x="368" y="121" on="1"/>
        <pt x="380" y="121" on="0"/>
        <pt x="411" y="73" on="0"/>
        <pt x="411" y="60" on="1"/>
        <pt x="411" y="35" on="0"/>
        <pt x="365" y="15" on="1"/>
        <pt x="343" y="-22" on="0"/>
        <pt x="343" y="-62" on="1"/>
        <pt x="343" y="-87" on="0"/>
        <pt x="371" y="-105" on="0"/>
        <pt x="392" y="-105" on="1"/>
        <pt x="400" y="-105" on="0"/>
        <pt x="419" y="-100" on="0"/>
        <pt x="425" y="-100" on="1"/>
      </contour>
      <contour>
        <pt x="202" y="442" on="0"/>
        <pt x="160" y="372" on="0"/>
        <pt x="156" y="296" on="1"/>
        <pt x="314" y="296" on="1"/>
        <pt x="314" y="371" on="0"/>
        <pt x="279" y="442" on="0"/>
        <pt x="241" y="442" on="1"/>
      </contour>
    </TTGlyph>
    <TTGlyph name="equal" xMin="34" yMin="178" xMax="415" yMax="274">
      <contour>
        <pt x="415" y="228" on="1"/>
        <pt x="415" y="226" on="1"/>
        <pt x="415" y="224" on="1"/>
        <pt x="415" y="217" on="1"/>
        <pt x="415" y="197" on="0"/>
        <pt x="404" y="178" on="0"/>
        <pt x="392" y="178" on="1"/>
        <pt x="58" y="178" on="1"/>
        <pt x="34" y="178" on="0"/>
        <pt x="34" y="217" on="1"/>
        <pt x="34" y="224" on="1"/>
        <pt x="34" y="226" on="1"/>
        <pt x="34" y="228" on="1"/>
        <pt x="34" y="235" on="1"/>
        <pt x="34" y="255" on="0"/>
        <pt x="45" y="274" on="0"/>
        <pt x="58" y="274" on="1"/>
        <pt x="392" y="274" on="1"/>
        <pt x="405" y="274" on="0"/>
        <pt x="415" y="256" on="0"/>
        <pt x="415" y="235" on="1"/>
      </contour>
    </TTGlyph>
    <TTGlyph name="estimated" xMin="22" yMin="-7" xMax="593" yMax="707">
      <contour>
        <pt x="163" y="108" on="1"/>
        <pt x="226" y="48" on="0"/>
        <pt x="320" y="48" on="1"/>
        <pt x="367" y="48" on="0"/>
        <pt x="464" y="93" on="0"/>
        <pt x="492" y="131" on="1"/>
        <pt x="504" y="146" on="0"/>
        <pt x="513" y="146" on="1"/>
        <pt x="525" y="146" on="0"/>
        <pt x="543" y="128" on="0"/>
        <pt x="543" y="118" on="1"/>
        <pt x="543" y="110" on="0"/>
        <pt x="533" y="97" on="1"/>
        <pt x="491" y="48" on="0"/>
        <pt x="380" y="-7" on="0"/>
        <pt x="320" y="-7" on="1"/>
        <pt x="237" y="-7" on="0"/>
        <pt x="102" y="79" on="0"/>
        <pt x="22" y="243" on="0"/>
        <pt x="22" y="355" on="1"/>
        <pt x="22" y="465" on="0"/>
        <pt x="99" y="624" on="0"/>
        <pt x="231" y="707" on="0"/>
        <pt x="312" y="707" on="1"/>
        <pt x="390" y="707" on="0"/>
        <pt x="518" y="624" on="0"/>
        <pt x="593" y="465" on="0"/>
        <pt x="593" y="355" on="1"/>
        <pt x="163" y="355" on="1"/>
      </contour>
      <contour>
        <pt x="426" y="627" on="0"/>
        <pt x="352" y="657" on="0"/>
        <pt x="312" y="657" on="1"/>
        <pt x="224" y="657" on="0"/>
        <pt x="163" y="599" on="1"/>
        <pt x="163" y="405" on="1"/>
        <pt x="456" y="405" on="1"/>
        <pt x="456" y="598" on="1"/>
      </contour>
    </TTGlyph>
    <TTGlyph name="eth" xMin="41" yMin="-7" xMax="436" yMax="714">
      <contour>
        <pt x="382" y="533" on="0"/>
        <pt x="436" y="355" on="0"/>
        <pt x="436" y="261" on="1"/>
        <pt x="436" y="130" on="0"/>
        <pt x="336" y="-7" on="0"/>
        <pt x="239" y="-7" on="1"/>
        <pt x="142" y="-7" on="0"/>
        <pt x="41" y="130" on="0"/>
        <pt x="41" y="260" on="1"/>
        <pt x="41" y="389" on="0"/>
        <pt x="143" y="526" on="0"/>
        <pt x="239" y="526" on="1"/>
        <pt x="256" y="526" on="0"/>
        <pt x="276" y="523" on="1"/>
        <pt x="260" y="560" on="0"/>
        <pt x="237" y="599" on="1"/>
        <pt x="167" y="589" on="0"/>
        <pt x="162" y="589" on="1"/>
        <pt x="150" y="589" on="0"/>
        <pt x="130" y="612" on="0"/>
        <pt x="130" y="625" on="1"/>
        <pt x="130" y="637" on="0"/>
        <pt x="148" y="640" on="1"/>
        <pt x="207" y="648" on="1"/>
        <pt x="202" y="656" on="0"/>
        <pt x="176" y="690" on="0"/>
        <pt x="176" y="697" on="1"/>
        <pt x="176" y="707" on="0"/>
        <pt x="193" y="710" on="1"/>
        <pt x="219" y="714" on="0"/>
        <pt x="236" y="714" on="1"/>
        <pt x="254" y="714" on="0"/>
        <pt x="267" y="703" on="1"/>
        <pt x="282" y="690" on="0"/>
        <pt x="303" y="660" on="1"/>
        <pt x="371" y="671" on="0"/>
        <pt x="377" y="671" on="1"/>
        <pt x="389" y="671" on="0"/>
        <pt x="407" y="645" on="0"/>
        <pt x="407" y="634" on="1"/>
        <pt x="407" y="622" on="0"/>
        <pt x="389" y="620" on="1"/>
        <pt x="335" y="613" on="1"/>
      </contour>
      <contour>
        <pt x="281" y="85" on="0"/>
        <pt x="320" y="168" on="0"/>
        <pt x="320" y="261" on="1"/>
        <pt x="320" y="352" on="0"/>
        <pt x="281" y="434" on="0"/>
        <pt x="238" y="434" on="1"/>
        <pt x="195" y="434" on="0"/>
        <pt x="157" y="352" on="0"/>
        <pt x="157" y="261" on="1"/>
        <pt x="157" y="168" on="0"/>
        <pt x="195" y="85" on="0"/>
        <pt x="238" y="85" on="1"/>
      </contour>
    </TTGlyph>
    <TTGlyph name="exclam" xMin="62" yMin="-2" xMax="203" yMax="702">
      <contour>
        <pt x="94" y="211" on="0"/>
        <pt x="77" y="223" on="0"/>
        <pt x="77" y="237" on="1"/>
        <pt x="77" y="676" on="1"/>
        <pt x="77" y="702" on="0"/>
        <pt x="124" y="702" on="1"/>
        <pt x="157" y="702" on="1"/>
        <pt x="203" y="702" on="0"/>
        <pt x="203" y="677" on="1"/>
        <pt x="191" y="531" on="0"/>
        <pt x="165" y="237" on="1"/>
        <pt x="163" y="223" on="0"/>
        <pt x="148" y="211" on="0"/>
        <pt x="125" y="211" on="1"/>
        <pt x="117" y="211" on="1"/>
      </contour>
      <contour>
        <pt x="62" y="-2" on="0"/>
        <pt x="62" y="24" on="1"/>
        <pt x="62" y="102" on="1"/>
        <pt x="62" y="128" on="0"/>
        <pt x="108" y="128" on="1"/>
        <pt x="133" y="128" on="1"/>
        <pt x="180" y="128" on="0"/>
        <pt x="180" y="102" on="1"/>
        <pt x="180" y="24" on="1"/>
        <pt x="180" y="-2" on="0"/>
        <pt x="133" y="-2" on="1"/>
        <pt x="108" y="-2" on="1"/>
      </contour>
    </TTGlyph>
    <TTGlyph name="exclamdown" xMin="44" yMin="-179" xMax="187" yMax="525">
      <contour>
        <pt x="68" y="395" on="0"/>
        <pt x="68" y="421" on="1"/>
        <pt x="68" y="499" on="1"/>
        <pt x="68" y="525" on="0"/>
        <pt x="115" y="525" on="1"/>
        <pt x="140" y="525" on="1"/>
        <pt x="187" y="525" on="0"/>
        <pt x="187" y="499" on="1"/>
        <pt x="187" y="421" on="1"/>
        <pt x="187" y="395" on="0"/>
        <pt x="140" y="395" on="1"/>
        <pt x="115" y="395" on="1"/>
      </contour>
      <contour>
        <pt x="44" y="-179" on="0"/>
        <pt x="44" y="-155" on="1"/>
        <pt x="44" y="-132" on="0"/>
        <pt x="84" y="285" on="1"/>
        <pt x="85" y="299" on="0"/>
        <pt x="100" y="312" on="0"/>
        <pt x="122" y="312" on="1"/>
        <pt x="131" y="312" on="1"/>
        <pt x="154" y="312" on="0"/>
        <pt x="171" y="299" on="0"/>
        <pt x="171" y="285" on="1"/>
        <pt x="171" y="-153" on="1"/>
        <pt x="171" y="-179" on="0"/>
        <pt x="124" y="-179" on="1"/>
        <pt x="91" y="-179" on="1"/>
      </contour>
    </TTGlyph>
    <TTGlyph name="f" xMin="37" yMin="-2" xMax="290" yMax="758">
      <contour>
        <pt x="83" y="-2" on="0"/>
        <pt x="83" y="24" on="1"/>
        <pt x="83" y="431" on="1"/>
        <pt x="61" y="431" on="1"/>
        <pt x="48" y="431" on="0"/>
        <pt x="37" y="450" on="0"/>
        <pt x="37" y="470" on="1"/>
        <pt x="37" y="484" on="1"/>
        <pt x="37" y="504" on="0"/>
        <pt x="48" y="523" on="0"/>
        <pt x="61" y="523" on="1"/>
        <pt x="83" y="523" on="1"/>
        <pt x="83" y="615" on="1"/>
        <pt x="83" y="692" on="0"/>
        <pt x="154" y="758" on="0"/>
        <pt x="209" y="758" on="1"/>
        <pt x="238" y="758" on="0"/>
        <pt x="290" y="738" on="0"/>
        <pt x="290" y="718" on="1"/>
        <pt x="290" y="706" on="0"/>
        <pt x="275" y="660" on="0"/>
        <pt x="264" y="660" on="1"/>
        <pt x="259" y="660" on="0"/>
        <pt x="242" y="666" on="0"/>
        <pt x="232" y="666" on="1"/>
        <pt x="214" y="666" on="0"/>
        <pt x="195" y="643" on="0"/>
        <pt x="195" y="612" on="1"/>
        <pt x="195" y="523" on="1"/>
        <pt x="247" y="523" on="1"/>
        <pt x="272" y="523" on="0"/>
        <pt x="272" y="484" on="1"/>
        <pt x="272" y="470" on="1"/>
        <pt x="272" y="431" on="0"/>
        <pt x="247" y="431" on="1"/>
        <pt x="195" y="431" on="1"/>
        <pt x="195" y="24" on="1"/>
        <pt x="195" y="-2" on="0"/>
        <pt x="146" y="-2" on="1"/>
        <pt x="132" y="-2" on="1"/>
      </contour>
    </TTGlyph>
    <TTGlyph name="f_f" xMin="37" yMin="-2" xMax="576" yMax="758">
      <contour>
        <pt x="558" y="523" on="0"/>
        <pt x="558" y="484" on="1"/>
        <pt x="558" y="470" on="1"/>
        <pt x="558" y="431" on="0"/>
        <pt x="533" y="431" on="1"/>
        <pt x="481" y="431" on="1"/>
        <pt x="481" y="24" on="1"/>
        <pt x="481" y="-2" on="0"/>
        <pt x="432" y="-2" on="1"/>
        <pt x="418" y="-2" on="1"/>
        <pt x="369" y="-2" on="0"/>
        <pt x="369" y="24" on="1"/>
        <pt x="369" y="431" on="1"/>
        <pt x="347" y="431" on="1"/>
        <pt x="344" y="431" on="1"/>
        <pt x="195" y="431" on="1"/>
        <pt x="195" y="24" on="1"/>
        <pt x="195" y="-2" on="0"/>
        <pt x="146" y="-2" on="1"/>
        <pt x="132" y="-2" on="1"/>
        <pt x="83" y="-2" on="0"/>
        <pt x="83" y="24" on="1"/>
        <pt x="83" y="431" on="1"/>
        <pt x="61" y="431" on="1"/>
        <pt x="48" y="431" on="0"/>
        <pt x="37" y="450" on="0"/>
        <pt x="37" y="470" on="1"/>
        <pt x="37" y="484" on="1"/>
        <pt x="37" y="504" on="0"/>
        <pt x="48" y="523" on="0"/>
        <pt x="61" y="523" on="1"/>
        <pt x="83" y="523" on="1"/>
        <pt x="83" y="615" on="1"/>
        <pt x="83" y="692" on="0"/>
        <pt x="154" y="758" on="0"/>
        <pt x="209" y="758" on="1"/>
        <pt x="238" y="758" on="0"/>
        <pt x="290" y="738" on="0"/>
        <pt x="290" y="718" on="1"/>
        <pt x="290" y="706" on="0"/>
        <pt x="275" y="660" on="0"/>
        <pt x="264" y="660" on="1"/>
        <pt x="259" y="660" on="0"/>
        <pt x="242" y="666" on="0"/>
        <pt x="232" y="666" on="1"/>
        <pt x="214" y="666" on="0"/>
        <pt x="195" y="643" on="0"/>
        <pt x="195" y="612" on="1"/>
        <pt x="195" y="523" on="1"/>
        <pt x="369" y="523" on="1"/>
        <pt x="369" y="615" on="1"/>
        <pt x="369" y="692" on="0"/>
        <pt x="440" y="758" on="0"/>
        <pt x="495" y="758" on="1"/>
        <pt x="524" y="758" on="0"/>
        <pt x="576" y="738" on="0"/>
        <pt x="576" y="718" on="1"/>
        <pt x="576" y="706" on="0"/>
        <pt x="561" y="660" on="0"/>
        <pt x="550" y="660" on="1"/>
        <pt x="545" y="660" on="0"/>
        <pt x="528" y="666" on="0"/>
        <pt x="518" y="666" on="1"/>
        <pt x="500" y="666" on="0"/>
        <pt x="481" y="643" on="0"/>
        <pt x="481" y="612" on="1"/>
        <pt x="481" y="523" on="1"/>
        <pt x="533" y="523" on="1"/>
      </contour>
    </TTGlyph>
    <TTGlyph name="f_t" xMin="37" yMin="-7" xMax="563" yMax="758">
      <contour>
        <pt x="548" y="90" on="0"/>
        <pt x="563" y="44" on="0"/>
        <pt x="563" y="31" on="1"/>
        <pt x="563" y="11" on="0"/>
        <pt x="509" y="-7" on="0"/>
        <pt x="480" y="-7" on="1"/>
        <pt x="429" y="-7" on="0"/>
        <pt x="362" y="57" on="0"/>
        <pt x="362" y="130" on="1"/>
        <pt x="362" y="431" on="1"/>
        <pt x="339" y="431" on="1"/>
        <pt x="336" y="431" on="1"/>
        <pt x="195" y="431" on="1"/>
        <pt x="195" y="24" on="1"/>
        <pt x="195" y="-2" on="0"/>
        <pt x="146" y="-2" on="1"/>
        <pt x="132" y="-2" on="1"/>
        <pt x="83" y="-2" on="0"/>
        <pt x="83" y="24" on="1"/>
        <pt x="83" y="431" on="1"/>
        <pt x="61" y="431" on="1"/>
        <pt x="48" y="431" on="0"/>
        <pt x="37" y="450" on="0"/>
        <pt x="37" y="470" on="1"/>
        <pt x="37" y="484" on="1"/>
        <pt x="37" y="504" on="0"/>
        <pt x="48" y="523" on="0"/>
        <pt x="61" y="523" on="1"/>
        <pt x="83" y="523" on="1"/>
        <pt x="83" y="615" on="1"/>
        <pt x="83" y="692" on="0"/>
        <pt x="154" y="758" on="0"/>
        <pt x="209" y="758" on="1"/>
        <pt x="238" y="758" on="0"/>
        <pt x="290" y="738" on="0"/>
        <pt x="290" y="718" on="1"/>
        <pt x="290" y="706" on="0"/>
        <pt x="275" y="660" on="0"/>
        <pt x="264" y="660" on="1"/>
        <pt x="259" y="660" on="0"/>
        <pt x="242" y="666" on="0"/>
        <pt x="232" y="666" on="1"/>
        <pt x="214" y="666" on="0"/>
        <pt x="195" y="643" on="0"/>
        <pt x="195" y="612" on="1"/>
        <pt x="195" y="523" on="1"/>
        <pt x="362" y="523" on="1"/>
        <pt x="375" y="624" on="1"/>
        <pt x="378" y="650" on="0"/>
        <pt x="417" y="650" on="1"/>
        <pt x="436" y="650" on="1"/>
        <pt x="475" y="650" on="0"/>
        <pt x="475" y="624" on="1"/>
        <pt x="475" y="523" on="1"/>
        <pt x="528" y="523" on="1"/>
        <pt x="541" y="523" on="0"/>
        <pt x="552" y="504" on="0"/>
        <pt x="552" y="484" on="1"/>
        <pt x="552" y="470" on="1"/>
        <pt x="552" y="450" on="0"/>
        <pt x="541" y="431" on="0"/>
        <pt x="528" y="431" on="1"/>
        <pt x="475" y="431" on="1"/>
        <pt x="475" y="136" on="1"/>
        <pt x="475" y="107" on="0"/>
        <pt x="491" y="85" on="0"/>
        <pt x="507" y="85" on="1"/>
        <pt x="516" y="85" on="0"/>
        <pt x="534" y="90" on="0"/>
        <pt x="538" y="90" on="1"/>
      </contour>
    </TTGlyph>
    <TTGlyph name="fi" xMin="37" yMin="-2" xMax="470" yMax="758">
      <contour>
        <pt x="446" y="523" on="0"/>
        <pt x="469" y="511" on="0"/>
        <pt x="469" y="499" on="1"/>
        <pt x="469" y="24" on="1"/>
        <pt x="469" y="-2" on="0"/>
        <pt x="420" y="-2" on="1"/>
        <pt x="406" y="-2" on="1"/>
        <pt x="357" y="-2" on="0"/>
        <pt x="357" y="24" on="1"/>
        <pt x="357" y="431" on="1"/>
        <pt x="195" y="431" on="1"/>
        <pt x="195" y="24" on="1"/>
        <pt x="195" y="-2" on="0"/>
        <pt x="146" y="-2" on="1"/>
        <pt x="132" y="-2" on="1"/>
        <pt x="83" y="-2" on="0"/>
        <pt x="83" y="24" on="1"/>
        <pt x="83" y="431" on="1"/>
        <pt x="61" y="431" on="1"/>
        <pt x="48" y="431" on="0"/>
        <pt x="37" y="450" on="0"/>
        <pt x="37" y="470" on="1"/>
        <pt x="37" y="484" on="1"/>
        <pt x="37" y="504" on="0"/>
        <pt x="48" y="523" on="0"/>
        <pt x="61" y="523" on="1"/>
        <pt x="83" y="523" on="1"/>
        <pt x="83" y="615" on="1"/>
        <pt x="83" y="692" on="0"/>
        <pt x="154" y="758" on="0"/>
        <pt x="209" y="758" on="1"/>
        <pt x="238" y="758" on="0"/>
        <pt x="290" y="738" on="0"/>
        <pt x="290" y="718" on="1"/>
        <pt x="290" y="706" on="0"/>
        <pt x="275" y="660" on="0"/>
        <pt x="264" y="660" on="1"/>
        <pt x="259" y="660" on="0"/>
        <pt x="242" y="666" on="0"/>
        <pt x="232" y="666" on="1"/>
        <pt x="214" y="666" on="0"/>
        <pt x="195" y="643" on="0"/>
        <pt x="195" y="612" on="1"/>
        <pt x="195" y="523" on="1"/>
        <pt x="420" y="523" on="1"/>
      </contour>
      <contour>
        <pt x="470" y="702" on="0"/>
        <pt x="470" y="676" on="1"/>
        <pt x="470" y="621" on="1"/>
        <pt x="470" y="594" on="0"/>
        <pt x="414" y="594" on="1"/>
        <pt x="359" y="594" on="0"/>
        <pt x="359" y="621" on="1"/>
        <pt x="359" y="676" on="1"/>
        <pt x="359" y="702" on="0"/>
        <pt x="414" y="702" on="1"/>
      </contour>
    </TTGlyph>
    <TTGlyph name="five" xMin="29" yMin="-7" xMax="421" yMax="700">
      <contour>
        <pt x="152" y="-7" on="0"/>
        <pt x="74" y="12" on="0"/>
        <pt x="29" y="42" on="0"/>
        <pt x="29" y="58" on="1"/>
        <pt x="29" y="73" on="0"/>
        <pt x="61" y="121" on="0"/>
        <pt x="73" y="121" on="1"/>
        <pt x="78" y="121" on="0"/>
        <pt x="92" y="113" on="1"/>
        <pt x="117" y="100" on="0"/>
        <pt x="164" y="85" on="0"/>
        <pt x="196" y="85" on="1"/>
        <pt x="244" y="85" on="0"/>
        <pt x="307" y="152" on="0"/>
        <pt x="307" y="212" on="1"/>
        <pt x="307" y="338" on="0"/>
        <pt x="173" y="338" on="1"/>
        <pt x="90" y="338" on="1"/>
        <pt x="72" y="338" on="0"/>
        <pt x="58" y="353" on="0"/>
        <pt x="58" y="372" on="1"/>
        <pt x="76" y="666" on="1"/>
        <pt x="77" y="684" on="0"/>
        <pt x="93" y="700" on="0"/>
        <pt x="112" y="700" on="1"/>
        <pt x="368" y="700" on="1"/>
        <pt x="381" y="700" on="0"/>
        <pt x="393" y="681" on="0"/>
        <pt x="393" y="661" on="1"/>
        <pt x="393" y="643" on="1"/>
        <pt x="393" y="624" on="0"/>
        <pt x="381" y="608" on="0"/>
        <pt x="368" y="608" on="1"/>
        <pt x="180" y="608" on="1"/>
        <pt x="169" y="430" on="1"/>
        <pt x="200" y="430" on="1"/>
        <pt x="297" y="430" on="0"/>
        <pt x="421" y="330" on="0"/>
        <pt x="421" y="213" on="1"/>
        <pt x="421" y="97" on="0"/>
        <pt x="291" y="-7" on="0"/>
        <pt x="200" y="-7" on="1"/>
      </contour>
    </TTGlyph>
    <TTGlyph name="fl" xMin="37" yMin="-7" xMax="546" yMax="758">
      <component glyphName="f" x="0" y="0" flags="0x0"/>
      <component glyphName="l" x="286" y="0" flags="0x0"/>
    </TTGlyph>
</ttFont>
